M48
;DRILL file {Pcbnew (2013-jul-07)-stable} date Fri 28 Nov 2014 01:10:26 PM PST
;FORMAT={-:-/ absolute / inch / decimal}
FMAT,2
INCH,TZ
T1C0.032
T2C0.063
T3C0.070
T4C0.106
T5C0.120
T6C0.124
%
G90
G05
M72
T1
X2.4256Y-6.0902
X2.4256Y-6.3902
X2.45Y-2.3819
X2.45Y-2.7362
X2.45Y-3.0906
X2.45Y-3.4449
X2.45Y-3.7992
X2.45Y-4.1535
X2.45Y-4.5079
X2.45Y-4.8622
X2.5256Y-6.0902
X2.5256Y-6.3902
X2.55Y-2.3819
X2.55Y-2.7362
X2.55Y-3.0906
X2.55Y-3.4449
X2.55Y-3.7992
X2.55Y-4.1535
X2.55Y-4.5079
X2.55Y-4.8622
X2.6256Y-6.0902
X2.6256Y-6.3902
X2.7256Y-6.0902
X2.7256Y-6.3902
X2.8043Y-2.3819
X2.8043Y-2.7362
X2.8043Y-3.0906
X2.8043Y-3.4449
X2.8043Y-3.7992
X2.8043Y-4.1535
X2.8043Y-4.5079
X2.8043Y-4.8622
X2.8256Y-6.0902
X2.8256Y-6.3902
X2.9043Y-2.3819
X2.9043Y-2.7362
X2.9043Y-3.0906
X2.9043Y-3.4449
X2.9043Y-3.7992
X2.9043Y-4.1535
X2.9043Y-4.5079
X2.9043Y-4.8622
X2.9256Y-6.0902
X2.9256Y-6.3902
X3.0256Y-6.0902
X3.0256Y-6.3902
X3.1256Y-6.0902
X3.1256Y-6.3902
X3.1587Y-2.3819
X3.1587Y-2.7362
X3.1587Y-3.0906
X3.1587Y-3.4449
X3.1587Y-3.7992
X3.1587Y-4.1535
X3.1587Y-4.5079
X3.1587Y-4.8622
X3.2587Y-2.3819
X3.2587Y-2.7362
X3.2587Y-3.0906
X3.2587Y-3.4449
X3.2587Y-3.7992
X3.2587Y-4.1535
X3.2587Y-4.5079
X3.2587Y-4.8622
X3.513Y-2.3819
X3.513Y-2.7362
X3.513Y-3.0906
X3.513Y-3.4449
X3.513Y-3.7992
X3.513Y-4.1535
X3.513Y-4.5079
X3.513Y-4.8622
X3.6067Y-6.0902
X3.6067Y-6.3902
X3.613Y-2.3819
X3.613Y-2.7362
X3.613Y-3.0906
X3.613Y-3.4449
X3.613Y-3.7992
X3.613Y-4.1535
X3.613Y-4.5079
X3.613Y-4.8622
X3.7067Y-6.0902
X3.7067Y-6.3902
X3.8067Y-6.0902
X3.8067Y-6.3902
X3.8673Y-2.3819
X3.8673Y-2.7362
X3.8673Y-3.0906
X3.8673Y-3.4449
X3.8673Y-3.7992
X3.8673Y-4.1535
X3.8673Y-4.5079
X3.8673Y-4.8622
X3.9067Y-6.0902
X3.9067Y-6.3902
X3.9673Y-2.3819
X3.9673Y-2.7362
X3.9673Y-3.0906
X3.9673Y-3.4449
X3.9673Y-3.7992
X3.9673Y-4.1535
X3.9673Y-4.5079
X3.9673Y-4.8622
X4.0067Y-6.0902
X4.0067Y-6.3902
X4.1067Y-6.0902
X4.1067Y-6.3902
X4.2067Y-6.0902
X4.2067Y-6.3902
X4.2217Y-2.3819
X4.2217Y-2.7362
X4.2217Y-3.0906
X4.2217Y-3.4449
X4.2217Y-3.7992
X4.2217Y-4.1535
X4.2217Y-4.5079
X4.2217Y-4.8622
X4.3067Y-6.0902
X4.3067Y-6.3902
X4.3217Y-2.3819
X4.3217Y-2.7362
X4.3217Y-3.0906
X4.3217Y-3.4449
X4.3217Y-3.7992
X4.3217Y-4.1535
X4.3217Y-4.5079
X4.3217Y-4.8622
X4.576Y-2.3819
X4.576Y-2.7362
X4.576Y-3.0906
X4.576Y-3.4449
X4.576Y-3.7992
X4.576Y-4.1535
X4.576Y-4.5079
X4.576Y-4.8622
X4.676Y-2.3819
X4.676Y-2.7362
X4.676Y-3.0906
X4.676Y-3.4449
X4.676Y-3.7992
X4.676Y-4.1535
X4.676Y-4.5079
X4.676Y-4.8622
X4.9303Y-2.3819
X4.9303Y-2.7362
X4.9303Y-3.0906
X4.9303Y-3.4449
X4.9303Y-3.7992
X4.9303Y-4.1535
X4.9303Y-4.5079
X4.9303Y-4.8622
X5.0303Y-2.3819
X5.0303Y-2.7362
X5.0303Y-3.0906
X5.0303Y-3.4449
X5.0303Y-3.7992
X5.0303Y-4.1535
X5.0303Y-4.5079
X5.0303Y-4.8622
X5.2846Y-2.3819
X5.2846Y-2.7362
X5.2846Y-3.0906
X5.2846Y-3.4449
X5.2846Y-3.7992
X5.2846Y-4.1535
X5.2846Y-4.5079
X5.2846Y-4.8622
X5.3846Y-2.3819
X5.3846Y-2.7362
X5.3846Y-3.0906
X5.3846Y-3.4449
X5.3846Y-3.7992
X5.3846Y-4.1535
X5.3846Y-4.5079
X5.3846Y-4.8622
X5.639Y-2.3819
X5.639Y-2.7362
X5.639Y-3.0906
X5.639Y-3.4449
X5.639Y-3.7992
X5.639Y-4.1535
X5.639Y-4.5079
X5.639Y-4.8622
X5.739Y-2.3819
X5.739Y-2.7362
X5.739Y-3.0906
X5.739Y-3.4449
X5.739Y-3.7992
X5.739Y-4.1535
X5.739Y-4.5079
X5.739Y-4.8622
X5.9933Y-2.3819
X5.9933Y-2.7362
X5.9933Y-3.0906
X5.9933Y-3.4449
X5.9933Y-3.7992
X5.9933Y-4.1535
X5.9933Y-4.5079
X5.9933Y-4.8622
X6.0933Y-2.3819
X6.0933Y-2.7362
X6.0933Y-3.0906
X6.0933Y-3.4449
X6.0933Y-3.7992
X6.0933Y-4.1535
X6.0933Y-4.5079
X6.0933Y-4.8622
X6.3476Y-2.3819
X6.3476Y-2.7362
X6.3476Y-3.0906
X6.3476Y-3.4449
X6.3476Y-3.7992
X6.3476Y-4.1535
X6.3476Y-4.5079
X6.3476Y-4.8622
X6.4476Y-2.3819
X6.4476Y-2.7362
X6.4476Y-3.0906
X6.4476Y-3.4449
X6.4476Y-3.7992
X6.4476Y-4.1535
X6.4476Y-4.5079
X6.4476Y-4.8622
T2
X6.2008Y-6.4174
T3
X4.9311Y-6.2386
X5.1181Y-6.2386
X5.3051Y-6.2386
T4
X6.0238Y-6.3384
X6.2008Y-6.2994
X6.3778Y-6.3384
T5
X1.6929Y-1.6142
X1.6929Y-6.3386
X7.2047Y-1.6142
X7.2047Y-6.3386
T6
X6.2008Y-6.0634
T0
M30
