G04 (created by PCBNEW (2013-jul-07)-stable) date Fri 28 Nov 2014 01:10:13 PM PST*
%MOIN*%
G04 Gerber Fmt 3.4, Leading zero omitted, Abs format*
%FSLAX34Y34*%
G01*
G70*
G90*
G04 APERTURE LIST*
%ADD10C,0.00590551*%
%ADD11C,0.011811*%
%ADD12C,0.015*%
%ADD13C,0.008*%
%ADD14C,0.003*%
%ADD15C,0.01*%
%ADD16C,0.006*%
%ADD17C,0.012*%
%ADD18C,0.01125*%
%ADD19C,0.0035*%
G04 APERTURE END LIST*
G54D10*
G54D11*
X66657Y-37710D02*
X65869Y-37710D01*
X65869Y-37317D02*
X65869Y-37204D01*
X65907Y-37148D01*
X65982Y-37092D01*
X66132Y-37064D01*
X66394Y-37064D01*
X66544Y-37092D01*
X66619Y-37148D01*
X66657Y-37204D01*
X66657Y-37317D01*
X66619Y-37373D01*
X66544Y-37429D01*
X66394Y-37457D01*
X66132Y-37457D01*
X65982Y-37429D01*
X65907Y-37373D01*
X65869Y-37317D01*
X66657Y-36023D02*
X66282Y-36220D01*
X66657Y-36361D02*
X65869Y-36361D01*
X65869Y-36136D01*
X65907Y-36079D01*
X65944Y-36051D01*
X66019Y-36023D01*
X66132Y-36023D01*
X66207Y-36051D01*
X66244Y-36079D01*
X66282Y-36136D01*
X66282Y-36361D01*
X66657Y-35686D02*
X66619Y-35742D01*
X66582Y-35770D01*
X66507Y-35798D01*
X66282Y-35798D01*
X66207Y-35770D01*
X66169Y-35742D01*
X66132Y-35686D01*
X66132Y-35601D01*
X66169Y-35545D01*
X66207Y-35517D01*
X66282Y-35489D01*
X66507Y-35489D01*
X66582Y-35517D01*
X66619Y-35545D01*
X66657Y-35601D01*
X66657Y-35686D01*
X66657Y-34983D02*
X65869Y-34983D01*
X66619Y-34983D02*
X66657Y-35039D01*
X66657Y-35151D01*
X66619Y-35208D01*
X66582Y-35236D01*
X66507Y-35264D01*
X66282Y-35264D01*
X66207Y-35236D01*
X66169Y-35208D01*
X66132Y-35151D01*
X66132Y-35039D01*
X66169Y-34983D01*
X66619Y-34476D02*
X66657Y-34533D01*
X66657Y-34645D01*
X66619Y-34701D01*
X66544Y-34730D01*
X66244Y-34730D01*
X66169Y-34701D01*
X66132Y-34645D01*
X66132Y-34533D01*
X66169Y-34476D01*
X66244Y-34448D01*
X66319Y-34448D01*
X66394Y-34730D01*
X66657Y-34111D02*
X66619Y-34167D01*
X66582Y-34195D01*
X66507Y-34223D01*
X66282Y-34223D01*
X66207Y-34195D01*
X66169Y-34167D01*
X66132Y-34111D01*
X66132Y-34026D01*
X66169Y-33970D01*
X66207Y-33942D01*
X66282Y-33914D01*
X66507Y-33914D01*
X66582Y-33942D01*
X66619Y-33970D01*
X66657Y-34026D01*
X66657Y-34111D01*
X67427Y-44642D02*
X67390Y-44699D01*
X67352Y-44727D01*
X67277Y-44755D01*
X67240Y-44755D01*
X67165Y-44727D01*
X67127Y-44699D01*
X67090Y-44642D01*
X67090Y-44530D01*
X67127Y-44474D01*
X67165Y-44446D01*
X67240Y-44417D01*
X67277Y-44417D01*
X67352Y-44446D01*
X67390Y-44474D01*
X67427Y-44530D01*
X67427Y-44642D01*
X67465Y-44699D01*
X67502Y-44727D01*
X67577Y-44755D01*
X67727Y-44755D01*
X67802Y-44727D01*
X67840Y-44699D01*
X67877Y-44642D01*
X67877Y-44530D01*
X67840Y-44474D01*
X67802Y-44446D01*
X67727Y-44417D01*
X67577Y-44417D01*
X67502Y-44446D01*
X67465Y-44474D01*
X67427Y-44530D01*
X67877Y-44221D02*
X67352Y-43911D01*
X67352Y-44221D02*
X67877Y-43911D01*
X67877Y-43377D02*
X67877Y-43714D01*
X67877Y-43546D02*
X67090Y-43546D01*
X67202Y-43602D01*
X67277Y-43658D01*
X67315Y-43714D01*
X67165Y-43152D02*
X67127Y-43124D01*
X67090Y-43068D01*
X67090Y-42927D01*
X67127Y-42871D01*
X67165Y-42843D01*
X67240Y-42814D01*
X67315Y-42814D01*
X67427Y-42843D01*
X67877Y-43180D01*
X67877Y-42814D01*
X67877Y-41830D02*
X67877Y-42111D01*
X67090Y-42111D01*
X67465Y-41633D02*
X67465Y-41437D01*
X67877Y-41352D02*
X67877Y-41633D01*
X67090Y-41633D01*
X67090Y-41352D01*
X67877Y-41099D02*
X67090Y-41099D01*
X67090Y-40958D01*
X67127Y-40874D01*
X67202Y-40818D01*
X67277Y-40790D01*
X67427Y-40762D01*
X67540Y-40762D01*
X67690Y-40790D01*
X67765Y-40818D01*
X67840Y-40874D01*
X67877Y-40958D01*
X67877Y-41099D01*
X67652Y-40087D02*
X67652Y-39805D01*
X67877Y-40143D02*
X67090Y-39946D01*
X67877Y-39749D01*
X67877Y-39552D02*
X67352Y-39552D01*
X67502Y-39552D02*
X67427Y-39524D01*
X67390Y-39496D01*
X67352Y-39440D01*
X67352Y-39384D01*
X67877Y-39187D02*
X67352Y-39187D01*
X67502Y-39187D02*
X67427Y-39159D01*
X67390Y-39131D01*
X67352Y-39074D01*
X67352Y-39018D01*
X67877Y-38568D02*
X67465Y-38568D01*
X67390Y-38596D01*
X67352Y-38652D01*
X67352Y-38765D01*
X67390Y-38821D01*
X67840Y-38568D02*
X67877Y-38624D01*
X67877Y-38765D01*
X67840Y-38821D01*
X67765Y-38849D01*
X67690Y-38849D01*
X67615Y-38821D01*
X67577Y-38765D01*
X67577Y-38624D01*
X67540Y-38568D01*
X67352Y-38343D02*
X67877Y-38203D01*
X67352Y-38062D02*
X67877Y-38203D01*
X68065Y-38259D01*
X68102Y-38287D01*
X68140Y-38343D01*
X67352Y-37471D02*
X67352Y-37246D01*
X67877Y-37387D02*
X67202Y-37387D01*
X67127Y-37359D01*
X67090Y-37303D01*
X67090Y-37246D01*
X67877Y-36965D02*
X67840Y-37021D01*
X67802Y-37050D01*
X67727Y-37078D01*
X67502Y-37078D01*
X67427Y-37050D01*
X67390Y-37021D01*
X67352Y-36965D01*
X67352Y-36881D01*
X67390Y-36825D01*
X67427Y-36796D01*
X67502Y-36768D01*
X67727Y-36768D01*
X67802Y-36796D01*
X67840Y-36825D01*
X67877Y-36881D01*
X67877Y-36965D01*
X67877Y-36515D02*
X67352Y-36515D01*
X67502Y-36515D02*
X67427Y-36487D01*
X67390Y-36459D01*
X67352Y-36403D01*
X67352Y-36347D01*
X67877Y-35672D02*
X67877Y-35559D01*
X67840Y-35503D01*
X67802Y-35475D01*
X67690Y-35419D01*
X67540Y-35390D01*
X67240Y-35390D01*
X67165Y-35419D01*
X67127Y-35447D01*
X67090Y-35503D01*
X67090Y-35615D01*
X67127Y-35672D01*
X67165Y-35700D01*
X67240Y-35728D01*
X67427Y-35728D01*
X67502Y-35700D01*
X67540Y-35672D01*
X67577Y-35615D01*
X67577Y-35503D01*
X67540Y-35447D01*
X67502Y-35419D01*
X67427Y-35390D01*
X67090Y-34884D02*
X67090Y-34997D01*
X67127Y-35053D01*
X67165Y-35081D01*
X67277Y-35137D01*
X67427Y-35165D01*
X67727Y-35165D01*
X67802Y-35137D01*
X67840Y-35109D01*
X67877Y-35053D01*
X67877Y-34940D01*
X67840Y-34884D01*
X67802Y-34856D01*
X67727Y-34828D01*
X67540Y-34828D01*
X67465Y-34856D01*
X67427Y-34884D01*
X67390Y-34940D01*
X67390Y-35053D01*
X67427Y-35109D01*
X67465Y-35137D01*
X67540Y-35165D01*
X67577Y-34575D02*
X67577Y-34125D01*
X67352Y-33900D02*
X67877Y-33787D01*
X67502Y-33675D01*
X67877Y-33562D01*
X67352Y-33450D01*
X67840Y-33000D02*
X67877Y-33056D01*
X67877Y-33169D01*
X67840Y-33225D01*
X67765Y-33253D01*
X67465Y-33253D01*
X67390Y-33225D01*
X67352Y-33169D01*
X67352Y-33056D01*
X67390Y-33000D01*
X67465Y-32972D01*
X67540Y-32972D01*
X67615Y-33253D01*
X67877Y-32634D02*
X67840Y-32691D01*
X67765Y-32719D01*
X67090Y-32719D01*
X67877Y-32325D02*
X67840Y-32381D01*
X67765Y-32410D01*
X67090Y-32410D01*
X67352Y-31650D02*
X68140Y-31650D01*
X67390Y-31650D02*
X67352Y-31594D01*
X67352Y-31482D01*
X67390Y-31425D01*
X67427Y-31397D01*
X67502Y-31369D01*
X67727Y-31369D01*
X67802Y-31397D01*
X67840Y-31425D01*
X67877Y-31482D01*
X67877Y-31594D01*
X67840Y-31650D01*
X67877Y-31032D02*
X67840Y-31088D01*
X67765Y-31116D01*
X67090Y-31116D01*
X67877Y-30553D02*
X67465Y-30553D01*
X67390Y-30582D01*
X67352Y-30638D01*
X67352Y-30750D01*
X67390Y-30807D01*
X67840Y-30553D02*
X67877Y-30610D01*
X67877Y-30750D01*
X67840Y-30807D01*
X67765Y-30835D01*
X67690Y-30835D01*
X67615Y-30807D01*
X67577Y-30750D01*
X67577Y-30610D01*
X67540Y-30553D01*
X67352Y-30357D02*
X67352Y-30132D01*
X67090Y-30272D02*
X67765Y-30272D01*
X67840Y-30244D01*
X67877Y-30188D01*
X67877Y-30132D01*
X67840Y-29710D02*
X67877Y-29766D01*
X67877Y-29879D01*
X67840Y-29935D01*
X67765Y-29963D01*
X67465Y-29963D01*
X67390Y-29935D01*
X67352Y-29879D01*
X67352Y-29766D01*
X67390Y-29710D01*
X67465Y-29682D01*
X67540Y-29682D01*
X67615Y-29963D01*
X67840Y-29457D02*
X67877Y-29401D01*
X67877Y-29288D01*
X67840Y-29232D01*
X67765Y-29204D01*
X67727Y-29204D01*
X67652Y-29232D01*
X67615Y-29288D01*
X67615Y-29372D01*
X67577Y-29429D01*
X67502Y-29457D01*
X67465Y-29457D01*
X67390Y-29429D01*
X67352Y-29372D01*
X67352Y-29288D01*
X67390Y-29232D01*
X67352Y-28557D02*
X67877Y-28416D01*
X67352Y-28276D01*
X67877Y-27741D02*
X67877Y-28079D01*
X67877Y-27910D02*
X67090Y-27910D01*
X67202Y-27966D01*
X67277Y-28023D01*
X67315Y-28079D01*
X67802Y-27488D02*
X67840Y-27460D01*
X67877Y-27488D01*
X67840Y-27516D01*
X67802Y-27488D01*
X67877Y-27488D01*
X67090Y-27095D02*
X67090Y-27038D01*
X67127Y-26982D01*
X67165Y-26954D01*
X67240Y-26926D01*
X67390Y-26898D01*
X67577Y-26898D01*
X67727Y-26926D01*
X67802Y-26954D01*
X67840Y-26982D01*
X67877Y-27038D01*
X67877Y-27095D01*
X67840Y-27151D01*
X67802Y-27179D01*
X67727Y-27207D01*
X67577Y-27235D01*
X67390Y-27235D01*
X67240Y-27207D01*
X67165Y-27179D01*
X67127Y-27151D01*
X67090Y-27095D01*
G54D12*
X47381Y-61385D02*
X54981Y-61385D01*
X54981Y-61385D02*
X54981Y-65385D01*
X54981Y-65385D02*
X47381Y-65385D01*
X47381Y-65385D02*
X47381Y-61385D01*
X35066Y-61901D02*
X35066Y-61901D01*
X35066Y-61901D02*
X35566Y-61901D01*
X35566Y-61901D02*
X35566Y-62901D01*
X35566Y-62901D02*
X35066Y-62901D01*
X35066Y-61401D02*
X44066Y-61401D01*
X44066Y-61401D02*
X44066Y-63401D01*
X44066Y-63401D02*
X35066Y-63401D01*
X35066Y-63401D02*
X35066Y-61401D01*
X23255Y-61901D02*
X23255Y-61901D01*
X23255Y-61901D02*
X23755Y-61901D01*
X23755Y-61901D02*
X23755Y-62901D01*
X23755Y-62901D02*
X23255Y-62901D01*
X23255Y-61401D02*
X32255Y-61401D01*
X32255Y-61401D02*
X32255Y-63401D01*
X32255Y-63401D02*
X23255Y-63401D01*
X23255Y-63401D02*
X23255Y-61401D01*
X64757Y-65354D02*
X59257Y-65354D01*
X59257Y-65354D02*
X59257Y-59604D01*
X59257Y-59604D02*
X64757Y-59604D01*
X64757Y-59604D02*
X64757Y-65354D01*
G54D13*
X26120Y-45828D02*
X26120Y-44328D01*
G54D14*
X25807Y-45078D02*
G75*
G03X25807Y-45078I-707J0D01*
G74*
G01*
G54D15*
X26099Y-44328D02*
G75*
G03X26099Y-45829I-999J-750D01*
G74*
G01*
G54D16*
X25100Y-44628D02*
G75*
G03X24650Y-45078I0J-450D01*
G74*
G01*
X25100Y-45528D02*
G75*
G03X25550Y-45078I0J450D01*
G74*
G01*
X25100Y-44428D02*
G75*
G03X24450Y-45078I0J-650D01*
G74*
G01*
X25100Y-45728D02*
G75*
G03X25750Y-45078I0J650D01*
G74*
G01*
X25100Y-44228D02*
G75*
G03X24250Y-45078I0J-850D01*
G74*
G01*
X25100Y-45928D02*
G75*
G03X25950Y-45078I0J850D01*
G74*
G01*
G54D13*
X36749Y-38742D02*
X36749Y-37242D01*
G54D14*
X36437Y-37992D02*
G75*
G03X36437Y-37992I-707J0D01*
G74*
G01*
G54D15*
X36729Y-37241D02*
G75*
G03X36729Y-38742I-999J-750D01*
G74*
G01*
G54D16*
X35729Y-37542D02*
G75*
G03X35279Y-37992I0J-450D01*
G74*
G01*
X35729Y-38442D02*
G75*
G03X36179Y-37992I0J450D01*
G74*
G01*
X35729Y-37342D02*
G75*
G03X35079Y-37992I0J-650D01*
G74*
G01*
X35729Y-38642D02*
G75*
G03X36379Y-37992I0J650D01*
G74*
G01*
X35729Y-37142D02*
G75*
G03X34879Y-37992I0J-850D01*
G74*
G01*
X35729Y-38842D02*
G75*
G03X36579Y-37992I0J850D01*
G74*
G01*
G54D13*
X65096Y-42285D02*
X65096Y-40785D01*
G54D14*
X64783Y-41535D02*
G75*
G03X64783Y-41535I-707J0D01*
G74*
G01*
G54D15*
X65075Y-40784D02*
G75*
G03X65075Y-42285I-999J-750D01*
G74*
G01*
G54D16*
X64076Y-41085D02*
G75*
G03X63626Y-41535I0J-450D01*
G74*
G01*
X64076Y-41985D02*
G75*
G03X64526Y-41535I0J450D01*
G74*
G01*
X64076Y-40885D02*
G75*
G03X63426Y-41535I0J-650D01*
G74*
G01*
X64076Y-42185D02*
G75*
G03X64726Y-41535I0J650D01*
G74*
G01*
X64076Y-40685D02*
G75*
G03X63226Y-41535I0J-850D01*
G74*
G01*
X64076Y-42385D02*
G75*
G03X64926Y-41535I0J850D01*
G74*
G01*
G54D13*
X61553Y-42285D02*
X61553Y-40785D01*
G54D14*
X61240Y-41535D02*
G75*
G03X61240Y-41535I-707J0D01*
G74*
G01*
G54D15*
X61532Y-40784D02*
G75*
G03X61532Y-42285I-999J-750D01*
G74*
G01*
G54D16*
X60533Y-41085D02*
G75*
G03X60083Y-41535I0J-450D01*
G74*
G01*
X60533Y-41985D02*
G75*
G03X60983Y-41535I0J450D01*
G74*
G01*
X60533Y-40885D02*
G75*
G03X59883Y-41535I0J-650D01*
G74*
G01*
X60533Y-42185D02*
G75*
G03X61183Y-41535I0J650D01*
G74*
G01*
X60533Y-40685D02*
G75*
G03X59683Y-41535I0J-850D01*
G74*
G01*
X60533Y-42385D02*
G75*
G03X61383Y-41535I0J850D01*
G74*
G01*
G54D13*
X58009Y-42285D02*
X58009Y-40785D01*
G54D14*
X57696Y-41535D02*
G75*
G03X57696Y-41535I-707J0D01*
G74*
G01*
G54D15*
X57989Y-40784D02*
G75*
G03X57989Y-42285I-999J-750D01*
G74*
G01*
G54D16*
X56989Y-41085D02*
G75*
G03X56539Y-41535I0J-450D01*
G74*
G01*
X56989Y-41985D02*
G75*
G03X57439Y-41535I0J450D01*
G74*
G01*
X56989Y-40885D02*
G75*
G03X56339Y-41535I0J-650D01*
G74*
G01*
X56989Y-42185D02*
G75*
G03X57639Y-41535I0J650D01*
G74*
G01*
X56989Y-40685D02*
G75*
G03X56139Y-41535I0J-850D01*
G74*
G01*
X56989Y-42385D02*
G75*
G03X57839Y-41535I0J850D01*
G74*
G01*
G54D13*
X54466Y-42285D02*
X54466Y-40785D01*
G54D14*
X54153Y-41535D02*
G75*
G03X54153Y-41535I-707J0D01*
G74*
G01*
G54D15*
X54446Y-40784D02*
G75*
G03X54446Y-42285I-999J-750D01*
G74*
G01*
G54D16*
X53446Y-41085D02*
G75*
G03X52996Y-41535I0J-450D01*
G74*
G01*
X53446Y-41985D02*
G75*
G03X53896Y-41535I0J450D01*
G74*
G01*
X53446Y-40885D02*
G75*
G03X52796Y-41535I0J-650D01*
G74*
G01*
X53446Y-42185D02*
G75*
G03X54096Y-41535I0J650D01*
G74*
G01*
X53446Y-40685D02*
G75*
G03X52596Y-41535I0J-850D01*
G74*
G01*
X53446Y-42385D02*
G75*
G03X54296Y-41535I0J850D01*
G74*
G01*
G54D13*
X50923Y-42285D02*
X50923Y-40785D01*
G54D14*
X50610Y-41535D02*
G75*
G03X50610Y-41535I-707J0D01*
G74*
G01*
G54D15*
X50902Y-40784D02*
G75*
G03X50902Y-42285I-999J-750D01*
G74*
G01*
G54D16*
X49903Y-41085D02*
G75*
G03X49453Y-41535I0J-450D01*
G74*
G01*
X49903Y-41985D02*
G75*
G03X50353Y-41535I0J450D01*
G74*
G01*
X49903Y-40885D02*
G75*
G03X49253Y-41535I0J-650D01*
G74*
G01*
X49903Y-42185D02*
G75*
G03X50553Y-41535I0J650D01*
G74*
G01*
X49903Y-40685D02*
G75*
G03X49053Y-41535I0J-850D01*
G74*
G01*
X49903Y-42385D02*
G75*
G03X50753Y-41535I0J850D01*
G74*
G01*
G54D13*
X47379Y-42285D02*
X47379Y-40785D01*
G54D14*
X47066Y-41535D02*
G75*
G03X47066Y-41535I-707J0D01*
G74*
G01*
G54D15*
X47359Y-40784D02*
G75*
G03X47359Y-42285I-999J-750D01*
G74*
G01*
G54D16*
X46359Y-41085D02*
G75*
G03X45909Y-41535I0J-450D01*
G74*
G01*
X46359Y-41985D02*
G75*
G03X46809Y-41535I0J450D01*
G74*
G01*
X46359Y-40885D02*
G75*
G03X45709Y-41535I0J-650D01*
G74*
G01*
X46359Y-42185D02*
G75*
G03X47009Y-41535I0J650D01*
G74*
G01*
X46359Y-40685D02*
G75*
G03X45509Y-41535I0J-850D01*
G74*
G01*
X46359Y-42385D02*
G75*
G03X47209Y-41535I0J850D01*
G74*
G01*
G54D13*
X43836Y-42285D02*
X43836Y-40785D01*
G54D14*
X43523Y-41535D02*
G75*
G03X43523Y-41535I-707J0D01*
G74*
G01*
G54D15*
X43816Y-40784D02*
G75*
G03X43816Y-42285I-999J-750D01*
G74*
G01*
G54D16*
X42816Y-41085D02*
G75*
G03X42366Y-41535I0J-450D01*
G74*
G01*
X42816Y-41985D02*
G75*
G03X43266Y-41535I0J450D01*
G74*
G01*
X42816Y-40885D02*
G75*
G03X42166Y-41535I0J-650D01*
G74*
G01*
X42816Y-42185D02*
G75*
G03X43466Y-41535I0J650D01*
G74*
G01*
X42816Y-40685D02*
G75*
G03X41966Y-41535I0J-850D01*
G74*
G01*
X42816Y-42385D02*
G75*
G03X43666Y-41535I0J850D01*
G74*
G01*
G54D13*
X40293Y-42285D02*
X40293Y-40785D01*
G54D14*
X39980Y-41535D02*
G75*
G03X39980Y-41535I-707J0D01*
G74*
G01*
G54D15*
X40272Y-40784D02*
G75*
G03X40272Y-42285I-999J-750D01*
G74*
G01*
G54D16*
X39273Y-41085D02*
G75*
G03X38823Y-41535I0J-450D01*
G74*
G01*
X39273Y-41985D02*
G75*
G03X39723Y-41535I0J450D01*
G74*
G01*
X39273Y-40885D02*
G75*
G03X38623Y-41535I0J-650D01*
G74*
G01*
X39273Y-42185D02*
G75*
G03X39923Y-41535I0J650D01*
G74*
G01*
X39273Y-40685D02*
G75*
G03X38423Y-41535I0J-850D01*
G74*
G01*
X39273Y-42385D02*
G75*
G03X40123Y-41535I0J850D01*
G74*
G01*
G54D13*
X36749Y-42285D02*
X36749Y-40785D01*
G54D14*
X36437Y-41535D02*
G75*
G03X36437Y-41535I-707J0D01*
G74*
G01*
G54D15*
X36729Y-40784D02*
G75*
G03X36729Y-42285I-999J-750D01*
G74*
G01*
G54D16*
X35729Y-41085D02*
G75*
G03X35279Y-41535I0J-450D01*
G74*
G01*
X35729Y-41985D02*
G75*
G03X36179Y-41535I0J450D01*
G74*
G01*
X35729Y-40885D02*
G75*
G03X35079Y-41535I0J-650D01*
G74*
G01*
X35729Y-42185D02*
G75*
G03X36379Y-41535I0J650D01*
G74*
G01*
X35729Y-40685D02*
G75*
G03X34879Y-41535I0J-850D01*
G74*
G01*
X35729Y-42385D02*
G75*
G03X36579Y-41535I0J850D01*
G74*
G01*
G54D13*
X33206Y-42285D02*
X33206Y-40785D01*
G54D14*
X32893Y-41535D02*
G75*
G03X32893Y-41535I-707J0D01*
G74*
G01*
G54D15*
X33186Y-40784D02*
G75*
G03X33186Y-42285I-999J-750D01*
G74*
G01*
G54D16*
X32186Y-41085D02*
G75*
G03X31736Y-41535I0J-450D01*
G74*
G01*
X32186Y-41985D02*
G75*
G03X32636Y-41535I0J450D01*
G74*
G01*
X32186Y-40885D02*
G75*
G03X31536Y-41535I0J-650D01*
G74*
G01*
X32186Y-42185D02*
G75*
G03X32836Y-41535I0J650D01*
G74*
G01*
X32186Y-40685D02*
G75*
G03X31336Y-41535I0J-850D01*
G74*
G01*
X32186Y-42385D02*
G75*
G03X33036Y-41535I0J850D01*
G74*
G01*
G54D13*
X29663Y-42285D02*
X29663Y-40785D01*
G54D14*
X29350Y-41535D02*
G75*
G03X29350Y-41535I-707J0D01*
G74*
G01*
G54D15*
X29642Y-40784D02*
G75*
G03X29642Y-42285I-999J-750D01*
G74*
G01*
G54D16*
X28643Y-41085D02*
G75*
G03X28193Y-41535I0J-450D01*
G74*
G01*
X28643Y-41985D02*
G75*
G03X29093Y-41535I0J450D01*
G74*
G01*
X28643Y-40885D02*
G75*
G03X27993Y-41535I0J-650D01*
G74*
G01*
X28643Y-42185D02*
G75*
G03X29293Y-41535I0J650D01*
G74*
G01*
X28643Y-40685D02*
G75*
G03X27793Y-41535I0J-850D01*
G74*
G01*
X28643Y-42385D02*
G75*
G03X29493Y-41535I0J850D01*
G74*
G01*
G54D13*
X26120Y-42285D02*
X26120Y-40785D01*
G54D14*
X25807Y-41535D02*
G75*
G03X25807Y-41535I-707J0D01*
G74*
G01*
G54D15*
X26099Y-40784D02*
G75*
G03X26099Y-42285I-999J-750D01*
G74*
G01*
G54D16*
X25100Y-41085D02*
G75*
G03X24650Y-41535I0J-450D01*
G74*
G01*
X25100Y-41985D02*
G75*
G03X25550Y-41535I0J450D01*
G74*
G01*
X25100Y-40885D02*
G75*
G03X24450Y-41535I0J-650D01*
G74*
G01*
X25100Y-42185D02*
G75*
G03X25750Y-41535I0J650D01*
G74*
G01*
X25100Y-40685D02*
G75*
G03X24250Y-41535I0J-850D01*
G74*
G01*
X25100Y-42385D02*
G75*
G03X25950Y-41535I0J850D01*
G74*
G01*
G54D13*
X65096Y-38742D02*
X65096Y-37242D01*
G54D14*
X64783Y-37992D02*
G75*
G03X64783Y-37992I-707J0D01*
G74*
G01*
G54D15*
X65075Y-37241D02*
G75*
G03X65075Y-38742I-999J-750D01*
G74*
G01*
G54D16*
X64076Y-37542D02*
G75*
G03X63626Y-37992I0J-450D01*
G74*
G01*
X64076Y-38442D02*
G75*
G03X64526Y-37992I0J450D01*
G74*
G01*
X64076Y-37342D02*
G75*
G03X63426Y-37992I0J-650D01*
G74*
G01*
X64076Y-38642D02*
G75*
G03X64726Y-37992I0J650D01*
G74*
G01*
X64076Y-37142D02*
G75*
G03X63226Y-37992I0J-850D01*
G74*
G01*
X64076Y-38842D02*
G75*
G03X64926Y-37992I0J850D01*
G74*
G01*
G54D13*
X61553Y-38742D02*
X61553Y-37242D01*
G54D14*
X61240Y-37992D02*
G75*
G03X61240Y-37992I-707J0D01*
G74*
G01*
G54D15*
X61532Y-37241D02*
G75*
G03X61532Y-38742I-999J-750D01*
G74*
G01*
G54D16*
X60533Y-37542D02*
G75*
G03X60083Y-37992I0J-450D01*
G74*
G01*
X60533Y-38442D02*
G75*
G03X60983Y-37992I0J450D01*
G74*
G01*
X60533Y-37342D02*
G75*
G03X59883Y-37992I0J-650D01*
G74*
G01*
X60533Y-38642D02*
G75*
G03X61183Y-37992I0J650D01*
G74*
G01*
X60533Y-37142D02*
G75*
G03X59683Y-37992I0J-850D01*
G74*
G01*
X60533Y-38842D02*
G75*
G03X61383Y-37992I0J850D01*
G74*
G01*
G54D13*
X58009Y-38742D02*
X58009Y-37242D01*
G54D14*
X57696Y-37992D02*
G75*
G03X57696Y-37992I-707J0D01*
G74*
G01*
G54D15*
X57989Y-37241D02*
G75*
G03X57989Y-38742I-999J-750D01*
G74*
G01*
G54D16*
X56989Y-37542D02*
G75*
G03X56539Y-37992I0J-450D01*
G74*
G01*
X56989Y-38442D02*
G75*
G03X57439Y-37992I0J450D01*
G74*
G01*
X56989Y-37342D02*
G75*
G03X56339Y-37992I0J-650D01*
G74*
G01*
X56989Y-38642D02*
G75*
G03X57639Y-37992I0J650D01*
G74*
G01*
X56989Y-37142D02*
G75*
G03X56139Y-37992I0J-850D01*
G74*
G01*
X56989Y-38842D02*
G75*
G03X57839Y-37992I0J850D01*
G74*
G01*
G54D13*
X54466Y-38742D02*
X54466Y-37242D01*
G54D14*
X54153Y-37992D02*
G75*
G03X54153Y-37992I-707J0D01*
G74*
G01*
G54D15*
X54446Y-37241D02*
G75*
G03X54446Y-38742I-999J-750D01*
G74*
G01*
G54D16*
X53446Y-37542D02*
G75*
G03X52996Y-37992I0J-450D01*
G74*
G01*
X53446Y-38442D02*
G75*
G03X53896Y-37992I0J450D01*
G74*
G01*
X53446Y-37342D02*
G75*
G03X52796Y-37992I0J-650D01*
G74*
G01*
X53446Y-38642D02*
G75*
G03X54096Y-37992I0J650D01*
G74*
G01*
X53446Y-37142D02*
G75*
G03X52596Y-37992I0J-850D01*
G74*
G01*
X53446Y-38842D02*
G75*
G03X54296Y-37992I0J850D01*
G74*
G01*
G54D13*
X50923Y-38742D02*
X50923Y-37242D01*
G54D14*
X50610Y-37992D02*
G75*
G03X50610Y-37992I-707J0D01*
G74*
G01*
G54D15*
X50902Y-37241D02*
G75*
G03X50902Y-38742I-999J-750D01*
G74*
G01*
G54D16*
X49903Y-37542D02*
G75*
G03X49453Y-37992I0J-450D01*
G74*
G01*
X49903Y-38442D02*
G75*
G03X50353Y-37992I0J450D01*
G74*
G01*
X49903Y-37342D02*
G75*
G03X49253Y-37992I0J-650D01*
G74*
G01*
X49903Y-38642D02*
G75*
G03X50553Y-37992I0J650D01*
G74*
G01*
X49903Y-37142D02*
G75*
G03X49053Y-37992I0J-850D01*
G74*
G01*
X49903Y-38842D02*
G75*
G03X50753Y-37992I0J850D01*
G74*
G01*
G54D13*
X47379Y-38742D02*
X47379Y-37242D01*
G54D14*
X47066Y-37992D02*
G75*
G03X47066Y-37992I-707J0D01*
G74*
G01*
G54D15*
X47359Y-37241D02*
G75*
G03X47359Y-38742I-999J-750D01*
G74*
G01*
G54D16*
X46359Y-37542D02*
G75*
G03X45909Y-37992I0J-450D01*
G74*
G01*
X46359Y-38442D02*
G75*
G03X46809Y-37992I0J450D01*
G74*
G01*
X46359Y-37342D02*
G75*
G03X45709Y-37992I0J-650D01*
G74*
G01*
X46359Y-38642D02*
G75*
G03X47009Y-37992I0J650D01*
G74*
G01*
X46359Y-37142D02*
G75*
G03X45509Y-37992I0J-850D01*
G74*
G01*
X46359Y-38842D02*
G75*
G03X47209Y-37992I0J850D01*
G74*
G01*
G54D13*
X43836Y-38742D02*
X43836Y-37242D01*
G54D14*
X43523Y-37992D02*
G75*
G03X43523Y-37992I-707J0D01*
G74*
G01*
G54D15*
X43816Y-37241D02*
G75*
G03X43816Y-38742I-999J-750D01*
G74*
G01*
G54D16*
X42816Y-37542D02*
G75*
G03X42366Y-37992I0J-450D01*
G74*
G01*
X42816Y-38442D02*
G75*
G03X43266Y-37992I0J450D01*
G74*
G01*
X42816Y-37342D02*
G75*
G03X42166Y-37992I0J-650D01*
G74*
G01*
X42816Y-38642D02*
G75*
G03X43466Y-37992I0J650D01*
G74*
G01*
X42816Y-37142D02*
G75*
G03X41966Y-37992I0J-850D01*
G74*
G01*
X42816Y-38842D02*
G75*
G03X43666Y-37992I0J850D01*
G74*
G01*
G54D13*
X40293Y-38742D02*
X40293Y-37242D01*
G54D14*
X39980Y-37992D02*
G75*
G03X39980Y-37992I-707J0D01*
G74*
G01*
G54D15*
X40272Y-37241D02*
G75*
G03X40272Y-38742I-999J-750D01*
G74*
G01*
G54D16*
X39273Y-37542D02*
G75*
G03X38823Y-37992I0J-450D01*
G74*
G01*
X39273Y-38442D02*
G75*
G03X39723Y-37992I0J450D01*
G74*
G01*
X39273Y-37342D02*
G75*
G03X38623Y-37992I0J-650D01*
G74*
G01*
X39273Y-38642D02*
G75*
G03X39923Y-37992I0J650D01*
G74*
G01*
X39273Y-37142D02*
G75*
G03X38423Y-37992I0J-850D01*
G74*
G01*
X39273Y-38842D02*
G75*
G03X40123Y-37992I0J850D01*
G74*
G01*
G54D13*
X33206Y-38742D02*
X33206Y-37242D01*
G54D14*
X32893Y-37992D02*
G75*
G03X32893Y-37992I-707J0D01*
G74*
G01*
G54D15*
X33186Y-37241D02*
G75*
G03X33186Y-38742I-999J-750D01*
G74*
G01*
G54D16*
X32186Y-37542D02*
G75*
G03X31736Y-37992I0J-450D01*
G74*
G01*
X32186Y-38442D02*
G75*
G03X32636Y-37992I0J450D01*
G74*
G01*
X32186Y-37342D02*
G75*
G03X31536Y-37992I0J-650D01*
G74*
G01*
X32186Y-38642D02*
G75*
G03X32836Y-37992I0J650D01*
G74*
G01*
X32186Y-37142D02*
G75*
G03X31336Y-37992I0J-850D01*
G74*
G01*
X32186Y-38842D02*
G75*
G03X33036Y-37992I0J850D01*
G74*
G01*
G54D13*
X26120Y-49372D02*
X26120Y-47872D01*
G54D14*
X25807Y-48622D02*
G75*
G03X25807Y-48622I-707J0D01*
G74*
G01*
G54D15*
X26099Y-47871D02*
G75*
G03X26099Y-49372I-999J-750D01*
G74*
G01*
G54D16*
X25100Y-48172D02*
G75*
G03X24650Y-48622I0J-450D01*
G74*
G01*
X25100Y-49072D02*
G75*
G03X25550Y-48622I0J450D01*
G74*
G01*
X25100Y-47972D02*
G75*
G03X24450Y-48622I0J-650D01*
G74*
G01*
X25100Y-49272D02*
G75*
G03X25750Y-48622I0J650D01*
G74*
G01*
X25100Y-47772D02*
G75*
G03X24250Y-48622I0J-850D01*
G74*
G01*
X25100Y-49472D02*
G75*
G03X25950Y-48622I0J850D01*
G74*
G01*
G54D13*
X65096Y-49372D02*
X65096Y-47872D01*
G54D14*
X64783Y-48622D02*
G75*
G03X64783Y-48622I-707J0D01*
G74*
G01*
G54D15*
X65075Y-47871D02*
G75*
G03X65075Y-49372I-999J-750D01*
G74*
G01*
G54D16*
X64076Y-48172D02*
G75*
G03X63626Y-48622I0J-450D01*
G74*
G01*
X64076Y-49072D02*
G75*
G03X64526Y-48622I0J450D01*
G74*
G01*
X64076Y-47972D02*
G75*
G03X63426Y-48622I0J-650D01*
G74*
G01*
X64076Y-49272D02*
G75*
G03X64726Y-48622I0J650D01*
G74*
G01*
X64076Y-47772D02*
G75*
G03X63226Y-48622I0J-850D01*
G74*
G01*
X64076Y-49472D02*
G75*
G03X64926Y-48622I0J850D01*
G74*
G01*
G54D13*
X61553Y-49372D02*
X61553Y-47872D01*
G54D14*
X61240Y-48622D02*
G75*
G03X61240Y-48622I-707J0D01*
G74*
G01*
G54D15*
X61532Y-47871D02*
G75*
G03X61532Y-49372I-999J-750D01*
G74*
G01*
G54D16*
X60533Y-48172D02*
G75*
G03X60083Y-48622I0J-450D01*
G74*
G01*
X60533Y-49072D02*
G75*
G03X60983Y-48622I0J450D01*
G74*
G01*
X60533Y-47972D02*
G75*
G03X59883Y-48622I0J-650D01*
G74*
G01*
X60533Y-49272D02*
G75*
G03X61183Y-48622I0J650D01*
G74*
G01*
X60533Y-47772D02*
G75*
G03X59683Y-48622I0J-850D01*
G74*
G01*
X60533Y-49472D02*
G75*
G03X61383Y-48622I0J850D01*
G74*
G01*
G54D13*
X58009Y-49372D02*
X58009Y-47872D01*
G54D14*
X57696Y-48622D02*
G75*
G03X57696Y-48622I-707J0D01*
G74*
G01*
G54D15*
X57989Y-47871D02*
G75*
G03X57989Y-49372I-999J-750D01*
G74*
G01*
G54D16*
X56989Y-48172D02*
G75*
G03X56539Y-48622I0J-450D01*
G74*
G01*
X56989Y-49072D02*
G75*
G03X57439Y-48622I0J450D01*
G74*
G01*
X56989Y-47972D02*
G75*
G03X56339Y-48622I0J-650D01*
G74*
G01*
X56989Y-49272D02*
G75*
G03X57639Y-48622I0J650D01*
G74*
G01*
X56989Y-47772D02*
G75*
G03X56139Y-48622I0J-850D01*
G74*
G01*
X56989Y-49472D02*
G75*
G03X57839Y-48622I0J850D01*
G74*
G01*
G54D13*
X54466Y-49372D02*
X54466Y-47872D01*
G54D14*
X54153Y-48622D02*
G75*
G03X54153Y-48622I-707J0D01*
G74*
G01*
G54D15*
X54446Y-47871D02*
G75*
G03X54446Y-49372I-999J-750D01*
G74*
G01*
G54D16*
X53446Y-48172D02*
G75*
G03X52996Y-48622I0J-450D01*
G74*
G01*
X53446Y-49072D02*
G75*
G03X53896Y-48622I0J450D01*
G74*
G01*
X53446Y-47972D02*
G75*
G03X52796Y-48622I0J-650D01*
G74*
G01*
X53446Y-49272D02*
G75*
G03X54096Y-48622I0J650D01*
G74*
G01*
X53446Y-47772D02*
G75*
G03X52596Y-48622I0J-850D01*
G74*
G01*
X53446Y-49472D02*
G75*
G03X54296Y-48622I0J850D01*
G74*
G01*
G54D13*
X50923Y-49372D02*
X50923Y-47872D01*
G54D14*
X50610Y-48622D02*
G75*
G03X50610Y-48622I-707J0D01*
G74*
G01*
G54D15*
X50902Y-47871D02*
G75*
G03X50902Y-49372I-999J-750D01*
G74*
G01*
G54D16*
X49903Y-48172D02*
G75*
G03X49453Y-48622I0J-450D01*
G74*
G01*
X49903Y-49072D02*
G75*
G03X50353Y-48622I0J450D01*
G74*
G01*
X49903Y-47972D02*
G75*
G03X49253Y-48622I0J-650D01*
G74*
G01*
X49903Y-49272D02*
G75*
G03X50553Y-48622I0J650D01*
G74*
G01*
X49903Y-47772D02*
G75*
G03X49053Y-48622I0J-850D01*
G74*
G01*
X49903Y-49472D02*
G75*
G03X50753Y-48622I0J850D01*
G74*
G01*
G54D13*
X47379Y-49372D02*
X47379Y-47872D01*
G54D14*
X47066Y-48622D02*
G75*
G03X47066Y-48622I-707J0D01*
G74*
G01*
G54D15*
X47359Y-47871D02*
G75*
G03X47359Y-49372I-999J-750D01*
G74*
G01*
G54D16*
X46359Y-48172D02*
G75*
G03X45909Y-48622I0J-450D01*
G74*
G01*
X46359Y-49072D02*
G75*
G03X46809Y-48622I0J450D01*
G74*
G01*
X46359Y-47972D02*
G75*
G03X45709Y-48622I0J-650D01*
G74*
G01*
X46359Y-49272D02*
G75*
G03X47009Y-48622I0J650D01*
G74*
G01*
X46359Y-47772D02*
G75*
G03X45509Y-48622I0J-850D01*
G74*
G01*
X46359Y-49472D02*
G75*
G03X47209Y-48622I0J850D01*
G74*
G01*
G54D13*
X43836Y-49372D02*
X43836Y-47872D01*
G54D14*
X43523Y-48622D02*
G75*
G03X43523Y-48622I-707J0D01*
G74*
G01*
G54D15*
X43816Y-47871D02*
G75*
G03X43816Y-49372I-999J-750D01*
G74*
G01*
G54D16*
X42816Y-48172D02*
G75*
G03X42366Y-48622I0J-450D01*
G74*
G01*
X42816Y-49072D02*
G75*
G03X43266Y-48622I0J450D01*
G74*
G01*
X42816Y-47972D02*
G75*
G03X42166Y-48622I0J-650D01*
G74*
G01*
X42816Y-49272D02*
G75*
G03X43466Y-48622I0J650D01*
G74*
G01*
X42816Y-47772D02*
G75*
G03X41966Y-48622I0J-850D01*
G74*
G01*
X42816Y-49472D02*
G75*
G03X43666Y-48622I0J850D01*
G74*
G01*
G54D13*
X40293Y-49372D02*
X40293Y-47872D01*
G54D14*
X39980Y-48622D02*
G75*
G03X39980Y-48622I-707J0D01*
G74*
G01*
G54D15*
X40272Y-47871D02*
G75*
G03X40272Y-49372I-999J-750D01*
G74*
G01*
G54D16*
X39273Y-48172D02*
G75*
G03X38823Y-48622I0J-450D01*
G74*
G01*
X39273Y-49072D02*
G75*
G03X39723Y-48622I0J450D01*
G74*
G01*
X39273Y-47972D02*
G75*
G03X38623Y-48622I0J-650D01*
G74*
G01*
X39273Y-49272D02*
G75*
G03X39923Y-48622I0J650D01*
G74*
G01*
X39273Y-47772D02*
G75*
G03X38423Y-48622I0J-850D01*
G74*
G01*
X39273Y-49472D02*
G75*
G03X40123Y-48622I0J850D01*
G74*
G01*
G54D13*
X36749Y-49372D02*
X36749Y-47872D01*
G54D14*
X36437Y-48622D02*
G75*
G03X36437Y-48622I-707J0D01*
G74*
G01*
G54D15*
X36729Y-47871D02*
G75*
G03X36729Y-49372I-999J-750D01*
G74*
G01*
G54D16*
X35729Y-48172D02*
G75*
G03X35279Y-48622I0J-450D01*
G74*
G01*
X35729Y-49072D02*
G75*
G03X36179Y-48622I0J450D01*
G74*
G01*
X35729Y-47972D02*
G75*
G03X35079Y-48622I0J-650D01*
G74*
G01*
X35729Y-49272D02*
G75*
G03X36379Y-48622I0J650D01*
G74*
G01*
X35729Y-47772D02*
G75*
G03X34879Y-48622I0J-850D01*
G74*
G01*
X35729Y-49472D02*
G75*
G03X36579Y-48622I0J850D01*
G74*
G01*
G54D13*
X33206Y-49372D02*
X33206Y-47872D01*
G54D14*
X32893Y-48622D02*
G75*
G03X32893Y-48622I-707J0D01*
G74*
G01*
G54D15*
X33186Y-47871D02*
G75*
G03X33186Y-49372I-999J-750D01*
G74*
G01*
G54D16*
X32186Y-48172D02*
G75*
G03X31736Y-48622I0J-450D01*
G74*
G01*
X32186Y-49072D02*
G75*
G03X32636Y-48622I0J450D01*
G74*
G01*
X32186Y-47972D02*
G75*
G03X31536Y-48622I0J-650D01*
G74*
G01*
X32186Y-49272D02*
G75*
G03X32836Y-48622I0J650D01*
G74*
G01*
X32186Y-47772D02*
G75*
G03X31336Y-48622I0J-850D01*
G74*
G01*
X32186Y-49472D02*
G75*
G03X33036Y-48622I0J850D01*
G74*
G01*
G54D13*
X29663Y-49372D02*
X29663Y-47872D01*
G54D14*
X29350Y-48622D02*
G75*
G03X29350Y-48622I-707J0D01*
G74*
G01*
G54D15*
X29642Y-47871D02*
G75*
G03X29642Y-49372I-999J-750D01*
G74*
G01*
G54D16*
X28643Y-48172D02*
G75*
G03X28193Y-48622I0J-450D01*
G74*
G01*
X28643Y-49072D02*
G75*
G03X29093Y-48622I0J450D01*
G74*
G01*
X28643Y-47972D02*
G75*
G03X27993Y-48622I0J-650D01*
G74*
G01*
X28643Y-49272D02*
G75*
G03X29293Y-48622I0J650D01*
G74*
G01*
X28643Y-47772D02*
G75*
G03X27793Y-48622I0J-850D01*
G74*
G01*
X28643Y-49472D02*
G75*
G03X29493Y-48622I0J850D01*
G74*
G01*
G54D13*
X29663Y-45828D02*
X29663Y-44328D01*
G54D14*
X29350Y-45078D02*
G75*
G03X29350Y-45078I-707J0D01*
G74*
G01*
G54D15*
X29642Y-44328D02*
G75*
G03X29642Y-45829I-999J-750D01*
G74*
G01*
G54D16*
X28643Y-44628D02*
G75*
G03X28193Y-45078I0J-450D01*
G74*
G01*
X28643Y-45528D02*
G75*
G03X29093Y-45078I0J450D01*
G74*
G01*
X28643Y-44428D02*
G75*
G03X27993Y-45078I0J-650D01*
G74*
G01*
X28643Y-45728D02*
G75*
G03X29293Y-45078I0J650D01*
G74*
G01*
X28643Y-44228D02*
G75*
G03X27793Y-45078I0J-850D01*
G74*
G01*
X28643Y-45928D02*
G75*
G03X29493Y-45078I0J850D01*
G74*
G01*
G54D13*
X65096Y-45828D02*
X65096Y-44328D01*
G54D14*
X64783Y-45078D02*
G75*
G03X64783Y-45078I-707J0D01*
G74*
G01*
G54D15*
X65075Y-44328D02*
G75*
G03X65075Y-45829I-999J-750D01*
G74*
G01*
G54D16*
X64076Y-44628D02*
G75*
G03X63626Y-45078I0J-450D01*
G74*
G01*
X64076Y-45528D02*
G75*
G03X64526Y-45078I0J450D01*
G74*
G01*
X64076Y-44428D02*
G75*
G03X63426Y-45078I0J-650D01*
G74*
G01*
X64076Y-45728D02*
G75*
G03X64726Y-45078I0J650D01*
G74*
G01*
X64076Y-44228D02*
G75*
G03X63226Y-45078I0J-850D01*
G74*
G01*
X64076Y-45928D02*
G75*
G03X64926Y-45078I0J850D01*
G74*
G01*
G54D13*
X61553Y-45828D02*
X61553Y-44328D01*
G54D14*
X61240Y-45078D02*
G75*
G03X61240Y-45078I-707J0D01*
G74*
G01*
G54D15*
X61532Y-44328D02*
G75*
G03X61532Y-45829I-999J-750D01*
G74*
G01*
G54D16*
X60533Y-44628D02*
G75*
G03X60083Y-45078I0J-450D01*
G74*
G01*
X60533Y-45528D02*
G75*
G03X60983Y-45078I0J450D01*
G74*
G01*
X60533Y-44428D02*
G75*
G03X59883Y-45078I0J-650D01*
G74*
G01*
X60533Y-45728D02*
G75*
G03X61183Y-45078I0J650D01*
G74*
G01*
X60533Y-44228D02*
G75*
G03X59683Y-45078I0J-850D01*
G74*
G01*
X60533Y-45928D02*
G75*
G03X61383Y-45078I0J850D01*
G74*
G01*
G54D13*
X58009Y-45828D02*
X58009Y-44328D01*
G54D14*
X57696Y-45078D02*
G75*
G03X57696Y-45078I-707J0D01*
G74*
G01*
G54D15*
X57989Y-44328D02*
G75*
G03X57989Y-45829I-999J-750D01*
G74*
G01*
G54D16*
X56989Y-44628D02*
G75*
G03X56539Y-45078I0J-450D01*
G74*
G01*
X56989Y-45528D02*
G75*
G03X57439Y-45078I0J450D01*
G74*
G01*
X56989Y-44428D02*
G75*
G03X56339Y-45078I0J-650D01*
G74*
G01*
X56989Y-45728D02*
G75*
G03X57639Y-45078I0J650D01*
G74*
G01*
X56989Y-44228D02*
G75*
G03X56139Y-45078I0J-850D01*
G74*
G01*
X56989Y-45928D02*
G75*
G03X57839Y-45078I0J850D01*
G74*
G01*
G54D13*
X54466Y-45828D02*
X54466Y-44328D01*
G54D14*
X54153Y-45078D02*
G75*
G03X54153Y-45078I-707J0D01*
G74*
G01*
G54D15*
X54446Y-44328D02*
G75*
G03X54446Y-45829I-999J-750D01*
G74*
G01*
G54D16*
X53446Y-44628D02*
G75*
G03X52996Y-45078I0J-450D01*
G74*
G01*
X53446Y-45528D02*
G75*
G03X53896Y-45078I0J450D01*
G74*
G01*
X53446Y-44428D02*
G75*
G03X52796Y-45078I0J-650D01*
G74*
G01*
X53446Y-45728D02*
G75*
G03X54096Y-45078I0J650D01*
G74*
G01*
X53446Y-44228D02*
G75*
G03X52596Y-45078I0J-850D01*
G74*
G01*
X53446Y-45928D02*
G75*
G03X54296Y-45078I0J850D01*
G74*
G01*
G54D13*
X50923Y-45828D02*
X50923Y-44328D01*
G54D14*
X50610Y-45078D02*
G75*
G03X50610Y-45078I-707J0D01*
G74*
G01*
G54D15*
X50902Y-44328D02*
G75*
G03X50902Y-45829I-999J-750D01*
G74*
G01*
G54D16*
X49903Y-44628D02*
G75*
G03X49453Y-45078I0J-450D01*
G74*
G01*
X49903Y-45528D02*
G75*
G03X50353Y-45078I0J450D01*
G74*
G01*
X49903Y-44428D02*
G75*
G03X49253Y-45078I0J-650D01*
G74*
G01*
X49903Y-45728D02*
G75*
G03X50553Y-45078I0J650D01*
G74*
G01*
X49903Y-44228D02*
G75*
G03X49053Y-45078I0J-850D01*
G74*
G01*
X49903Y-45928D02*
G75*
G03X50753Y-45078I0J850D01*
G74*
G01*
G54D13*
X47379Y-45828D02*
X47379Y-44328D01*
G54D14*
X47066Y-45078D02*
G75*
G03X47066Y-45078I-707J0D01*
G74*
G01*
G54D15*
X47359Y-44328D02*
G75*
G03X47359Y-45829I-999J-750D01*
G74*
G01*
G54D16*
X46359Y-44628D02*
G75*
G03X45909Y-45078I0J-450D01*
G74*
G01*
X46359Y-45528D02*
G75*
G03X46809Y-45078I0J450D01*
G74*
G01*
X46359Y-44428D02*
G75*
G03X45709Y-45078I0J-650D01*
G74*
G01*
X46359Y-45728D02*
G75*
G03X47009Y-45078I0J650D01*
G74*
G01*
X46359Y-44228D02*
G75*
G03X45509Y-45078I0J-850D01*
G74*
G01*
X46359Y-45928D02*
G75*
G03X47209Y-45078I0J850D01*
G74*
G01*
G54D13*
X43836Y-45828D02*
X43836Y-44328D01*
G54D14*
X43523Y-45078D02*
G75*
G03X43523Y-45078I-707J0D01*
G74*
G01*
G54D15*
X43816Y-44328D02*
G75*
G03X43816Y-45829I-999J-750D01*
G74*
G01*
G54D16*
X42816Y-44628D02*
G75*
G03X42366Y-45078I0J-450D01*
G74*
G01*
X42816Y-45528D02*
G75*
G03X43266Y-45078I0J450D01*
G74*
G01*
X42816Y-44428D02*
G75*
G03X42166Y-45078I0J-650D01*
G74*
G01*
X42816Y-45728D02*
G75*
G03X43466Y-45078I0J650D01*
G74*
G01*
X42816Y-44228D02*
G75*
G03X41966Y-45078I0J-850D01*
G74*
G01*
X42816Y-45928D02*
G75*
G03X43666Y-45078I0J850D01*
G74*
G01*
G54D13*
X40293Y-45828D02*
X40293Y-44328D01*
G54D14*
X39980Y-45078D02*
G75*
G03X39980Y-45078I-707J0D01*
G74*
G01*
G54D15*
X40272Y-44328D02*
G75*
G03X40272Y-45829I-999J-750D01*
G74*
G01*
G54D16*
X39273Y-44628D02*
G75*
G03X38823Y-45078I0J-450D01*
G74*
G01*
X39273Y-45528D02*
G75*
G03X39723Y-45078I0J450D01*
G74*
G01*
X39273Y-44428D02*
G75*
G03X38623Y-45078I0J-650D01*
G74*
G01*
X39273Y-45728D02*
G75*
G03X39923Y-45078I0J650D01*
G74*
G01*
X39273Y-44228D02*
G75*
G03X38423Y-45078I0J-850D01*
G74*
G01*
X39273Y-45928D02*
G75*
G03X40123Y-45078I0J850D01*
G74*
G01*
G54D13*
X36749Y-45828D02*
X36749Y-44328D01*
G54D14*
X36437Y-45078D02*
G75*
G03X36437Y-45078I-707J0D01*
G74*
G01*
G54D15*
X36729Y-44328D02*
G75*
G03X36729Y-45829I-999J-750D01*
G74*
G01*
G54D16*
X35729Y-44628D02*
G75*
G03X35279Y-45078I0J-450D01*
G74*
G01*
X35729Y-45528D02*
G75*
G03X36179Y-45078I0J450D01*
G74*
G01*
X35729Y-44428D02*
G75*
G03X35079Y-45078I0J-650D01*
G74*
G01*
X35729Y-45728D02*
G75*
G03X36379Y-45078I0J650D01*
G74*
G01*
X35729Y-44228D02*
G75*
G03X34879Y-45078I0J-850D01*
G74*
G01*
X35729Y-45928D02*
G75*
G03X36579Y-45078I0J850D01*
G74*
G01*
G54D13*
X33206Y-45828D02*
X33206Y-44328D01*
G54D14*
X32893Y-45078D02*
G75*
G03X32893Y-45078I-707J0D01*
G74*
G01*
G54D15*
X33186Y-44328D02*
G75*
G03X33186Y-45829I-999J-750D01*
G74*
G01*
G54D16*
X32186Y-44628D02*
G75*
G03X31736Y-45078I0J-450D01*
G74*
G01*
X32186Y-45528D02*
G75*
G03X32636Y-45078I0J450D01*
G74*
G01*
X32186Y-44428D02*
G75*
G03X31536Y-45078I0J-650D01*
G74*
G01*
X32186Y-45728D02*
G75*
G03X32836Y-45078I0J650D01*
G74*
G01*
X32186Y-44228D02*
G75*
G03X31336Y-45078I0J-850D01*
G74*
G01*
X32186Y-45928D02*
G75*
G03X33036Y-45078I0J850D01*
G74*
G01*
G54D13*
X26120Y-28112D02*
X26120Y-26612D01*
G54D14*
X25807Y-27362D02*
G75*
G03X25807Y-27362I-707J0D01*
G74*
G01*
G54D15*
X26099Y-26611D02*
G75*
G03X26099Y-28112I-999J-750D01*
G74*
G01*
G54D16*
X25100Y-26912D02*
G75*
G03X24650Y-27362I0J-450D01*
G74*
G01*
X25100Y-27812D02*
G75*
G03X25550Y-27362I0J450D01*
G74*
G01*
X25100Y-26712D02*
G75*
G03X24450Y-27362I0J-650D01*
G74*
G01*
X25100Y-28012D02*
G75*
G03X25750Y-27362I0J650D01*
G74*
G01*
X25100Y-26512D02*
G75*
G03X24250Y-27362I0J-850D01*
G74*
G01*
X25100Y-28212D02*
G75*
G03X25950Y-27362I0J850D01*
G74*
G01*
G54D13*
X26120Y-31655D02*
X26120Y-30155D01*
G54D14*
X25807Y-30905D02*
G75*
G03X25807Y-30905I-707J0D01*
G74*
G01*
G54D15*
X26099Y-30154D02*
G75*
G03X26099Y-31656I-999J-750D01*
G74*
G01*
G54D16*
X25100Y-30455D02*
G75*
G03X24650Y-30905I0J-450D01*
G74*
G01*
X25100Y-31355D02*
G75*
G03X25550Y-30905I0J450D01*
G74*
G01*
X25100Y-30255D02*
G75*
G03X24450Y-30905I0J-650D01*
G74*
G01*
X25100Y-31555D02*
G75*
G03X25750Y-30905I0J650D01*
G74*
G01*
X25100Y-30055D02*
G75*
G03X24250Y-30905I0J-850D01*
G74*
G01*
X25100Y-31755D02*
G75*
G03X25950Y-30905I0J850D01*
G74*
G01*
G54D13*
X65096Y-28112D02*
X65096Y-26612D01*
G54D14*
X64783Y-27362D02*
G75*
G03X64783Y-27362I-707J0D01*
G74*
G01*
G54D15*
X65075Y-26611D02*
G75*
G03X65075Y-28112I-999J-750D01*
G74*
G01*
G54D16*
X64076Y-26912D02*
G75*
G03X63626Y-27362I0J-450D01*
G74*
G01*
X64076Y-27812D02*
G75*
G03X64526Y-27362I0J450D01*
G74*
G01*
X64076Y-26712D02*
G75*
G03X63426Y-27362I0J-650D01*
G74*
G01*
X64076Y-28012D02*
G75*
G03X64726Y-27362I0J650D01*
G74*
G01*
X64076Y-26512D02*
G75*
G03X63226Y-27362I0J-850D01*
G74*
G01*
X64076Y-28212D02*
G75*
G03X64926Y-27362I0J850D01*
G74*
G01*
G54D13*
X61553Y-28112D02*
X61553Y-26612D01*
G54D14*
X61240Y-27362D02*
G75*
G03X61240Y-27362I-707J0D01*
G74*
G01*
G54D15*
X61532Y-26611D02*
G75*
G03X61532Y-28112I-999J-750D01*
G74*
G01*
G54D16*
X60533Y-26912D02*
G75*
G03X60083Y-27362I0J-450D01*
G74*
G01*
X60533Y-27812D02*
G75*
G03X60983Y-27362I0J450D01*
G74*
G01*
X60533Y-26712D02*
G75*
G03X59883Y-27362I0J-650D01*
G74*
G01*
X60533Y-28012D02*
G75*
G03X61183Y-27362I0J650D01*
G74*
G01*
X60533Y-26512D02*
G75*
G03X59683Y-27362I0J-850D01*
G74*
G01*
X60533Y-28212D02*
G75*
G03X61383Y-27362I0J850D01*
G74*
G01*
G54D13*
X58009Y-28112D02*
X58009Y-26612D01*
G54D14*
X57696Y-27362D02*
G75*
G03X57696Y-27362I-707J0D01*
G74*
G01*
G54D15*
X57989Y-26611D02*
G75*
G03X57989Y-28112I-999J-750D01*
G74*
G01*
G54D16*
X56989Y-26912D02*
G75*
G03X56539Y-27362I0J-450D01*
G74*
G01*
X56989Y-27812D02*
G75*
G03X57439Y-27362I0J450D01*
G74*
G01*
X56989Y-26712D02*
G75*
G03X56339Y-27362I0J-650D01*
G74*
G01*
X56989Y-28012D02*
G75*
G03X57639Y-27362I0J650D01*
G74*
G01*
X56989Y-26512D02*
G75*
G03X56139Y-27362I0J-850D01*
G74*
G01*
X56989Y-28212D02*
G75*
G03X57839Y-27362I0J850D01*
G74*
G01*
G54D13*
X54466Y-28112D02*
X54466Y-26612D01*
G54D14*
X54153Y-27362D02*
G75*
G03X54153Y-27362I-707J0D01*
G74*
G01*
G54D15*
X54446Y-26611D02*
G75*
G03X54446Y-28112I-999J-750D01*
G74*
G01*
G54D16*
X53446Y-26912D02*
G75*
G03X52996Y-27362I0J-450D01*
G74*
G01*
X53446Y-27812D02*
G75*
G03X53896Y-27362I0J450D01*
G74*
G01*
X53446Y-26712D02*
G75*
G03X52796Y-27362I0J-650D01*
G74*
G01*
X53446Y-28012D02*
G75*
G03X54096Y-27362I0J650D01*
G74*
G01*
X53446Y-26512D02*
G75*
G03X52596Y-27362I0J-850D01*
G74*
G01*
X53446Y-28212D02*
G75*
G03X54296Y-27362I0J850D01*
G74*
G01*
G54D13*
X50923Y-28112D02*
X50923Y-26612D01*
G54D14*
X50610Y-27362D02*
G75*
G03X50610Y-27362I-707J0D01*
G74*
G01*
G54D15*
X50902Y-26611D02*
G75*
G03X50902Y-28112I-999J-750D01*
G74*
G01*
G54D16*
X49903Y-26912D02*
G75*
G03X49453Y-27362I0J-450D01*
G74*
G01*
X49903Y-27812D02*
G75*
G03X50353Y-27362I0J450D01*
G74*
G01*
X49903Y-26712D02*
G75*
G03X49253Y-27362I0J-650D01*
G74*
G01*
X49903Y-28012D02*
G75*
G03X50553Y-27362I0J650D01*
G74*
G01*
X49903Y-26512D02*
G75*
G03X49053Y-27362I0J-850D01*
G74*
G01*
X49903Y-28212D02*
G75*
G03X50753Y-27362I0J850D01*
G74*
G01*
G54D13*
X47379Y-28112D02*
X47379Y-26612D01*
G54D14*
X47066Y-27362D02*
G75*
G03X47066Y-27362I-707J0D01*
G74*
G01*
G54D15*
X47359Y-26611D02*
G75*
G03X47359Y-28112I-999J-750D01*
G74*
G01*
G54D16*
X46359Y-26912D02*
G75*
G03X45909Y-27362I0J-450D01*
G74*
G01*
X46359Y-27812D02*
G75*
G03X46809Y-27362I0J450D01*
G74*
G01*
X46359Y-26712D02*
G75*
G03X45709Y-27362I0J-650D01*
G74*
G01*
X46359Y-28012D02*
G75*
G03X47009Y-27362I0J650D01*
G74*
G01*
X46359Y-26512D02*
G75*
G03X45509Y-27362I0J-850D01*
G74*
G01*
X46359Y-28212D02*
G75*
G03X47209Y-27362I0J850D01*
G74*
G01*
G54D13*
X43836Y-28112D02*
X43836Y-26612D01*
G54D14*
X43523Y-27362D02*
G75*
G03X43523Y-27362I-707J0D01*
G74*
G01*
G54D15*
X43816Y-26611D02*
G75*
G03X43816Y-28112I-999J-750D01*
G74*
G01*
G54D16*
X42816Y-26912D02*
G75*
G03X42366Y-27362I0J-450D01*
G74*
G01*
X42816Y-27812D02*
G75*
G03X43266Y-27362I0J450D01*
G74*
G01*
X42816Y-26712D02*
G75*
G03X42166Y-27362I0J-650D01*
G74*
G01*
X42816Y-28012D02*
G75*
G03X43466Y-27362I0J650D01*
G74*
G01*
X42816Y-26512D02*
G75*
G03X41966Y-27362I0J-850D01*
G74*
G01*
X42816Y-28212D02*
G75*
G03X43666Y-27362I0J850D01*
G74*
G01*
G54D13*
X40293Y-28112D02*
X40293Y-26612D01*
G54D14*
X39980Y-27362D02*
G75*
G03X39980Y-27362I-707J0D01*
G74*
G01*
G54D15*
X40272Y-26611D02*
G75*
G03X40272Y-28112I-999J-750D01*
G74*
G01*
G54D16*
X39273Y-26912D02*
G75*
G03X38823Y-27362I0J-450D01*
G74*
G01*
X39273Y-27812D02*
G75*
G03X39723Y-27362I0J450D01*
G74*
G01*
X39273Y-26712D02*
G75*
G03X38623Y-27362I0J-650D01*
G74*
G01*
X39273Y-28012D02*
G75*
G03X39923Y-27362I0J650D01*
G74*
G01*
X39273Y-26512D02*
G75*
G03X38423Y-27362I0J-850D01*
G74*
G01*
X39273Y-28212D02*
G75*
G03X40123Y-27362I0J850D01*
G74*
G01*
G54D13*
X36749Y-28112D02*
X36749Y-26612D01*
G54D14*
X36437Y-27362D02*
G75*
G03X36437Y-27362I-707J0D01*
G74*
G01*
G54D15*
X36729Y-26611D02*
G75*
G03X36729Y-28112I-999J-750D01*
G74*
G01*
G54D16*
X35729Y-26912D02*
G75*
G03X35279Y-27362I0J-450D01*
G74*
G01*
X35729Y-27812D02*
G75*
G03X36179Y-27362I0J450D01*
G74*
G01*
X35729Y-26712D02*
G75*
G03X35079Y-27362I0J-650D01*
G74*
G01*
X35729Y-28012D02*
G75*
G03X36379Y-27362I0J650D01*
G74*
G01*
X35729Y-26512D02*
G75*
G03X34879Y-27362I0J-850D01*
G74*
G01*
X35729Y-28212D02*
G75*
G03X36579Y-27362I0J850D01*
G74*
G01*
G54D13*
X33206Y-28112D02*
X33206Y-26612D01*
G54D14*
X32893Y-27362D02*
G75*
G03X32893Y-27362I-707J0D01*
G74*
G01*
G54D15*
X33186Y-26611D02*
G75*
G03X33186Y-28112I-999J-750D01*
G74*
G01*
G54D16*
X32186Y-26912D02*
G75*
G03X31736Y-27362I0J-450D01*
G74*
G01*
X32186Y-27812D02*
G75*
G03X32636Y-27362I0J450D01*
G74*
G01*
X32186Y-26712D02*
G75*
G03X31536Y-27362I0J-650D01*
G74*
G01*
X32186Y-28012D02*
G75*
G03X32836Y-27362I0J650D01*
G74*
G01*
X32186Y-26512D02*
G75*
G03X31336Y-27362I0J-850D01*
G74*
G01*
X32186Y-28212D02*
G75*
G03X33036Y-27362I0J850D01*
G74*
G01*
G54D13*
X29663Y-28112D02*
X29663Y-26612D01*
G54D14*
X29350Y-27362D02*
G75*
G03X29350Y-27362I-707J0D01*
G74*
G01*
G54D15*
X29642Y-26611D02*
G75*
G03X29642Y-28112I-999J-750D01*
G74*
G01*
G54D16*
X28643Y-26912D02*
G75*
G03X28193Y-27362I0J-450D01*
G74*
G01*
X28643Y-27812D02*
G75*
G03X29093Y-27362I0J450D01*
G74*
G01*
X28643Y-26712D02*
G75*
G03X27993Y-27362I0J-650D01*
G74*
G01*
X28643Y-28012D02*
G75*
G03X29293Y-27362I0J650D01*
G74*
G01*
X28643Y-26512D02*
G75*
G03X27793Y-27362I0J-850D01*
G74*
G01*
X28643Y-28212D02*
G75*
G03X29493Y-27362I0J850D01*
G74*
G01*
G54D13*
X29663Y-31655D02*
X29663Y-30155D01*
G54D14*
X29350Y-30905D02*
G75*
G03X29350Y-30905I-707J0D01*
G74*
G01*
G54D15*
X29642Y-30154D02*
G75*
G03X29642Y-31656I-999J-750D01*
G74*
G01*
G54D16*
X28643Y-30455D02*
G75*
G03X28193Y-30905I0J-450D01*
G74*
G01*
X28643Y-31355D02*
G75*
G03X29093Y-30905I0J450D01*
G74*
G01*
X28643Y-30255D02*
G75*
G03X27993Y-30905I0J-650D01*
G74*
G01*
X28643Y-31555D02*
G75*
G03X29293Y-30905I0J650D01*
G74*
G01*
X28643Y-30055D02*
G75*
G03X27793Y-30905I0J-850D01*
G74*
G01*
X28643Y-31755D02*
G75*
G03X29493Y-30905I0J850D01*
G74*
G01*
G54D13*
X65096Y-24568D02*
X65096Y-23068D01*
G54D14*
X64783Y-23818D02*
G75*
G03X64783Y-23818I-707J0D01*
G74*
G01*
G54D15*
X65075Y-23068D02*
G75*
G03X65075Y-24569I-999J-750D01*
G74*
G01*
G54D16*
X64076Y-23368D02*
G75*
G03X63626Y-23818I0J-450D01*
G74*
G01*
X64076Y-24268D02*
G75*
G03X64526Y-23818I0J450D01*
G74*
G01*
X64076Y-23168D02*
G75*
G03X63426Y-23818I0J-650D01*
G74*
G01*
X64076Y-24468D02*
G75*
G03X64726Y-23818I0J650D01*
G74*
G01*
X64076Y-22968D02*
G75*
G03X63226Y-23818I0J-850D01*
G74*
G01*
X64076Y-24668D02*
G75*
G03X64926Y-23818I0J850D01*
G74*
G01*
G54D13*
X61553Y-24568D02*
X61553Y-23068D01*
G54D14*
X61240Y-23818D02*
G75*
G03X61240Y-23818I-707J0D01*
G74*
G01*
G54D15*
X61532Y-23068D02*
G75*
G03X61532Y-24569I-999J-750D01*
G74*
G01*
G54D16*
X60533Y-23368D02*
G75*
G03X60083Y-23818I0J-450D01*
G74*
G01*
X60533Y-24268D02*
G75*
G03X60983Y-23818I0J450D01*
G74*
G01*
X60533Y-23168D02*
G75*
G03X59883Y-23818I0J-650D01*
G74*
G01*
X60533Y-24468D02*
G75*
G03X61183Y-23818I0J650D01*
G74*
G01*
X60533Y-22968D02*
G75*
G03X59683Y-23818I0J-850D01*
G74*
G01*
X60533Y-24668D02*
G75*
G03X61383Y-23818I0J850D01*
G74*
G01*
G54D13*
X58009Y-24568D02*
X58009Y-23068D01*
G54D14*
X57696Y-23818D02*
G75*
G03X57696Y-23818I-707J0D01*
G74*
G01*
G54D15*
X57989Y-23068D02*
G75*
G03X57989Y-24569I-999J-750D01*
G74*
G01*
G54D16*
X56989Y-23368D02*
G75*
G03X56539Y-23818I0J-450D01*
G74*
G01*
X56989Y-24268D02*
G75*
G03X57439Y-23818I0J450D01*
G74*
G01*
X56989Y-23168D02*
G75*
G03X56339Y-23818I0J-650D01*
G74*
G01*
X56989Y-24468D02*
G75*
G03X57639Y-23818I0J650D01*
G74*
G01*
X56989Y-22968D02*
G75*
G03X56139Y-23818I0J-850D01*
G74*
G01*
X56989Y-24668D02*
G75*
G03X57839Y-23818I0J850D01*
G74*
G01*
G54D13*
X54466Y-24568D02*
X54466Y-23068D01*
G54D14*
X54153Y-23818D02*
G75*
G03X54153Y-23818I-707J0D01*
G74*
G01*
G54D15*
X54446Y-23068D02*
G75*
G03X54446Y-24569I-999J-750D01*
G74*
G01*
G54D16*
X53446Y-23368D02*
G75*
G03X52996Y-23818I0J-450D01*
G74*
G01*
X53446Y-24268D02*
G75*
G03X53896Y-23818I0J450D01*
G74*
G01*
X53446Y-23168D02*
G75*
G03X52796Y-23818I0J-650D01*
G74*
G01*
X53446Y-24468D02*
G75*
G03X54096Y-23818I0J650D01*
G74*
G01*
X53446Y-22968D02*
G75*
G03X52596Y-23818I0J-850D01*
G74*
G01*
X53446Y-24668D02*
G75*
G03X54296Y-23818I0J850D01*
G74*
G01*
G54D13*
X50923Y-24568D02*
X50923Y-23068D01*
G54D14*
X50610Y-23818D02*
G75*
G03X50610Y-23818I-707J0D01*
G74*
G01*
G54D15*
X50902Y-23068D02*
G75*
G03X50902Y-24569I-999J-750D01*
G74*
G01*
G54D16*
X49903Y-23368D02*
G75*
G03X49453Y-23818I0J-450D01*
G74*
G01*
X49903Y-24268D02*
G75*
G03X50353Y-23818I0J450D01*
G74*
G01*
X49903Y-23168D02*
G75*
G03X49253Y-23818I0J-650D01*
G74*
G01*
X49903Y-24468D02*
G75*
G03X50553Y-23818I0J650D01*
G74*
G01*
X49903Y-22968D02*
G75*
G03X49053Y-23818I0J-850D01*
G74*
G01*
X49903Y-24668D02*
G75*
G03X50753Y-23818I0J850D01*
G74*
G01*
G54D13*
X47379Y-24568D02*
X47379Y-23068D01*
G54D14*
X47066Y-23818D02*
G75*
G03X47066Y-23818I-707J0D01*
G74*
G01*
G54D15*
X47359Y-23068D02*
G75*
G03X47359Y-24569I-999J-750D01*
G74*
G01*
G54D16*
X46359Y-23368D02*
G75*
G03X45909Y-23818I0J-450D01*
G74*
G01*
X46359Y-24268D02*
G75*
G03X46809Y-23818I0J450D01*
G74*
G01*
X46359Y-23168D02*
G75*
G03X45709Y-23818I0J-650D01*
G74*
G01*
X46359Y-24468D02*
G75*
G03X47009Y-23818I0J650D01*
G74*
G01*
X46359Y-22968D02*
G75*
G03X45509Y-23818I0J-850D01*
G74*
G01*
X46359Y-24668D02*
G75*
G03X47209Y-23818I0J850D01*
G74*
G01*
G54D13*
X43836Y-24568D02*
X43836Y-23068D01*
G54D14*
X43523Y-23818D02*
G75*
G03X43523Y-23818I-707J0D01*
G74*
G01*
G54D15*
X43816Y-23068D02*
G75*
G03X43816Y-24569I-999J-750D01*
G74*
G01*
G54D16*
X42816Y-23368D02*
G75*
G03X42366Y-23818I0J-450D01*
G74*
G01*
X42816Y-24268D02*
G75*
G03X43266Y-23818I0J450D01*
G74*
G01*
X42816Y-23168D02*
G75*
G03X42166Y-23818I0J-650D01*
G74*
G01*
X42816Y-24468D02*
G75*
G03X43466Y-23818I0J650D01*
G74*
G01*
X42816Y-22968D02*
G75*
G03X41966Y-23818I0J-850D01*
G74*
G01*
X42816Y-24668D02*
G75*
G03X43666Y-23818I0J850D01*
G74*
G01*
G54D13*
X40293Y-24568D02*
X40293Y-23068D01*
G54D14*
X39980Y-23818D02*
G75*
G03X39980Y-23818I-707J0D01*
G74*
G01*
G54D15*
X40272Y-23068D02*
G75*
G03X40272Y-24569I-999J-750D01*
G74*
G01*
G54D16*
X39273Y-23368D02*
G75*
G03X38823Y-23818I0J-450D01*
G74*
G01*
X39273Y-24268D02*
G75*
G03X39723Y-23818I0J450D01*
G74*
G01*
X39273Y-23168D02*
G75*
G03X38623Y-23818I0J-650D01*
G74*
G01*
X39273Y-24468D02*
G75*
G03X39923Y-23818I0J650D01*
G74*
G01*
X39273Y-22968D02*
G75*
G03X38423Y-23818I0J-850D01*
G74*
G01*
X39273Y-24668D02*
G75*
G03X40123Y-23818I0J850D01*
G74*
G01*
G54D13*
X36749Y-24568D02*
X36749Y-23068D01*
G54D14*
X36437Y-23818D02*
G75*
G03X36437Y-23818I-707J0D01*
G74*
G01*
G54D15*
X36729Y-23068D02*
G75*
G03X36729Y-24569I-999J-750D01*
G74*
G01*
G54D16*
X35729Y-23368D02*
G75*
G03X35279Y-23818I0J-450D01*
G74*
G01*
X35729Y-24268D02*
G75*
G03X36179Y-23818I0J450D01*
G74*
G01*
X35729Y-23168D02*
G75*
G03X35079Y-23818I0J-650D01*
G74*
G01*
X35729Y-24468D02*
G75*
G03X36379Y-23818I0J650D01*
G74*
G01*
X35729Y-22968D02*
G75*
G03X34879Y-23818I0J-850D01*
G74*
G01*
X35729Y-24668D02*
G75*
G03X36579Y-23818I0J850D01*
G74*
G01*
G54D13*
X33206Y-24568D02*
X33206Y-23068D01*
G54D14*
X32893Y-23818D02*
G75*
G03X32893Y-23818I-707J0D01*
G74*
G01*
G54D15*
X33186Y-23068D02*
G75*
G03X33186Y-24569I-999J-750D01*
G74*
G01*
G54D16*
X32186Y-23368D02*
G75*
G03X31736Y-23818I0J-450D01*
G74*
G01*
X32186Y-24268D02*
G75*
G03X32636Y-23818I0J450D01*
G74*
G01*
X32186Y-23168D02*
G75*
G03X31536Y-23818I0J-650D01*
G74*
G01*
X32186Y-24468D02*
G75*
G03X32836Y-23818I0J650D01*
G74*
G01*
X32186Y-22968D02*
G75*
G03X31336Y-23818I0J-850D01*
G74*
G01*
X32186Y-24668D02*
G75*
G03X33036Y-23818I0J850D01*
G74*
G01*
G54D13*
X29663Y-24568D02*
X29663Y-23068D01*
G54D14*
X29350Y-23818D02*
G75*
G03X29350Y-23818I-707J0D01*
G74*
G01*
G54D15*
X29642Y-23068D02*
G75*
G03X29642Y-24569I-999J-750D01*
G74*
G01*
G54D16*
X28643Y-23368D02*
G75*
G03X28193Y-23818I0J-450D01*
G74*
G01*
X28643Y-24268D02*
G75*
G03X29093Y-23818I0J450D01*
G74*
G01*
X28643Y-23168D02*
G75*
G03X27993Y-23818I0J-650D01*
G74*
G01*
X28643Y-24468D02*
G75*
G03X29293Y-23818I0J650D01*
G74*
G01*
X28643Y-22968D02*
G75*
G03X27793Y-23818I0J-850D01*
G74*
G01*
X28643Y-24668D02*
G75*
G03X29493Y-23818I0J850D01*
G74*
G01*
G54D13*
X29663Y-35198D02*
X29663Y-33698D01*
G54D14*
X29350Y-34448D02*
G75*
G03X29350Y-34448I-707J0D01*
G74*
G01*
G54D15*
X29642Y-33698D02*
G75*
G03X29642Y-35199I-999J-750D01*
G74*
G01*
G54D16*
X28643Y-33998D02*
G75*
G03X28193Y-34448I0J-450D01*
G74*
G01*
X28643Y-34898D02*
G75*
G03X29093Y-34448I0J450D01*
G74*
G01*
X28643Y-33798D02*
G75*
G03X27993Y-34448I0J-650D01*
G74*
G01*
X28643Y-35098D02*
G75*
G03X29293Y-34448I0J650D01*
G74*
G01*
X28643Y-33598D02*
G75*
G03X27793Y-34448I0J-850D01*
G74*
G01*
X28643Y-35298D02*
G75*
G03X29493Y-34448I0J850D01*
G74*
G01*
G54D13*
X29663Y-38742D02*
X29663Y-37242D01*
G54D14*
X29350Y-37992D02*
G75*
G03X29350Y-37992I-707J0D01*
G74*
G01*
G54D15*
X29642Y-37241D02*
G75*
G03X29642Y-38742I-999J-750D01*
G74*
G01*
G54D16*
X28643Y-37542D02*
G75*
G03X28193Y-37992I0J-450D01*
G74*
G01*
X28643Y-38442D02*
G75*
G03X29093Y-37992I0J450D01*
G74*
G01*
X28643Y-37342D02*
G75*
G03X27993Y-37992I0J-650D01*
G74*
G01*
X28643Y-38642D02*
G75*
G03X29293Y-37992I0J650D01*
G74*
G01*
X28643Y-37142D02*
G75*
G03X27793Y-37992I0J-850D01*
G74*
G01*
X28643Y-38842D02*
G75*
G03X29493Y-37992I0J850D01*
G74*
G01*
G54D13*
X26120Y-38742D02*
X26120Y-37242D01*
G54D14*
X25807Y-37992D02*
G75*
G03X25807Y-37992I-707J0D01*
G74*
G01*
G54D15*
X26099Y-37241D02*
G75*
G03X26099Y-38742I-999J-750D01*
G74*
G01*
G54D16*
X25100Y-37542D02*
G75*
G03X24650Y-37992I0J-450D01*
G74*
G01*
X25100Y-38442D02*
G75*
G03X25550Y-37992I0J450D01*
G74*
G01*
X25100Y-37342D02*
G75*
G03X24450Y-37992I0J-650D01*
G74*
G01*
X25100Y-38642D02*
G75*
G03X25750Y-37992I0J650D01*
G74*
G01*
X25100Y-37142D02*
G75*
G03X24250Y-37992I0J-850D01*
G74*
G01*
X25100Y-38842D02*
G75*
G03X25950Y-37992I0J850D01*
G74*
G01*
G54D13*
X65096Y-35198D02*
X65096Y-33698D01*
G54D14*
X64783Y-34448D02*
G75*
G03X64783Y-34448I-707J0D01*
G74*
G01*
G54D15*
X65075Y-33698D02*
G75*
G03X65075Y-35199I-999J-750D01*
G74*
G01*
G54D16*
X64076Y-33998D02*
G75*
G03X63626Y-34448I0J-450D01*
G74*
G01*
X64076Y-34898D02*
G75*
G03X64526Y-34448I0J450D01*
G74*
G01*
X64076Y-33798D02*
G75*
G03X63426Y-34448I0J-650D01*
G74*
G01*
X64076Y-35098D02*
G75*
G03X64726Y-34448I0J650D01*
G74*
G01*
X64076Y-33598D02*
G75*
G03X63226Y-34448I0J-850D01*
G74*
G01*
X64076Y-35298D02*
G75*
G03X64926Y-34448I0J850D01*
G74*
G01*
G54D13*
X61553Y-35198D02*
X61553Y-33698D01*
G54D14*
X61240Y-34448D02*
G75*
G03X61240Y-34448I-707J0D01*
G74*
G01*
G54D15*
X61532Y-33698D02*
G75*
G03X61532Y-35199I-999J-750D01*
G74*
G01*
G54D16*
X60533Y-33998D02*
G75*
G03X60083Y-34448I0J-450D01*
G74*
G01*
X60533Y-34898D02*
G75*
G03X60983Y-34448I0J450D01*
G74*
G01*
X60533Y-33798D02*
G75*
G03X59883Y-34448I0J-650D01*
G74*
G01*
X60533Y-35098D02*
G75*
G03X61183Y-34448I0J650D01*
G74*
G01*
X60533Y-33598D02*
G75*
G03X59683Y-34448I0J-850D01*
G74*
G01*
X60533Y-35298D02*
G75*
G03X61383Y-34448I0J850D01*
G74*
G01*
G54D13*
X58009Y-35198D02*
X58009Y-33698D01*
G54D14*
X57696Y-34448D02*
G75*
G03X57696Y-34448I-707J0D01*
G74*
G01*
G54D15*
X57989Y-33698D02*
G75*
G03X57989Y-35199I-999J-750D01*
G74*
G01*
G54D16*
X56989Y-33998D02*
G75*
G03X56539Y-34448I0J-450D01*
G74*
G01*
X56989Y-34898D02*
G75*
G03X57439Y-34448I0J450D01*
G74*
G01*
X56989Y-33798D02*
G75*
G03X56339Y-34448I0J-650D01*
G74*
G01*
X56989Y-35098D02*
G75*
G03X57639Y-34448I0J650D01*
G74*
G01*
X56989Y-33598D02*
G75*
G03X56139Y-34448I0J-850D01*
G74*
G01*
X56989Y-35298D02*
G75*
G03X57839Y-34448I0J850D01*
G74*
G01*
G54D13*
X54466Y-35198D02*
X54466Y-33698D01*
G54D14*
X54153Y-34448D02*
G75*
G03X54153Y-34448I-707J0D01*
G74*
G01*
G54D15*
X54446Y-33698D02*
G75*
G03X54446Y-35199I-999J-750D01*
G74*
G01*
G54D16*
X53446Y-33998D02*
G75*
G03X52996Y-34448I0J-450D01*
G74*
G01*
X53446Y-34898D02*
G75*
G03X53896Y-34448I0J450D01*
G74*
G01*
X53446Y-33798D02*
G75*
G03X52796Y-34448I0J-650D01*
G74*
G01*
X53446Y-35098D02*
G75*
G03X54096Y-34448I0J650D01*
G74*
G01*
X53446Y-33598D02*
G75*
G03X52596Y-34448I0J-850D01*
G74*
G01*
X53446Y-35298D02*
G75*
G03X54296Y-34448I0J850D01*
G74*
G01*
G54D13*
X50923Y-35198D02*
X50923Y-33698D01*
G54D14*
X50610Y-34448D02*
G75*
G03X50610Y-34448I-707J0D01*
G74*
G01*
G54D15*
X50902Y-33698D02*
G75*
G03X50902Y-35199I-999J-750D01*
G74*
G01*
G54D16*
X49903Y-33998D02*
G75*
G03X49453Y-34448I0J-450D01*
G74*
G01*
X49903Y-34898D02*
G75*
G03X50353Y-34448I0J450D01*
G74*
G01*
X49903Y-33798D02*
G75*
G03X49253Y-34448I0J-650D01*
G74*
G01*
X49903Y-35098D02*
G75*
G03X50553Y-34448I0J650D01*
G74*
G01*
X49903Y-33598D02*
G75*
G03X49053Y-34448I0J-850D01*
G74*
G01*
X49903Y-35298D02*
G75*
G03X50753Y-34448I0J850D01*
G74*
G01*
G54D13*
X47379Y-35198D02*
X47379Y-33698D01*
G54D14*
X47066Y-34448D02*
G75*
G03X47066Y-34448I-707J0D01*
G74*
G01*
G54D15*
X47359Y-33698D02*
G75*
G03X47359Y-35199I-999J-750D01*
G74*
G01*
G54D16*
X46359Y-33998D02*
G75*
G03X45909Y-34448I0J-450D01*
G74*
G01*
X46359Y-34898D02*
G75*
G03X46809Y-34448I0J450D01*
G74*
G01*
X46359Y-33798D02*
G75*
G03X45709Y-34448I0J-650D01*
G74*
G01*
X46359Y-35098D02*
G75*
G03X47009Y-34448I0J650D01*
G74*
G01*
X46359Y-33598D02*
G75*
G03X45509Y-34448I0J-850D01*
G74*
G01*
X46359Y-35298D02*
G75*
G03X47209Y-34448I0J850D01*
G74*
G01*
G54D13*
X43836Y-35198D02*
X43836Y-33698D01*
G54D14*
X43523Y-34448D02*
G75*
G03X43523Y-34448I-707J0D01*
G74*
G01*
G54D15*
X43816Y-33698D02*
G75*
G03X43816Y-35199I-999J-750D01*
G74*
G01*
G54D16*
X42816Y-33998D02*
G75*
G03X42366Y-34448I0J-450D01*
G74*
G01*
X42816Y-34898D02*
G75*
G03X43266Y-34448I0J450D01*
G74*
G01*
X42816Y-33798D02*
G75*
G03X42166Y-34448I0J-650D01*
G74*
G01*
X42816Y-35098D02*
G75*
G03X43466Y-34448I0J650D01*
G74*
G01*
X42816Y-33598D02*
G75*
G03X41966Y-34448I0J-850D01*
G74*
G01*
X42816Y-35298D02*
G75*
G03X43666Y-34448I0J850D01*
G74*
G01*
G54D13*
X40293Y-35198D02*
X40293Y-33698D01*
G54D14*
X39980Y-34448D02*
G75*
G03X39980Y-34448I-707J0D01*
G74*
G01*
G54D15*
X40272Y-33698D02*
G75*
G03X40272Y-35199I-999J-750D01*
G74*
G01*
G54D16*
X39273Y-33998D02*
G75*
G03X38823Y-34448I0J-450D01*
G74*
G01*
X39273Y-34898D02*
G75*
G03X39723Y-34448I0J450D01*
G74*
G01*
X39273Y-33798D02*
G75*
G03X38623Y-34448I0J-650D01*
G74*
G01*
X39273Y-35098D02*
G75*
G03X39923Y-34448I0J650D01*
G74*
G01*
X39273Y-33598D02*
G75*
G03X38423Y-34448I0J-850D01*
G74*
G01*
X39273Y-35298D02*
G75*
G03X40123Y-34448I0J850D01*
G74*
G01*
G54D13*
X36749Y-35198D02*
X36749Y-33698D01*
G54D14*
X36437Y-34448D02*
G75*
G03X36437Y-34448I-707J0D01*
G74*
G01*
G54D15*
X36729Y-33698D02*
G75*
G03X36729Y-35199I-999J-750D01*
G74*
G01*
G54D16*
X35729Y-33998D02*
G75*
G03X35279Y-34448I0J-450D01*
G74*
G01*
X35729Y-34898D02*
G75*
G03X36179Y-34448I0J450D01*
G74*
G01*
X35729Y-33798D02*
G75*
G03X35079Y-34448I0J-650D01*
G74*
G01*
X35729Y-35098D02*
G75*
G03X36379Y-34448I0J650D01*
G74*
G01*
X35729Y-33598D02*
G75*
G03X34879Y-34448I0J-850D01*
G74*
G01*
X35729Y-35298D02*
G75*
G03X36579Y-34448I0J850D01*
G74*
G01*
G54D13*
X33206Y-35198D02*
X33206Y-33698D01*
G54D14*
X32893Y-34448D02*
G75*
G03X32893Y-34448I-707J0D01*
G74*
G01*
G54D15*
X33186Y-33698D02*
G75*
G03X33186Y-35199I-999J-750D01*
G74*
G01*
G54D16*
X32186Y-33998D02*
G75*
G03X31736Y-34448I0J-450D01*
G74*
G01*
X32186Y-34898D02*
G75*
G03X32636Y-34448I0J450D01*
G74*
G01*
X32186Y-33798D02*
G75*
G03X31536Y-34448I0J-650D01*
G74*
G01*
X32186Y-35098D02*
G75*
G03X32836Y-34448I0J650D01*
G74*
G01*
X32186Y-33598D02*
G75*
G03X31336Y-34448I0J-850D01*
G74*
G01*
X32186Y-35298D02*
G75*
G03X33036Y-34448I0J850D01*
G74*
G01*
G54D13*
X26120Y-24568D02*
X26120Y-23068D01*
G54D14*
X25807Y-23818D02*
G75*
G03X25807Y-23818I-707J0D01*
G74*
G01*
G54D15*
X26099Y-23068D02*
G75*
G03X26099Y-24569I-999J-750D01*
G74*
G01*
G54D16*
X25100Y-23368D02*
G75*
G03X24650Y-23818I0J-450D01*
G74*
G01*
X25100Y-24268D02*
G75*
G03X25550Y-23818I0J450D01*
G74*
G01*
X25100Y-23168D02*
G75*
G03X24450Y-23818I0J-650D01*
G74*
G01*
X25100Y-24468D02*
G75*
G03X25750Y-23818I0J650D01*
G74*
G01*
X25100Y-22968D02*
G75*
G03X24250Y-23818I0J-850D01*
G74*
G01*
X25100Y-24668D02*
G75*
G03X25950Y-23818I0J850D01*
G74*
G01*
G54D13*
X26120Y-35198D02*
X26120Y-33698D01*
G54D14*
X25807Y-34448D02*
G75*
G03X25807Y-34448I-707J0D01*
G74*
G01*
G54D15*
X26099Y-33698D02*
G75*
G03X26099Y-35199I-999J-750D01*
G74*
G01*
G54D16*
X25100Y-33998D02*
G75*
G03X24650Y-34448I0J-450D01*
G74*
G01*
X25100Y-34898D02*
G75*
G03X25550Y-34448I0J450D01*
G74*
G01*
X25100Y-33798D02*
G75*
G03X24450Y-34448I0J-650D01*
G74*
G01*
X25100Y-35098D02*
G75*
G03X25750Y-34448I0J650D01*
G74*
G01*
X25100Y-33598D02*
G75*
G03X24250Y-34448I0J-850D01*
G74*
G01*
X25100Y-35298D02*
G75*
G03X25950Y-34448I0J850D01*
G74*
G01*
G54D13*
X65096Y-31655D02*
X65096Y-30155D01*
G54D14*
X64783Y-30905D02*
G75*
G03X64783Y-30905I-707J0D01*
G74*
G01*
G54D15*
X65075Y-30154D02*
G75*
G03X65075Y-31656I-999J-750D01*
G74*
G01*
G54D16*
X64076Y-30455D02*
G75*
G03X63626Y-30905I0J-450D01*
G74*
G01*
X64076Y-31355D02*
G75*
G03X64526Y-30905I0J450D01*
G74*
G01*
X64076Y-30255D02*
G75*
G03X63426Y-30905I0J-650D01*
G74*
G01*
X64076Y-31555D02*
G75*
G03X64726Y-30905I0J650D01*
G74*
G01*
X64076Y-30055D02*
G75*
G03X63226Y-30905I0J-850D01*
G74*
G01*
X64076Y-31755D02*
G75*
G03X64926Y-30905I0J850D01*
G74*
G01*
G54D13*
X61553Y-31655D02*
X61553Y-30155D01*
G54D14*
X61240Y-30905D02*
G75*
G03X61240Y-30905I-707J0D01*
G74*
G01*
G54D15*
X61532Y-30154D02*
G75*
G03X61532Y-31656I-999J-750D01*
G74*
G01*
G54D16*
X60533Y-30455D02*
G75*
G03X60083Y-30905I0J-450D01*
G74*
G01*
X60533Y-31355D02*
G75*
G03X60983Y-30905I0J450D01*
G74*
G01*
X60533Y-30255D02*
G75*
G03X59883Y-30905I0J-650D01*
G74*
G01*
X60533Y-31555D02*
G75*
G03X61183Y-30905I0J650D01*
G74*
G01*
X60533Y-30055D02*
G75*
G03X59683Y-30905I0J-850D01*
G74*
G01*
X60533Y-31755D02*
G75*
G03X61383Y-30905I0J850D01*
G74*
G01*
G54D13*
X58009Y-31655D02*
X58009Y-30155D01*
G54D14*
X57696Y-30905D02*
G75*
G03X57696Y-30905I-707J0D01*
G74*
G01*
G54D15*
X57989Y-30154D02*
G75*
G03X57989Y-31656I-999J-750D01*
G74*
G01*
G54D16*
X56989Y-30455D02*
G75*
G03X56539Y-30905I0J-450D01*
G74*
G01*
X56989Y-31355D02*
G75*
G03X57439Y-30905I0J450D01*
G74*
G01*
X56989Y-30255D02*
G75*
G03X56339Y-30905I0J-650D01*
G74*
G01*
X56989Y-31555D02*
G75*
G03X57639Y-30905I0J650D01*
G74*
G01*
X56989Y-30055D02*
G75*
G03X56139Y-30905I0J-850D01*
G74*
G01*
X56989Y-31755D02*
G75*
G03X57839Y-30905I0J850D01*
G74*
G01*
G54D13*
X54466Y-31655D02*
X54466Y-30155D01*
G54D14*
X54153Y-30905D02*
G75*
G03X54153Y-30905I-707J0D01*
G74*
G01*
G54D15*
X54446Y-30154D02*
G75*
G03X54446Y-31656I-999J-750D01*
G74*
G01*
G54D16*
X53446Y-30455D02*
G75*
G03X52996Y-30905I0J-450D01*
G74*
G01*
X53446Y-31355D02*
G75*
G03X53896Y-30905I0J450D01*
G74*
G01*
X53446Y-30255D02*
G75*
G03X52796Y-30905I0J-650D01*
G74*
G01*
X53446Y-31555D02*
G75*
G03X54096Y-30905I0J650D01*
G74*
G01*
X53446Y-30055D02*
G75*
G03X52596Y-30905I0J-850D01*
G74*
G01*
X53446Y-31755D02*
G75*
G03X54296Y-30905I0J850D01*
G74*
G01*
G54D13*
X50923Y-31655D02*
X50923Y-30155D01*
G54D14*
X50610Y-30905D02*
G75*
G03X50610Y-30905I-707J0D01*
G74*
G01*
G54D15*
X50902Y-30154D02*
G75*
G03X50902Y-31656I-999J-750D01*
G74*
G01*
G54D16*
X49903Y-30455D02*
G75*
G03X49453Y-30905I0J-450D01*
G74*
G01*
X49903Y-31355D02*
G75*
G03X50353Y-30905I0J450D01*
G74*
G01*
X49903Y-30255D02*
G75*
G03X49253Y-30905I0J-650D01*
G74*
G01*
X49903Y-31555D02*
G75*
G03X50553Y-30905I0J650D01*
G74*
G01*
X49903Y-30055D02*
G75*
G03X49053Y-30905I0J-850D01*
G74*
G01*
X49903Y-31755D02*
G75*
G03X50753Y-30905I0J850D01*
G74*
G01*
G54D13*
X47379Y-31655D02*
X47379Y-30155D01*
G54D14*
X47066Y-30905D02*
G75*
G03X47066Y-30905I-707J0D01*
G74*
G01*
G54D15*
X47359Y-30154D02*
G75*
G03X47359Y-31656I-999J-750D01*
G74*
G01*
G54D16*
X46359Y-30455D02*
G75*
G03X45909Y-30905I0J-450D01*
G74*
G01*
X46359Y-31355D02*
G75*
G03X46809Y-30905I0J450D01*
G74*
G01*
X46359Y-30255D02*
G75*
G03X45709Y-30905I0J-650D01*
G74*
G01*
X46359Y-31555D02*
G75*
G03X47009Y-30905I0J650D01*
G74*
G01*
X46359Y-30055D02*
G75*
G03X45509Y-30905I0J-850D01*
G74*
G01*
X46359Y-31755D02*
G75*
G03X47209Y-30905I0J850D01*
G74*
G01*
G54D13*
X43836Y-31655D02*
X43836Y-30155D01*
G54D14*
X43523Y-30905D02*
G75*
G03X43523Y-30905I-707J0D01*
G74*
G01*
G54D15*
X43816Y-30154D02*
G75*
G03X43816Y-31656I-999J-750D01*
G74*
G01*
G54D16*
X42816Y-30455D02*
G75*
G03X42366Y-30905I0J-450D01*
G74*
G01*
X42816Y-31355D02*
G75*
G03X43266Y-30905I0J450D01*
G74*
G01*
X42816Y-30255D02*
G75*
G03X42166Y-30905I0J-650D01*
G74*
G01*
X42816Y-31555D02*
G75*
G03X43466Y-30905I0J650D01*
G74*
G01*
X42816Y-30055D02*
G75*
G03X41966Y-30905I0J-850D01*
G74*
G01*
X42816Y-31755D02*
G75*
G03X43666Y-30905I0J850D01*
G74*
G01*
G54D13*
X40293Y-31655D02*
X40293Y-30155D01*
G54D14*
X39980Y-30905D02*
G75*
G03X39980Y-30905I-707J0D01*
G74*
G01*
G54D15*
X40272Y-30154D02*
G75*
G03X40272Y-31656I-999J-750D01*
G74*
G01*
G54D16*
X39273Y-30455D02*
G75*
G03X38823Y-30905I0J-450D01*
G74*
G01*
X39273Y-31355D02*
G75*
G03X39723Y-30905I0J450D01*
G74*
G01*
X39273Y-30255D02*
G75*
G03X38623Y-30905I0J-650D01*
G74*
G01*
X39273Y-31555D02*
G75*
G03X39923Y-30905I0J650D01*
G74*
G01*
X39273Y-30055D02*
G75*
G03X38423Y-30905I0J-850D01*
G74*
G01*
X39273Y-31755D02*
G75*
G03X40123Y-30905I0J850D01*
G74*
G01*
G54D13*
X36749Y-31655D02*
X36749Y-30155D01*
G54D14*
X36437Y-30905D02*
G75*
G03X36437Y-30905I-707J0D01*
G74*
G01*
G54D15*
X36729Y-30154D02*
G75*
G03X36729Y-31656I-999J-750D01*
G74*
G01*
G54D16*
X35729Y-30455D02*
G75*
G03X35279Y-30905I0J-450D01*
G74*
G01*
X35729Y-31355D02*
G75*
G03X36179Y-30905I0J450D01*
G74*
G01*
X35729Y-30255D02*
G75*
G03X35079Y-30905I0J-650D01*
G74*
G01*
X35729Y-31555D02*
G75*
G03X36379Y-30905I0J650D01*
G74*
G01*
X35729Y-30055D02*
G75*
G03X34879Y-30905I0J-850D01*
G74*
G01*
X35729Y-31755D02*
G75*
G03X36579Y-30905I0J850D01*
G74*
G01*
G54D13*
X33206Y-31655D02*
X33206Y-30155D01*
G54D14*
X32893Y-30905D02*
G75*
G03X32893Y-30905I-707J0D01*
G74*
G01*
G54D15*
X33186Y-30154D02*
G75*
G03X33186Y-31656I-999J-750D01*
G74*
G01*
G54D16*
X32186Y-30455D02*
G75*
G03X31736Y-30905I0J-450D01*
G74*
G01*
X32186Y-31355D02*
G75*
G03X32636Y-30905I0J450D01*
G74*
G01*
X32186Y-30255D02*
G75*
G03X31536Y-30905I0J-650D01*
G74*
G01*
X32186Y-31555D02*
G75*
G03X32836Y-30905I0J650D01*
G74*
G01*
X32186Y-30055D02*
G75*
G03X31336Y-30905I0J-850D01*
G74*
G01*
X32186Y-31755D02*
G75*
G03X33036Y-30905I0J850D01*
G74*
G01*
G54D17*
X55499Y-61631D02*
X55584Y-61660D01*
X55727Y-61660D01*
X55784Y-61631D01*
X55813Y-61603D01*
X55842Y-61545D01*
X55842Y-61488D01*
X55813Y-61431D01*
X55784Y-61403D01*
X55727Y-61374D01*
X55613Y-61345D01*
X55556Y-61317D01*
X55527Y-61288D01*
X55499Y-61231D01*
X55499Y-61174D01*
X55527Y-61117D01*
X55556Y-61088D01*
X55613Y-61060D01*
X55756Y-61060D01*
X55842Y-61088D01*
X56042Y-61060D02*
X56184Y-61660D01*
X56299Y-61231D01*
X56413Y-61660D01*
X56556Y-61060D01*
X57099Y-61660D02*
X56756Y-61660D01*
X56927Y-61660D02*
X56927Y-61060D01*
X56870Y-61145D01*
X56813Y-61203D01*
X56756Y-61231D01*
G54D18*
X22140Y-62644D02*
X21990Y-62358D01*
X21883Y-62644D02*
X21883Y-62044D01*
X22055Y-62044D01*
X22098Y-62073D01*
X22119Y-62101D01*
X22140Y-62158D01*
X22140Y-62244D01*
X22119Y-62301D01*
X22098Y-62330D01*
X22055Y-62358D01*
X21883Y-62358D01*
X22333Y-62644D02*
X22333Y-62044D01*
X22505Y-62044D01*
X22548Y-62073D01*
X22569Y-62101D01*
X22590Y-62158D01*
X22590Y-62244D01*
X22569Y-62301D01*
X22548Y-62330D01*
X22505Y-62358D01*
X22333Y-62358D01*
X22762Y-62101D02*
X22783Y-62073D01*
X22826Y-62044D01*
X22933Y-62044D01*
X22976Y-62073D01*
X22998Y-62101D01*
X23019Y-62158D01*
X23019Y-62215D01*
X22998Y-62301D01*
X22740Y-62644D01*
X23019Y-62644D01*
G54D17*
G54D18*
X33951Y-62644D02*
X33801Y-62358D01*
X33694Y-62644D02*
X33694Y-62044D01*
X33866Y-62044D01*
X33909Y-62073D01*
X33930Y-62101D01*
X33951Y-62158D01*
X33951Y-62244D01*
X33930Y-62301D01*
X33909Y-62330D01*
X33866Y-62358D01*
X33694Y-62358D01*
X34144Y-62644D02*
X34144Y-62044D01*
X34316Y-62044D01*
X34359Y-62073D01*
X34380Y-62101D01*
X34401Y-62158D01*
X34401Y-62244D01*
X34380Y-62301D01*
X34359Y-62330D01*
X34316Y-62358D01*
X34144Y-62358D01*
X34830Y-62644D02*
X34573Y-62644D01*
X34701Y-62644D02*
X34701Y-62044D01*
X34659Y-62130D01*
X34616Y-62187D01*
X34573Y-62215D01*
G54D17*
X65502Y-60479D02*
X65502Y-59879D01*
X65730Y-59879D01*
X65787Y-59907D01*
X65816Y-59936D01*
X65844Y-59993D01*
X65844Y-60079D01*
X65816Y-60136D01*
X65787Y-60164D01*
X65730Y-60193D01*
X65502Y-60193D01*
X66416Y-60479D02*
X66073Y-60479D01*
X66244Y-60479D02*
X66244Y-59879D01*
X66187Y-59964D01*
X66130Y-60021D01*
X66073Y-60050D01*
G54D19*
X23235Y-44250D02*
X23235Y-43950D01*
X23307Y-43950D01*
X23350Y-43964D01*
X23378Y-43993D01*
X23392Y-44021D01*
X23407Y-44078D01*
X23407Y-44121D01*
X23392Y-44178D01*
X23378Y-44207D01*
X23350Y-44235D01*
X23307Y-44250D01*
X23235Y-44250D01*
X23507Y-43950D02*
X23707Y-43950D01*
X23578Y-44250D01*
X23792Y-43950D02*
X23978Y-43950D01*
X23878Y-44064D01*
X23921Y-44064D01*
X23950Y-44078D01*
X23964Y-44093D01*
X23978Y-44121D01*
X23978Y-44193D01*
X23964Y-44221D01*
X23950Y-44235D01*
X23921Y-44250D01*
X23835Y-44250D01*
X23807Y-44235D01*
X23792Y-44221D01*
X33865Y-37163D02*
X33865Y-36863D01*
X33937Y-36863D01*
X33979Y-36877D01*
X34008Y-36906D01*
X34022Y-36934D01*
X34037Y-36992D01*
X34037Y-37034D01*
X34022Y-37092D01*
X34008Y-37120D01*
X33979Y-37149D01*
X33937Y-37163D01*
X33865Y-37163D01*
X34308Y-36863D02*
X34165Y-36863D01*
X34151Y-37006D01*
X34165Y-36992D01*
X34194Y-36977D01*
X34265Y-36977D01*
X34294Y-36992D01*
X34308Y-37006D01*
X34322Y-37034D01*
X34322Y-37106D01*
X34308Y-37134D01*
X34294Y-37149D01*
X34265Y-37163D01*
X34194Y-37163D01*
X34165Y-37149D01*
X34151Y-37134D01*
X34437Y-36892D02*
X34451Y-36877D01*
X34479Y-36863D01*
X34551Y-36863D01*
X34579Y-36877D01*
X34594Y-36892D01*
X34608Y-36920D01*
X34608Y-36949D01*
X34594Y-36992D01*
X34422Y-37163D01*
X34608Y-37163D01*
X62212Y-40706D02*
X62212Y-40406D01*
X62283Y-40406D01*
X62326Y-40421D01*
X62354Y-40449D01*
X62369Y-40478D01*
X62383Y-40535D01*
X62383Y-40578D01*
X62369Y-40635D01*
X62354Y-40664D01*
X62326Y-40692D01*
X62283Y-40706D01*
X62212Y-40706D01*
X62483Y-40406D02*
X62683Y-40406D01*
X62554Y-40706D01*
X62783Y-40435D02*
X62797Y-40421D01*
X62826Y-40406D01*
X62897Y-40406D01*
X62926Y-40421D01*
X62940Y-40435D01*
X62954Y-40464D01*
X62954Y-40492D01*
X62940Y-40535D01*
X62769Y-40706D01*
X62954Y-40706D01*
X58668Y-40706D02*
X58668Y-40406D01*
X58740Y-40406D01*
X58783Y-40421D01*
X58811Y-40449D01*
X58825Y-40478D01*
X58840Y-40535D01*
X58840Y-40578D01*
X58825Y-40635D01*
X58811Y-40664D01*
X58783Y-40692D01*
X58740Y-40706D01*
X58668Y-40706D01*
X58940Y-40406D02*
X59140Y-40406D01*
X59011Y-40706D01*
X59411Y-40706D02*
X59240Y-40706D01*
X59325Y-40706D02*
X59325Y-40406D01*
X59297Y-40449D01*
X59268Y-40478D01*
X59240Y-40492D01*
X55125Y-40706D02*
X55125Y-40406D01*
X55196Y-40406D01*
X55239Y-40421D01*
X55268Y-40449D01*
X55282Y-40478D01*
X55296Y-40535D01*
X55296Y-40578D01*
X55282Y-40635D01*
X55268Y-40664D01*
X55239Y-40692D01*
X55196Y-40706D01*
X55125Y-40706D01*
X55396Y-40406D02*
X55596Y-40406D01*
X55468Y-40706D01*
X55768Y-40406D02*
X55796Y-40406D01*
X55825Y-40421D01*
X55839Y-40435D01*
X55854Y-40464D01*
X55868Y-40521D01*
X55868Y-40592D01*
X55854Y-40649D01*
X55839Y-40678D01*
X55825Y-40692D01*
X55796Y-40706D01*
X55768Y-40706D01*
X55739Y-40692D01*
X55725Y-40678D01*
X55711Y-40649D01*
X55696Y-40592D01*
X55696Y-40521D01*
X55711Y-40464D01*
X55725Y-40435D01*
X55739Y-40421D01*
X55768Y-40406D01*
X51582Y-40706D02*
X51582Y-40406D01*
X51653Y-40406D01*
X51696Y-40421D01*
X51725Y-40449D01*
X51739Y-40478D01*
X51753Y-40535D01*
X51753Y-40578D01*
X51739Y-40635D01*
X51725Y-40664D01*
X51696Y-40692D01*
X51653Y-40706D01*
X51582Y-40706D01*
X52010Y-40406D02*
X51953Y-40406D01*
X51925Y-40421D01*
X51910Y-40435D01*
X51882Y-40478D01*
X51867Y-40535D01*
X51867Y-40649D01*
X51882Y-40678D01*
X51896Y-40692D01*
X51925Y-40706D01*
X51982Y-40706D01*
X52010Y-40692D01*
X52025Y-40678D01*
X52039Y-40649D01*
X52039Y-40578D01*
X52025Y-40549D01*
X52010Y-40535D01*
X51982Y-40521D01*
X51925Y-40521D01*
X51896Y-40535D01*
X51882Y-40549D01*
X51867Y-40578D01*
X52182Y-40706D02*
X52239Y-40706D01*
X52267Y-40692D01*
X52282Y-40678D01*
X52310Y-40635D01*
X52325Y-40578D01*
X52325Y-40464D01*
X52310Y-40435D01*
X52296Y-40421D01*
X52267Y-40406D01*
X52210Y-40406D01*
X52182Y-40421D01*
X52167Y-40435D01*
X52153Y-40464D01*
X52153Y-40535D01*
X52167Y-40564D01*
X52182Y-40578D01*
X52210Y-40592D01*
X52267Y-40592D01*
X52296Y-40578D01*
X52310Y-40564D01*
X52325Y-40535D01*
X48038Y-40706D02*
X48038Y-40406D01*
X48110Y-40406D01*
X48153Y-40421D01*
X48181Y-40449D01*
X48196Y-40478D01*
X48210Y-40535D01*
X48210Y-40578D01*
X48196Y-40635D01*
X48181Y-40664D01*
X48153Y-40692D01*
X48110Y-40706D01*
X48038Y-40706D01*
X48467Y-40406D02*
X48410Y-40406D01*
X48381Y-40421D01*
X48367Y-40435D01*
X48338Y-40478D01*
X48324Y-40535D01*
X48324Y-40649D01*
X48338Y-40678D01*
X48353Y-40692D01*
X48381Y-40706D01*
X48438Y-40706D01*
X48467Y-40692D01*
X48481Y-40678D01*
X48496Y-40649D01*
X48496Y-40578D01*
X48481Y-40549D01*
X48467Y-40535D01*
X48438Y-40521D01*
X48381Y-40521D01*
X48353Y-40535D01*
X48338Y-40549D01*
X48324Y-40578D01*
X48667Y-40535D02*
X48638Y-40521D01*
X48624Y-40506D01*
X48610Y-40478D01*
X48610Y-40464D01*
X48624Y-40435D01*
X48638Y-40421D01*
X48667Y-40406D01*
X48724Y-40406D01*
X48753Y-40421D01*
X48767Y-40435D01*
X48781Y-40464D01*
X48781Y-40478D01*
X48767Y-40506D01*
X48753Y-40521D01*
X48724Y-40535D01*
X48667Y-40535D01*
X48638Y-40549D01*
X48624Y-40564D01*
X48610Y-40592D01*
X48610Y-40649D01*
X48624Y-40678D01*
X48638Y-40692D01*
X48667Y-40706D01*
X48724Y-40706D01*
X48753Y-40692D01*
X48767Y-40678D01*
X48781Y-40649D01*
X48781Y-40592D01*
X48767Y-40564D01*
X48753Y-40549D01*
X48724Y-40535D01*
X44495Y-40706D02*
X44495Y-40406D01*
X44566Y-40406D01*
X44609Y-40421D01*
X44638Y-40449D01*
X44652Y-40478D01*
X44666Y-40535D01*
X44666Y-40578D01*
X44652Y-40635D01*
X44638Y-40664D01*
X44609Y-40692D01*
X44566Y-40706D01*
X44495Y-40706D01*
X44924Y-40406D02*
X44866Y-40406D01*
X44838Y-40421D01*
X44824Y-40435D01*
X44795Y-40478D01*
X44781Y-40535D01*
X44781Y-40649D01*
X44795Y-40678D01*
X44809Y-40692D01*
X44838Y-40706D01*
X44895Y-40706D01*
X44924Y-40692D01*
X44938Y-40678D01*
X44952Y-40649D01*
X44952Y-40578D01*
X44938Y-40549D01*
X44924Y-40535D01*
X44895Y-40521D01*
X44838Y-40521D01*
X44809Y-40535D01*
X44795Y-40549D01*
X44781Y-40578D01*
X45052Y-40406D02*
X45252Y-40406D01*
X45124Y-40706D01*
X40952Y-40706D02*
X40952Y-40406D01*
X41023Y-40406D01*
X41066Y-40421D01*
X41095Y-40449D01*
X41109Y-40478D01*
X41123Y-40535D01*
X41123Y-40578D01*
X41109Y-40635D01*
X41095Y-40664D01*
X41066Y-40692D01*
X41023Y-40706D01*
X40952Y-40706D01*
X41380Y-40406D02*
X41323Y-40406D01*
X41295Y-40421D01*
X41280Y-40435D01*
X41252Y-40478D01*
X41237Y-40535D01*
X41237Y-40649D01*
X41252Y-40678D01*
X41266Y-40692D01*
X41295Y-40706D01*
X41352Y-40706D01*
X41380Y-40692D01*
X41395Y-40678D01*
X41409Y-40649D01*
X41409Y-40578D01*
X41395Y-40549D01*
X41380Y-40535D01*
X41352Y-40521D01*
X41295Y-40521D01*
X41266Y-40535D01*
X41252Y-40549D01*
X41237Y-40578D01*
X41666Y-40406D02*
X41609Y-40406D01*
X41580Y-40421D01*
X41566Y-40435D01*
X41537Y-40478D01*
X41523Y-40535D01*
X41523Y-40649D01*
X41537Y-40678D01*
X41552Y-40692D01*
X41580Y-40706D01*
X41637Y-40706D01*
X41666Y-40692D01*
X41680Y-40678D01*
X41695Y-40649D01*
X41695Y-40578D01*
X41680Y-40549D01*
X41666Y-40535D01*
X41637Y-40521D01*
X41580Y-40521D01*
X41552Y-40535D01*
X41537Y-40549D01*
X41523Y-40578D01*
X37408Y-40706D02*
X37408Y-40406D01*
X37480Y-40406D01*
X37523Y-40421D01*
X37551Y-40449D01*
X37566Y-40478D01*
X37580Y-40535D01*
X37580Y-40578D01*
X37566Y-40635D01*
X37551Y-40664D01*
X37523Y-40692D01*
X37480Y-40706D01*
X37408Y-40706D01*
X37837Y-40406D02*
X37780Y-40406D01*
X37751Y-40421D01*
X37737Y-40435D01*
X37708Y-40478D01*
X37694Y-40535D01*
X37694Y-40649D01*
X37708Y-40678D01*
X37723Y-40692D01*
X37751Y-40706D01*
X37808Y-40706D01*
X37837Y-40692D01*
X37851Y-40678D01*
X37866Y-40649D01*
X37866Y-40578D01*
X37851Y-40549D01*
X37837Y-40535D01*
X37808Y-40521D01*
X37751Y-40521D01*
X37723Y-40535D01*
X37708Y-40549D01*
X37694Y-40578D01*
X38137Y-40406D02*
X37994Y-40406D01*
X37980Y-40549D01*
X37994Y-40535D01*
X38023Y-40521D01*
X38094Y-40521D01*
X38123Y-40535D01*
X38137Y-40549D01*
X38151Y-40578D01*
X38151Y-40649D01*
X38137Y-40678D01*
X38123Y-40692D01*
X38094Y-40706D01*
X38023Y-40706D01*
X37994Y-40692D01*
X37980Y-40678D01*
X33865Y-40706D02*
X33865Y-40406D01*
X33937Y-40406D01*
X33979Y-40421D01*
X34008Y-40449D01*
X34022Y-40478D01*
X34037Y-40535D01*
X34037Y-40578D01*
X34022Y-40635D01*
X34008Y-40664D01*
X33979Y-40692D01*
X33937Y-40706D01*
X33865Y-40706D01*
X34294Y-40406D02*
X34237Y-40406D01*
X34208Y-40421D01*
X34194Y-40435D01*
X34165Y-40478D01*
X34151Y-40535D01*
X34151Y-40649D01*
X34165Y-40678D01*
X34179Y-40692D01*
X34208Y-40706D01*
X34265Y-40706D01*
X34294Y-40692D01*
X34308Y-40678D01*
X34322Y-40649D01*
X34322Y-40578D01*
X34308Y-40549D01*
X34294Y-40535D01*
X34265Y-40521D01*
X34208Y-40521D01*
X34179Y-40535D01*
X34165Y-40549D01*
X34151Y-40578D01*
X34579Y-40506D02*
X34579Y-40706D01*
X34508Y-40392D02*
X34437Y-40606D01*
X34622Y-40606D01*
X30322Y-40706D02*
X30322Y-40406D01*
X30393Y-40406D01*
X30436Y-40421D01*
X30465Y-40449D01*
X30479Y-40478D01*
X30493Y-40535D01*
X30493Y-40578D01*
X30479Y-40635D01*
X30465Y-40664D01*
X30436Y-40692D01*
X30393Y-40706D01*
X30322Y-40706D01*
X30750Y-40406D02*
X30693Y-40406D01*
X30665Y-40421D01*
X30650Y-40435D01*
X30622Y-40478D01*
X30608Y-40535D01*
X30608Y-40649D01*
X30622Y-40678D01*
X30636Y-40692D01*
X30665Y-40706D01*
X30722Y-40706D01*
X30750Y-40692D01*
X30765Y-40678D01*
X30779Y-40649D01*
X30779Y-40578D01*
X30765Y-40549D01*
X30750Y-40535D01*
X30722Y-40521D01*
X30665Y-40521D01*
X30636Y-40535D01*
X30622Y-40549D01*
X30608Y-40578D01*
X30879Y-40406D02*
X31065Y-40406D01*
X30965Y-40521D01*
X31008Y-40521D01*
X31036Y-40535D01*
X31050Y-40549D01*
X31065Y-40578D01*
X31065Y-40649D01*
X31050Y-40678D01*
X31036Y-40692D01*
X31008Y-40706D01*
X30922Y-40706D01*
X30893Y-40692D01*
X30879Y-40678D01*
X26779Y-40706D02*
X26779Y-40406D01*
X26850Y-40406D01*
X26893Y-40421D01*
X26921Y-40449D01*
X26936Y-40478D01*
X26950Y-40535D01*
X26950Y-40578D01*
X26936Y-40635D01*
X26921Y-40664D01*
X26893Y-40692D01*
X26850Y-40706D01*
X26779Y-40706D01*
X27207Y-40406D02*
X27150Y-40406D01*
X27121Y-40421D01*
X27107Y-40435D01*
X27079Y-40478D01*
X27064Y-40535D01*
X27064Y-40649D01*
X27079Y-40678D01*
X27093Y-40692D01*
X27121Y-40706D01*
X27179Y-40706D01*
X27207Y-40692D01*
X27221Y-40678D01*
X27236Y-40649D01*
X27236Y-40578D01*
X27221Y-40549D01*
X27207Y-40535D01*
X27179Y-40521D01*
X27121Y-40521D01*
X27093Y-40535D01*
X27079Y-40549D01*
X27064Y-40578D01*
X27350Y-40435D02*
X27364Y-40421D01*
X27393Y-40406D01*
X27464Y-40406D01*
X27493Y-40421D01*
X27507Y-40435D01*
X27521Y-40464D01*
X27521Y-40492D01*
X27507Y-40535D01*
X27336Y-40706D01*
X27521Y-40706D01*
X23235Y-40706D02*
X23235Y-40406D01*
X23307Y-40406D01*
X23350Y-40421D01*
X23378Y-40449D01*
X23392Y-40478D01*
X23407Y-40535D01*
X23407Y-40578D01*
X23392Y-40635D01*
X23378Y-40664D01*
X23350Y-40692D01*
X23307Y-40706D01*
X23235Y-40706D01*
X23664Y-40406D02*
X23607Y-40406D01*
X23578Y-40421D01*
X23564Y-40435D01*
X23535Y-40478D01*
X23521Y-40535D01*
X23521Y-40649D01*
X23535Y-40678D01*
X23550Y-40692D01*
X23578Y-40706D01*
X23635Y-40706D01*
X23664Y-40692D01*
X23678Y-40678D01*
X23692Y-40649D01*
X23692Y-40578D01*
X23678Y-40549D01*
X23664Y-40535D01*
X23635Y-40521D01*
X23578Y-40521D01*
X23550Y-40535D01*
X23535Y-40549D01*
X23521Y-40578D01*
X23978Y-40706D02*
X23807Y-40706D01*
X23892Y-40706D02*
X23892Y-40406D01*
X23864Y-40449D01*
X23835Y-40478D01*
X23807Y-40492D01*
X62212Y-37163D02*
X62212Y-36863D01*
X62283Y-36863D01*
X62326Y-36877D01*
X62354Y-36906D01*
X62369Y-36934D01*
X62383Y-36992D01*
X62383Y-37034D01*
X62369Y-37092D01*
X62354Y-37120D01*
X62326Y-37149D01*
X62283Y-37163D01*
X62212Y-37163D01*
X62640Y-36863D02*
X62583Y-36863D01*
X62554Y-36877D01*
X62540Y-36892D01*
X62512Y-36934D01*
X62497Y-36992D01*
X62497Y-37106D01*
X62512Y-37134D01*
X62526Y-37149D01*
X62554Y-37163D01*
X62612Y-37163D01*
X62640Y-37149D01*
X62654Y-37134D01*
X62669Y-37106D01*
X62669Y-37034D01*
X62654Y-37006D01*
X62640Y-36992D01*
X62612Y-36977D01*
X62554Y-36977D01*
X62526Y-36992D01*
X62512Y-37006D01*
X62497Y-37034D01*
X62854Y-36863D02*
X62883Y-36863D01*
X62912Y-36877D01*
X62926Y-36892D01*
X62940Y-36920D01*
X62954Y-36977D01*
X62954Y-37049D01*
X62940Y-37106D01*
X62926Y-37134D01*
X62912Y-37149D01*
X62883Y-37163D01*
X62854Y-37163D01*
X62826Y-37149D01*
X62812Y-37134D01*
X62797Y-37106D01*
X62783Y-37049D01*
X62783Y-36977D01*
X62797Y-36920D01*
X62812Y-36892D01*
X62826Y-36877D01*
X62854Y-36863D01*
X58668Y-37163D02*
X58668Y-36863D01*
X58740Y-36863D01*
X58783Y-36877D01*
X58811Y-36906D01*
X58825Y-36934D01*
X58840Y-36992D01*
X58840Y-37034D01*
X58825Y-37092D01*
X58811Y-37120D01*
X58783Y-37149D01*
X58740Y-37163D01*
X58668Y-37163D01*
X59111Y-36863D02*
X58968Y-36863D01*
X58954Y-37006D01*
X58968Y-36992D01*
X58997Y-36977D01*
X59068Y-36977D01*
X59097Y-36992D01*
X59111Y-37006D01*
X59125Y-37034D01*
X59125Y-37106D01*
X59111Y-37134D01*
X59097Y-37149D01*
X59068Y-37163D01*
X58997Y-37163D01*
X58968Y-37149D01*
X58954Y-37134D01*
X59268Y-37163D02*
X59325Y-37163D01*
X59354Y-37149D01*
X59368Y-37134D01*
X59397Y-37092D01*
X59411Y-37034D01*
X59411Y-36920D01*
X59397Y-36892D01*
X59383Y-36877D01*
X59354Y-36863D01*
X59297Y-36863D01*
X59268Y-36877D01*
X59254Y-36892D01*
X59240Y-36920D01*
X59240Y-36992D01*
X59254Y-37020D01*
X59268Y-37034D01*
X59297Y-37049D01*
X59354Y-37049D01*
X59383Y-37034D01*
X59397Y-37020D01*
X59411Y-36992D01*
X55125Y-37163D02*
X55125Y-36863D01*
X55196Y-36863D01*
X55239Y-36877D01*
X55268Y-36906D01*
X55282Y-36934D01*
X55296Y-36992D01*
X55296Y-37034D01*
X55282Y-37092D01*
X55268Y-37120D01*
X55239Y-37149D01*
X55196Y-37163D01*
X55125Y-37163D01*
X55568Y-36863D02*
X55425Y-36863D01*
X55411Y-37006D01*
X55425Y-36992D01*
X55454Y-36977D01*
X55525Y-36977D01*
X55554Y-36992D01*
X55568Y-37006D01*
X55582Y-37034D01*
X55582Y-37106D01*
X55568Y-37134D01*
X55554Y-37149D01*
X55525Y-37163D01*
X55454Y-37163D01*
X55425Y-37149D01*
X55411Y-37134D01*
X55754Y-36992D02*
X55725Y-36977D01*
X55711Y-36963D01*
X55696Y-36934D01*
X55696Y-36920D01*
X55711Y-36892D01*
X55725Y-36877D01*
X55754Y-36863D01*
X55811Y-36863D01*
X55839Y-36877D01*
X55854Y-36892D01*
X55868Y-36920D01*
X55868Y-36934D01*
X55854Y-36963D01*
X55839Y-36977D01*
X55811Y-36992D01*
X55754Y-36992D01*
X55725Y-37006D01*
X55711Y-37020D01*
X55696Y-37049D01*
X55696Y-37106D01*
X55711Y-37134D01*
X55725Y-37149D01*
X55754Y-37163D01*
X55811Y-37163D01*
X55839Y-37149D01*
X55854Y-37134D01*
X55868Y-37106D01*
X55868Y-37049D01*
X55854Y-37020D01*
X55839Y-37006D01*
X55811Y-36992D01*
X51582Y-37163D02*
X51582Y-36863D01*
X51653Y-36863D01*
X51696Y-36877D01*
X51725Y-36906D01*
X51739Y-36934D01*
X51753Y-36992D01*
X51753Y-37034D01*
X51739Y-37092D01*
X51725Y-37120D01*
X51696Y-37149D01*
X51653Y-37163D01*
X51582Y-37163D01*
X52025Y-36863D02*
X51882Y-36863D01*
X51867Y-37006D01*
X51882Y-36992D01*
X51910Y-36977D01*
X51982Y-36977D01*
X52010Y-36992D01*
X52025Y-37006D01*
X52039Y-37034D01*
X52039Y-37106D01*
X52025Y-37134D01*
X52010Y-37149D01*
X51982Y-37163D01*
X51910Y-37163D01*
X51882Y-37149D01*
X51867Y-37134D01*
X52139Y-36863D02*
X52339Y-36863D01*
X52210Y-37163D01*
X48038Y-37163D02*
X48038Y-36863D01*
X48110Y-36863D01*
X48153Y-36877D01*
X48181Y-36906D01*
X48196Y-36934D01*
X48210Y-36992D01*
X48210Y-37034D01*
X48196Y-37092D01*
X48181Y-37120D01*
X48153Y-37149D01*
X48110Y-37163D01*
X48038Y-37163D01*
X48481Y-36863D02*
X48338Y-36863D01*
X48324Y-37006D01*
X48338Y-36992D01*
X48367Y-36977D01*
X48438Y-36977D01*
X48467Y-36992D01*
X48481Y-37006D01*
X48496Y-37034D01*
X48496Y-37106D01*
X48481Y-37134D01*
X48467Y-37149D01*
X48438Y-37163D01*
X48367Y-37163D01*
X48338Y-37149D01*
X48324Y-37134D01*
X48753Y-36863D02*
X48696Y-36863D01*
X48667Y-36877D01*
X48653Y-36892D01*
X48624Y-36934D01*
X48610Y-36992D01*
X48610Y-37106D01*
X48624Y-37134D01*
X48638Y-37149D01*
X48667Y-37163D01*
X48724Y-37163D01*
X48753Y-37149D01*
X48767Y-37134D01*
X48781Y-37106D01*
X48781Y-37034D01*
X48767Y-37006D01*
X48753Y-36992D01*
X48724Y-36977D01*
X48667Y-36977D01*
X48638Y-36992D01*
X48624Y-37006D01*
X48610Y-37034D01*
X44495Y-37163D02*
X44495Y-36863D01*
X44566Y-36863D01*
X44609Y-36877D01*
X44638Y-36906D01*
X44652Y-36934D01*
X44666Y-36992D01*
X44666Y-37034D01*
X44652Y-37092D01*
X44638Y-37120D01*
X44609Y-37149D01*
X44566Y-37163D01*
X44495Y-37163D01*
X44938Y-36863D02*
X44795Y-36863D01*
X44781Y-37006D01*
X44795Y-36992D01*
X44824Y-36977D01*
X44895Y-36977D01*
X44924Y-36992D01*
X44938Y-37006D01*
X44952Y-37034D01*
X44952Y-37106D01*
X44938Y-37134D01*
X44924Y-37149D01*
X44895Y-37163D01*
X44824Y-37163D01*
X44795Y-37149D01*
X44781Y-37134D01*
X45224Y-36863D02*
X45081Y-36863D01*
X45066Y-37006D01*
X45081Y-36992D01*
X45109Y-36977D01*
X45181Y-36977D01*
X45209Y-36992D01*
X45224Y-37006D01*
X45238Y-37034D01*
X45238Y-37106D01*
X45224Y-37134D01*
X45209Y-37149D01*
X45181Y-37163D01*
X45109Y-37163D01*
X45081Y-37149D01*
X45066Y-37134D01*
X40952Y-37163D02*
X40952Y-36863D01*
X41023Y-36863D01*
X41066Y-36877D01*
X41095Y-36906D01*
X41109Y-36934D01*
X41123Y-36992D01*
X41123Y-37034D01*
X41109Y-37092D01*
X41095Y-37120D01*
X41066Y-37149D01*
X41023Y-37163D01*
X40952Y-37163D01*
X41395Y-36863D02*
X41252Y-36863D01*
X41237Y-37006D01*
X41252Y-36992D01*
X41280Y-36977D01*
X41352Y-36977D01*
X41380Y-36992D01*
X41395Y-37006D01*
X41409Y-37034D01*
X41409Y-37106D01*
X41395Y-37134D01*
X41380Y-37149D01*
X41352Y-37163D01*
X41280Y-37163D01*
X41252Y-37149D01*
X41237Y-37134D01*
X41666Y-36963D02*
X41666Y-37163D01*
X41595Y-36849D02*
X41523Y-37063D01*
X41709Y-37063D01*
X37408Y-37163D02*
X37408Y-36863D01*
X37480Y-36863D01*
X37523Y-36877D01*
X37551Y-36906D01*
X37566Y-36934D01*
X37580Y-36992D01*
X37580Y-37034D01*
X37566Y-37092D01*
X37551Y-37120D01*
X37523Y-37149D01*
X37480Y-37163D01*
X37408Y-37163D01*
X37851Y-36863D02*
X37708Y-36863D01*
X37694Y-37006D01*
X37708Y-36992D01*
X37737Y-36977D01*
X37808Y-36977D01*
X37837Y-36992D01*
X37851Y-37006D01*
X37866Y-37034D01*
X37866Y-37106D01*
X37851Y-37134D01*
X37837Y-37149D01*
X37808Y-37163D01*
X37737Y-37163D01*
X37708Y-37149D01*
X37694Y-37134D01*
X37966Y-36863D02*
X38151Y-36863D01*
X38051Y-36977D01*
X38094Y-36977D01*
X38123Y-36992D01*
X38137Y-37006D01*
X38151Y-37034D01*
X38151Y-37106D01*
X38137Y-37134D01*
X38123Y-37149D01*
X38094Y-37163D01*
X38008Y-37163D01*
X37980Y-37149D01*
X37966Y-37134D01*
X30322Y-37163D02*
X30322Y-36863D01*
X30393Y-36863D01*
X30436Y-36877D01*
X30465Y-36906D01*
X30479Y-36934D01*
X30493Y-36992D01*
X30493Y-37034D01*
X30479Y-37092D01*
X30465Y-37120D01*
X30436Y-37149D01*
X30393Y-37163D01*
X30322Y-37163D01*
X30765Y-36863D02*
X30622Y-36863D01*
X30608Y-37006D01*
X30622Y-36992D01*
X30650Y-36977D01*
X30722Y-36977D01*
X30750Y-36992D01*
X30765Y-37006D01*
X30779Y-37034D01*
X30779Y-37106D01*
X30765Y-37134D01*
X30750Y-37149D01*
X30722Y-37163D01*
X30650Y-37163D01*
X30622Y-37149D01*
X30608Y-37134D01*
X31065Y-37163D02*
X30893Y-37163D01*
X30979Y-37163D02*
X30979Y-36863D01*
X30950Y-36906D01*
X30922Y-36934D01*
X30893Y-36949D01*
X23235Y-47793D02*
X23235Y-47493D01*
X23307Y-47493D01*
X23350Y-47507D01*
X23378Y-47536D01*
X23392Y-47564D01*
X23407Y-47622D01*
X23407Y-47664D01*
X23392Y-47722D01*
X23378Y-47750D01*
X23350Y-47779D01*
X23307Y-47793D01*
X23235Y-47793D01*
X23578Y-47622D02*
X23550Y-47607D01*
X23535Y-47593D01*
X23521Y-47564D01*
X23521Y-47550D01*
X23535Y-47522D01*
X23550Y-47507D01*
X23578Y-47493D01*
X23635Y-47493D01*
X23664Y-47507D01*
X23678Y-47522D01*
X23692Y-47550D01*
X23692Y-47564D01*
X23678Y-47593D01*
X23664Y-47607D01*
X23635Y-47622D01*
X23578Y-47622D01*
X23550Y-47636D01*
X23535Y-47650D01*
X23521Y-47679D01*
X23521Y-47736D01*
X23535Y-47764D01*
X23550Y-47779D01*
X23578Y-47793D01*
X23635Y-47793D01*
X23664Y-47779D01*
X23678Y-47764D01*
X23692Y-47736D01*
X23692Y-47679D01*
X23678Y-47650D01*
X23664Y-47636D01*
X23635Y-47622D01*
X23964Y-47493D02*
X23821Y-47493D01*
X23807Y-47636D01*
X23821Y-47622D01*
X23850Y-47607D01*
X23921Y-47607D01*
X23950Y-47622D01*
X23964Y-47636D01*
X23978Y-47664D01*
X23978Y-47736D01*
X23964Y-47764D01*
X23950Y-47779D01*
X23921Y-47793D01*
X23850Y-47793D01*
X23821Y-47779D01*
X23807Y-47764D01*
X62212Y-47793D02*
X62212Y-47493D01*
X62283Y-47493D01*
X62326Y-47507D01*
X62354Y-47536D01*
X62369Y-47564D01*
X62383Y-47622D01*
X62383Y-47664D01*
X62369Y-47722D01*
X62354Y-47750D01*
X62326Y-47779D01*
X62283Y-47793D01*
X62212Y-47793D01*
X62526Y-47793D02*
X62583Y-47793D01*
X62612Y-47779D01*
X62626Y-47764D01*
X62654Y-47722D01*
X62669Y-47664D01*
X62669Y-47550D01*
X62654Y-47522D01*
X62640Y-47507D01*
X62612Y-47493D01*
X62554Y-47493D01*
X62526Y-47507D01*
X62512Y-47522D01*
X62497Y-47550D01*
X62497Y-47622D01*
X62512Y-47650D01*
X62526Y-47664D01*
X62554Y-47679D01*
X62612Y-47679D01*
X62640Y-47664D01*
X62654Y-47650D01*
X62669Y-47622D01*
X62926Y-47493D02*
X62869Y-47493D01*
X62840Y-47507D01*
X62826Y-47522D01*
X62797Y-47564D01*
X62783Y-47622D01*
X62783Y-47736D01*
X62797Y-47764D01*
X62812Y-47779D01*
X62840Y-47793D01*
X62897Y-47793D01*
X62926Y-47779D01*
X62940Y-47764D01*
X62954Y-47736D01*
X62954Y-47664D01*
X62940Y-47636D01*
X62926Y-47622D01*
X62897Y-47607D01*
X62840Y-47607D01*
X62812Y-47622D01*
X62797Y-47636D01*
X62783Y-47664D01*
X58668Y-47793D02*
X58668Y-47493D01*
X58740Y-47493D01*
X58783Y-47507D01*
X58811Y-47536D01*
X58825Y-47564D01*
X58840Y-47622D01*
X58840Y-47664D01*
X58825Y-47722D01*
X58811Y-47750D01*
X58783Y-47779D01*
X58740Y-47793D01*
X58668Y-47793D01*
X58983Y-47793D02*
X59040Y-47793D01*
X59068Y-47779D01*
X59083Y-47764D01*
X59111Y-47722D01*
X59125Y-47664D01*
X59125Y-47550D01*
X59111Y-47522D01*
X59097Y-47507D01*
X59068Y-47493D01*
X59011Y-47493D01*
X58983Y-47507D01*
X58968Y-47522D01*
X58954Y-47550D01*
X58954Y-47622D01*
X58968Y-47650D01*
X58983Y-47664D01*
X59011Y-47679D01*
X59068Y-47679D01*
X59097Y-47664D01*
X59111Y-47650D01*
X59125Y-47622D01*
X59397Y-47493D02*
X59254Y-47493D01*
X59240Y-47636D01*
X59254Y-47622D01*
X59283Y-47607D01*
X59354Y-47607D01*
X59383Y-47622D01*
X59397Y-47636D01*
X59411Y-47664D01*
X59411Y-47736D01*
X59397Y-47764D01*
X59383Y-47779D01*
X59354Y-47793D01*
X59283Y-47793D01*
X59254Y-47779D01*
X59240Y-47764D01*
X55125Y-47793D02*
X55125Y-47493D01*
X55196Y-47493D01*
X55239Y-47507D01*
X55268Y-47536D01*
X55282Y-47564D01*
X55296Y-47622D01*
X55296Y-47664D01*
X55282Y-47722D01*
X55268Y-47750D01*
X55239Y-47779D01*
X55196Y-47793D01*
X55125Y-47793D01*
X55439Y-47793D02*
X55496Y-47793D01*
X55525Y-47779D01*
X55539Y-47764D01*
X55568Y-47722D01*
X55582Y-47664D01*
X55582Y-47550D01*
X55568Y-47522D01*
X55554Y-47507D01*
X55525Y-47493D01*
X55468Y-47493D01*
X55439Y-47507D01*
X55425Y-47522D01*
X55411Y-47550D01*
X55411Y-47622D01*
X55425Y-47650D01*
X55439Y-47664D01*
X55468Y-47679D01*
X55525Y-47679D01*
X55554Y-47664D01*
X55568Y-47650D01*
X55582Y-47622D01*
X55839Y-47593D02*
X55839Y-47793D01*
X55768Y-47479D02*
X55696Y-47693D01*
X55882Y-47693D01*
X51582Y-47793D02*
X51582Y-47493D01*
X51653Y-47493D01*
X51696Y-47507D01*
X51725Y-47536D01*
X51739Y-47564D01*
X51753Y-47622D01*
X51753Y-47664D01*
X51739Y-47722D01*
X51725Y-47750D01*
X51696Y-47779D01*
X51653Y-47793D01*
X51582Y-47793D01*
X51896Y-47793D02*
X51953Y-47793D01*
X51982Y-47779D01*
X51996Y-47764D01*
X52025Y-47722D01*
X52039Y-47664D01*
X52039Y-47550D01*
X52025Y-47522D01*
X52010Y-47507D01*
X51982Y-47493D01*
X51925Y-47493D01*
X51896Y-47507D01*
X51882Y-47522D01*
X51867Y-47550D01*
X51867Y-47622D01*
X51882Y-47650D01*
X51896Y-47664D01*
X51925Y-47679D01*
X51982Y-47679D01*
X52010Y-47664D01*
X52025Y-47650D01*
X52039Y-47622D01*
X52139Y-47493D02*
X52325Y-47493D01*
X52225Y-47607D01*
X52267Y-47607D01*
X52296Y-47622D01*
X52310Y-47636D01*
X52325Y-47664D01*
X52325Y-47736D01*
X52310Y-47764D01*
X52296Y-47779D01*
X52267Y-47793D01*
X52182Y-47793D01*
X52153Y-47779D01*
X52139Y-47764D01*
X48038Y-47793D02*
X48038Y-47493D01*
X48110Y-47493D01*
X48153Y-47507D01*
X48181Y-47536D01*
X48196Y-47564D01*
X48210Y-47622D01*
X48210Y-47664D01*
X48196Y-47722D01*
X48181Y-47750D01*
X48153Y-47779D01*
X48110Y-47793D01*
X48038Y-47793D01*
X48353Y-47793D02*
X48410Y-47793D01*
X48438Y-47779D01*
X48453Y-47764D01*
X48481Y-47722D01*
X48496Y-47664D01*
X48496Y-47550D01*
X48481Y-47522D01*
X48467Y-47507D01*
X48438Y-47493D01*
X48381Y-47493D01*
X48353Y-47507D01*
X48338Y-47522D01*
X48324Y-47550D01*
X48324Y-47622D01*
X48338Y-47650D01*
X48353Y-47664D01*
X48381Y-47679D01*
X48438Y-47679D01*
X48467Y-47664D01*
X48481Y-47650D01*
X48496Y-47622D01*
X48610Y-47522D02*
X48624Y-47507D01*
X48653Y-47493D01*
X48724Y-47493D01*
X48753Y-47507D01*
X48767Y-47522D01*
X48781Y-47550D01*
X48781Y-47579D01*
X48767Y-47622D01*
X48596Y-47793D01*
X48781Y-47793D01*
X44495Y-47793D02*
X44495Y-47493D01*
X44566Y-47493D01*
X44609Y-47507D01*
X44638Y-47536D01*
X44652Y-47564D01*
X44666Y-47622D01*
X44666Y-47664D01*
X44652Y-47722D01*
X44638Y-47750D01*
X44609Y-47779D01*
X44566Y-47793D01*
X44495Y-47793D01*
X44809Y-47793D02*
X44866Y-47793D01*
X44895Y-47779D01*
X44909Y-47764D01*
X44938Y-47722D01*
X44952Y-47664D01*
X44952Y-47550D01*
X44938Y-47522D01*
X44924Y-47507D01*
X44895Y-47493D01*
X44838Y-47493D01*
X44809Y-47507D01*
X44795Y-47522D01*
X44781Y-47550D01*
X44781Y-47622D01*
X44795Y-47650D01*
X44809Y-47664D01*
X44838Y-47679D01*
X44895Y-47679D01*
X44924Y-47664D01*
X44938Y-47650D01*
X44952Y-47622D01*
X45238Y-47793D02*
X45066Y-47793D01*
X45152Y-47793D02*
X45152Y-47493D01*
X45124Y-47536D01*
X45095Y-47564D01*
X45066Y-47579D01*
X40952Y-47793D02*
X40952Y-47493D01*
X41023Y-47493D01*
X41066Y-47507D01*
X41095Y-47536D01*
X41109Y-47564D01*
X41123Y-47622D01*
X41123Y-47664D01*
X41109Y-47722D01*
X41095Y-47750D01*
X41066Y-47779D01*
X41023Y-47793D01*
X40952Y-47793D01*
X41266Y-47793D02*
X41323Y-47793D01*
X41352Y-47779D01*
X41366Y-47764D01*
X41395Y-47722D01*
X41409Y-47664D01*
X41409Y-47550D01*
X41395Y-47522D01*
X41380Y-47507D01*
X41352Y-47493D01*
X41295Y-47493D01*
X41266Y-47507D01*
X41252Y-47522D01*
X41237Y-47550D01*
X41237Y-47622D01*
X41252Y-47650D01*
X41266Y-47664D01*
X41295Y-47679D01*
X41352Y-47679D01*
X41380Y-47664D01*
X41395Y-47650D01*
X41409Y-47622D01*
X41595Y-47493D02*
X41623Y-47493D01*
X41652Y-47507D01*
X41666Y-47522D01*
X41680Y-47550D01*
X41695Y-47607D01*
X41695Y-47679D01*
X41680Y-47736D01*
X41666Y-47764D01*
X41652Y-47779D01*
X41623Y-47793D01*
X41595Y-47793D01*
X41566Y-47779D01*
X41552Y-47764D01*
X41537Y-47736D01*
X41523Y-47679D01*
X41523Y-47607D01*
X41537Y-47550D01*
X41552Y-47522D01*
X41566Y-47507D01*
X41595Y-47493D01*
X37408Y-47793D02*
X37408Y-47493D01*
X37480Y-47493D01*
X37523Y-47507D01*
X37551Y-47536D01*
X37566Y-47564D01*
X37580Y-47622D01*
X37580Y-47664D01*
X37566Y-47722D01*
X37551Y-47750D01*
X37523Y-47779D01*
X37480Y-47793D01*
X37408Y-47793D01*
X37751Y-47622D02*
X37723Y-47607D01*
X37708Y-47593D01*
X37694Y-47564D01*
X37694Y-47550D01*
X37708Y-47522D01*
X37723Y-47507D01*
X37751Y-47493D01*
X37808Y-47493D01*
X37837Y-47507D01*
X37851Y-47522D01*
X37866Y-47550D01*
X37866Y-47564D01*
X37851Y-47593D01*
X37837Y-47607D01*
X37808Y-47622D01*
X37751Y-47622D01*
X37723Y-47636D01*
X37708Y-47650D01*
X37694Y-47679D01*
X37694Y-47736D01*
X37708Y-47764D01*
X37723Y-47779D01*
X37751Y-47793D01*
X37808Y-47793D01*
X37837Y-47779D01*
X37851Y-47764D01*
X37866Y-47736D01*
X37866Y-47679D01*
X37851Y-47650D01*
X37837Y-47636D01*
X37808Y-47622D01*
X38008Y-47793D02*
X38066Y-47793D01*
X38094Y-47779D01*
X38108Y-47764D01*
X38137Y-47722D01*
X38151Y-47664D01*
X38151Y-47550D01*
X38137Y-47522D01*
X38123Y-47507D01*
X38094Y-47493D01*
X38037Y-47493D01*
X38008Y-47507D01*
X37994Y-47522D01*
X37980Y-47550D01*
X37980Y-47622D01*
X37994Y-47650D01*
X38008Y-47664D01*
X38037Y-47679D01*
X38094Y-47679D01*
X38123Y-47664D01*
X38137Y-47650D01*
X38151Y-47622D01*
X33865Y-47793D02*
X33865Y-47493D01*
X33937Y-47493D01*
X33979Y-47507D01*
X34008Y-47536D01*
X34022Y-47564D01*
X34037Y-47622D01*
X34037Y-47664D01*
X34022Y-47722D01*
X34008Y-47750D01*
X33979Y-47779D01*
X33937Y-47793D01*
X33865Y-47793D01*
X34208Y-47622D02*
X34179Y-47607D01*
X34165Y-47593D01*
X34151Y-47564D01*
X34151Y-47550D01*
X34165Y-47522D01*
X34179Y-47507D01*
X34208Y-47493D01*
X34265Y-47493D01*
X34294Y-47507D01*
X34308Y-47522D01*
X34322Y-47550D01*
X34322Y-47564D01*
X34308Y-47593D01*
X34294Y-47607D01*
X34265Y-47622D01*
X34208Y-47622D01*
X34179Y-47636D01*
X34165Y-47650D01*
X34151Y-47679D01*
X34151Y-47736D01*
X34165Y-47764D01*
X34179Y-47779D01*
X34208Y-47793D01*
X34265Y-47793D01*
X34294Y-47779D01*
X34308Y-47764D01*
X34322Y-47736D01*
X34322Y-47679D01*
X34308Y-47650D01*
X34294Y-47636D01*
X34265Y-47622D01*
X34494Y-47622D02*
X34465Y-47607D01*
X34451Y-47593D01*
X34437Y-47564D01*
X34437Y-47550D01*
X34451Y-47522D01*
X34465Y-47507D01*
X34494Y-47493D01*
X34551Y-47493D01*
X34579Y-47507D01*
X34594Y-47522D01*
X34608Y-47550D01*
X34608Y-47564D01*
X34594Y-47593D01*
X34579Y-47607D01*
X34551Y-47622D01*
X34494Y-47622D01*
X34465Y-47636D01*
X34451Y-47650D01*
X34437Y-47679D01*
X34437Y-47736D01*
X34451Y-47764D01*
X34465Y-47779D01*
X34494Y-47793D01*
X34551Y-47793D01*
X34579Y-47779D01*
X34594Y-47764D01*
X34608Y-47736D01*
X34608Y-47679D01*
X34594Y-47650D01*
X34579Y-47636D01*
X34551Y-47622D01*
X30322Y-47793D02*
X30322Y-47493D01*
X30393Y-47493D01*
X30436Y-47507D01*
X30465Y-47536D01*
X30479Y-47564D01*
X30493Y-47622D01*
X30493Y-47664D01*
X30479Y-47722D01*
X30465Y-47750D01*
X30436Y-47779D01*
X30393Y-47793D01*
X30322Y-47793D01*
X30665Y-47622D02*
X30636Y-47607D01*
X30622Y-47593D01*
X30608Y-47564D01*
X30608Y-47550D01*
X30622Y-47522D01*
X30636Y-47507D01*
X30665Y-47493D01*
X30722Y-47493D01*
X30750Y-47507D01*
X30765Y-47522D01*
X30779Y-47550D01*
X30779Y-47564D01*
X30765Y-47593D01*
X30750Y-47607D01*
X30722Y-47622D01*
X30665Y-47622D01*
X30636Y-47636D01*
X30622Y-47650D01*
X30608Y-47679D01*
X30608Y-47736D01*
X30622Y-47764D01*
X30636Y-47779D01*
X30665Y-47793D01*
X30722Y-47793D01*
X30750Y-47779D01*
X30765Y-47764D01*
X30779Y-47736D01*
X30779Y-47679D01*
X30765Y-47650D01*
X30750Y-47636D01*
X30722Y-47622D01*
X30879Y-47493D02*
X31079Y-47493D01*
X30950Y-47793D01*
X26779Y-47793D02*
X26779Y-47493D01*
X26850Y-47493D01*
X26893Y-47507D01*
X26921Y-47536D01*
X26936Y-47564D01*
X26950Y-47622D01*
X26950Y-47664D01*
X26936Y-47722D01*
X26921Y-47750D01*
X26893Y-47779D01*
X26850Y-47793D01*
X26779Y-47793D01*
X27121Y-47622D02*
X27093Y-47607D01*
X27079Y-47593D01*
X27064Y-47564D01*
X27064Y-47550D01*
X27079Y-47522D01*
X27093Y-47507D01*
X27121Y-47493D01*
X27179Y-47493D01*
X27207Y-47507D01*
X27221Y-47522D01*
X27236Y-47550D01*
X27236Y-47564D01*
X27221Y-47593D01*
X27207Y-47607D01*
X27179Y-47622D01*
X27121Y-47622D01*
X27093Y-47636D01*
X27079Y-47650D01*
X27064Y-47679D01*
X27064Y-47736D01*
X27079Y-47764D01*
X27093Y-47779D01*
X27121Y-47793D01*
X27179Y-47793D01*
X27207Y-47779D01*
X27221Y-47764D01*
X27236Y-47736D01*
X27236Y-47679D01*
X27221Y-47650D01*
X27207Y-47636D01*
X27179Y-47622D01*
X27493Y-47493D02*
X27436Y-47493D01*
X27407Y-47507D01*
X27393Y-47522D01*
X27364Y-47564D01*
X27350Y-47622D01*
X27350Y-47736D01*
X27364Y-47764D01*
X27379Y-47779D01*
X27407Y-47793D01*
X27464Y-47793D01*
X27493Y-47779D01*
X27507Y-47764D01*
X27521Y-47736D01*
X27521Y-47664D01*
X27507Y-47636D01*
X27493Y-47622D01*
X27464Y-47607D01*
X27407Y-47607D01*
X27379Y-47622D01*
X27364Y-47636D01*
X27350Y-47664D01*
X26779Y-44250D02*
X26779Y-43950D01*
X26850Y-43950D01*
X26893Y-43964D01*
X26921Y-43993D01*
X26936Y-44021D01*
X26950Y-44078D01*
X26950Y-44121D01*
X26936Y-44178D01*
X26921Y-44207D01*
X26893Y-44235D01*
X26850Y-44250D01*
X26779Y-44250D01*
X27050Y-43950D02*
X27250Y-43950D01*
X27121Y-44250D01*
X27493Y-44050D02*
X27493Y-44250D01*
X27421Y-43935D02*
X27350Y-44150D01*
X27536Y-44150D01*
X62212Y-44250D02*
X62212Y-43950D01*
X62283Y-43950D01*
X62326Y-43964D01*
X62354Y-43993D01*
X62369Y-44021D01*
X62383Y-44078D01*
X62383Y-44121D01*
X62369Y-44178D01*
X62354Y-44207D01*
X62326Y-44235D01*
X62283Y-44250D01*
X62212Y-44250D01*
X62554Y-44078D02*
X62526Y-44064D01*
X62512Y-44050D01*
X62497Y-44021D01*
X62497Y-44007D01*
X62512Y-43978D01*
X62526Y-43964D01*
X62554Y-43950D01*
X62612Y-43950D01*
X62640Y-43964D01*
X62654Y-43978D01*
X62669Y-44007D01*
X62669Y-44021D01*
X62654Y-44050D01*
X62640Y-44064D01*
X62612Y-44078D01*
X62554Y-44078D01*
X62526Y-44093D01*
X62512Y-44107D01*
X62497Y-44135D01*
X62497Y-44193D01*
X62512Y-44221D01*
X62526Y-44235D01*
X62554Y-44250D01*
X62612Y-44250D01*
X62640Y-44235D01*
X62654Y-44221D01*
X62669Y-44193D01*
X62669Y-44135D01*
X62654Y-44107D01*
X62640Y-44093D01*
X62612Y-44078D01*
X62926Y-44050D02*
X62926Y-44250D01*
X62854Y-43935D02*
X62783Y-44150D01*
X62969Y-44150D01*
X58668Y-44250D02*
X58668Y-43950D01*
X58740Y-43950D01*
X58783Y-43964D01*
X58811Y-43993D01*
X58825Y-44021D01*
X58840Y-44078D01*
X58840Y-44121D01*
X58825Y-44178D01*
X58811Y-44207D01*
X58783Y-44235D01*
X58740Y-44250D01*
X58668Y-44250D01*
X59011Y-44078D02*
X58983Y-44064D01*
X58968Y-44050D01*
X58954Y-44021D01*
X58954Y-44007D01*
X58968Y-43978D01*
X58983Y-43964D01*
X59011Y-43950D01*
X59068Y-43950D01*
X59097Y-43964D01*
X59111Y-43978D01*
X59125Y-44007D01*
X59125Y-44021D01*
X59111Y-44050D01*
X59097Y-44064D01*
X59068Y-44078D01*
X59011Y-44078D01*
X58983Y-44093D01*
X58968Y-44107D01*
X58954Y-44135D01*
X58954Y-44193D01*
X58968Y-44221D01*
X58983Y-44235D01*
X59011Y-44250D01*
X59068Y-44250D01*
X59097Y-44235D01*
X59111Y-44221D01*
X59125Y-44193D01*
X59125Y-44135D01*
X59111Y-44107D01*
X59097Y-44093D01*
X59068Y-44078D01*
X59225Y-43950D02*
X59411Y-43950D01*
X59311Y-44064D01*
X59354Y-44064D01*
X59383Y-44078D01*
X59397Y-44093D01*
X59411Y-44121D01*
X59411Y-44193D01*
X59397Y-44221D01*
X59383Y-44235D01*
X59354Y-44250D01*
X59268Y-44250D01*
X59240Y-44235D01*
X59225Y-44221D01*
X55125Y-44250D02*
X55125Y-43950D01*
X55196Y-43950D01*
X55239Y-43964D01*
X55268Y-43993D01*
X55282Y-44021D01*
X55296Y-44078D01*
X55296Y-44121D01*
X55282Y-44178D01*
X55268Y-44207D01*
X55239Y-44235D01*
X55196Y-44250D01*
X55125Y-44250D01*
X55468Y-44078D02*
X55439Y-44064D01*
X55425Y-44050D01*
X55411Y-44021D01*
X55411Y-44007D01*
X55425Y-43978D01*
X55439Y-43964D01*
X55468Y-43950D01*
X55525Y-43950D01*
X55554Y-43964D01*
X55568Y-43978D01*
X55582Y-44007D01*
X55582Y-44021D01*
X55568Y-44050D01*
X55554Y-44064D01*
X55525Y-44078D01*
X55468Y-44078D01*
X55439Y-44093D01*
X55425Y-44107D01*
X55411Y-44135D01*
X55411Y-44193D01*
X55425Y-44221D01*
X55439Y-44235D01*
X55468Y-44250D01*
X55525Y-44250D01*
X55554Y-44235D01*
X55568Y-44221D01*
X55582Y-44193D01*
X55582Y-44135D01*
X55568Y-44107D01*
X55554Y-44093D01*
X55525Y-44078D01*
X55696Y-43978D02*
X55711Y-43964D01*
X55739Y-43950D01*
X55811Y-43950D01*
X55839Y-43964D01*
X55854Y-43978D01*
X55868Y-44007D01*
X55868Y-44035D01*
X55854Y-44078D01*
X55682Y-44250D01*
X55868Y-44250D01*
X51582Y-44250D02*
X51582Y-43950D01*
X51653Y-43950D01*
X51696Y-43964D01*
X51725Y-43993D01*
X51739Y-44021D01*
X51753Y-44078D01*
X51753Y-44121D01*
X51739Y-44178D01*
X51725Y-44207D01*
X51696Y-44235D01*
X51653Y-44250D01*
X51582Y-44250D01*
X51925Y-44078D02*
X51896Y-44064D01*
X51882Y-44050D01*
X51867Y-44021D01*
X51867Y-44007D01*
X51882Y-43978D01*
X51896Y-43964D01*
X51925Y-43950D01*
X51982Y-43950D01*
X52010Y-43964D01*
X52025Y-43978D01*
X52039Y-44007D01*
X52039Y-44021D01*
X52025Y-44050D01*
X52010Y-44064D01*
X51982Y-44078D01*
X51925Y-44078D01*
X51896Y-44093D01*
X51882Y-44107D01*
X51867Y-44135D01*
X51867Y-44193D01*
X51882Y-44221D01*
X51896Y-44235D01*
X51925Y-44250D01*
X51982Y-44250D01*
X52010Y-44235D01*
X52025Y-44221D01*
X52039Y-44193D01*
X52039Y-44135D01*
X52025Y-44107D01*
X52010Y-44093D01*
X51982Y-44078D01*
X52325Y-44250D02*
X52153Y-44250D01*
X52239Y-44250D02*
X52239Y-43950D01*
X52210Y-43993D01*
X52182Y-44021D01*
X52153Y-44035D01*
X48038Y-44250D02*
X48038Y-43950D01*
X48110Y-43950D01*
X48153Y-43964D01*
X48181Y-43993D01*
X48196Y-44021D01*
X48210Y-44078D01*
X48210Y-44121D01*
X48196Y-44178D01*
X48181Y-44207D01*
X48153Y-44235D01*
X48110Y-44250D01*
X48038Y-44250D01*
X48381Y-44078D02*
X48353Y-44064D01*
X48338Y-44050D01*
X48324Y-44021D01*
X48324Y-44007D01*
X48338Y-43978D01*
X48353Y-43964D01*
X48381Y-43950D01*
X48438Y-43950D01*
X48467Y-43964D01*
X48481Y-43978D01*
X48496Y-44007D01*
X48496Y-44021D01*
X48481Y-44050D01*
X48467Y-44064D01*
X48438Y-44078D01*
X48381Y-44078D01*
X48353Y-44093D01*
X48338Y-44107D01*
X48324Y-44135D01*
X48324Y-44193D01*
X48338Y-44221D01*
X48353Y-44235D01*
X48381Y-44250D01*
X48438Y-44250D01*
X48467Y-44235D01*
X48481Y-44221D01*
X48496Y-44193D01*
X48496Y-44135D01*
X48481Y-44107D01*
X48467Y-44093D01*
X48438Y-44078D01*
X48681Y-43950D02*
X48710Y-43950D01*
X48738Y-43964D01*
X48753Y-43978D01*
X48767Y-44007D01*
X48781Y-44064D01*
X48781Y-44135D01*
X48767Y-44193D01*
X48753Y-44221D01*
X48738Y-44235D01*
X48710Y-44250D01*
X48681Y-44250D01*
X48653Y-44235D01*
X48638Y-44221D01*
X48624Y-44193D01*
X48610Y-44135D01*
X48610Y-44064D01*
X48624Y-44007D01*
X48638Y-43978D01*
X48653Y-43964D01*
X48681Y-43950D01*
X44495Y-44250D02*
X44495Y-43950D01*
X44566Y-43950D01*
X44609Y-43964D01*
X44638Y-43993D01*
X44652Y-44021D01*
X44666Y-44078D01*
X44666Y-44121D01*
X44652Y-44178D01*
X44638Y-44207D01*
X44609Y-44235D01*
X44566Y-44250D01*
X44495Y-44250D01*
X44766Y-43950D02*
X44966Y-43950D01*
X44838Y-44250D01*
X45095Y-44250D02*
X45152Y-44250D01*
X45181Y-44235D01*
X45195Y-44221D01*
X45224Y-44178D01*
X45238Y-44121D01*
X45238Y-44007D01*
X45224Y-43978D01*
X45209Y-43964D01*
X45181Y-43950D01*
X45124Y-43950D01*
X45095Y-43964D01*
X45081Y-43978D01*
X45066Y-44007D01*
X45066Y-44078D01*
X45081Y-44107D01*
X45095Y-44121D01*
X45124Y-44135D01*
X45181Y-44135D01*
X45209Y-44121D01*
X45224Y-44107D01*
X45238Y-44078D01*
X40952Y-44250D02*
X40952Y-43950D01*
X41023Y-43950D01*
X41066Y-43964D01*
X41095Y-43993D01*
X41109Y-44021D01*
X41123Y-44078D01*
X41123Y-44121D01*
X41109Y-44178D01*
X41095Y-44207D01*
X41066Y-44235D01*
X41023Y-44250D01*
X40952Y-44250D01*
X41223Y-43950D02*
X41423Y-43950D01*
X41295Y-44250D01*
X41580Y-44078D02*
X41552Y-44064D01*
X41537Y-44050D01*
X41523Y-44021D01*
X41523Y-44007D01*
X41537Y-43978D01*
X41552Y-43964D01*
X41580Y-43950D01*
X41637Y-43950D01*
X41666Y-43964D01*
X41680Y-43978D01*
X41695Y-44007D01*
X41695Y-44021D01*
X41680Y-44050D01*
X41666Y-44064D01*
X41637Y-44078D01*
X41580Y-44078D01*
X41552Y-44093D01*
X41537Y-44107D01*
X41523Y-44135D01*
X41523Y-44193D01*
X41537Y-44221D01*
X41552Y-44235D01*
X41580Y-44250D01*
X41637Y-44250D01*
X41666Y-44235D01*
X41680Y-44221D01*
X41695Y-44193D01*
X41695Y-44135D01*
X41680Y-44107D01*
X41666Y-44093D01*
X41637Y-44078D01*
X37408Y-44250D02*
X37408Y-43950D01*
X37480Y-43950D01*
X37523Y-43964D01*
X37551Y-43993D01*
X37566Y-44021D01*
X37580Y-44078D01*
X37580Y-44121D01*
X37566Y-44178D01*
X37551Y-44207D01*
X37523Y-44235D01*
X37480Y-44250D01*
X37408Y-44250D01*
X37680Y-43950D02*
X37880Y-43950D01*
X37751Y-44250D01*
X37966Y-43950D02*
X38166Y-43950D01*
X38037Y-44250D01*
X33865Y-44250D02*
X33865Y-43950D01*
X33937Y-43950D01*
X33979Y-43964D01*
X34008Y-43993D01*
X34022Y-44021D01*
X34037Y-44078D01*
X34037Y-44121D01*
X34022Y-44178D01*
X34008Y-44207D01*
X33979Y-44235D01*
X33937Y-44250D01*
X33865Y-44250D01*
X34137Y-43950D02*
X34337Y-43950D01*
X34208Y-44250D01*
X34579Y-43950D02*
X34522Y-43950D01*
X34494Y-43964D01*
X34479Y-43978D01*
X34451Y-44021D01*
X34437Y-44078D01*
X34437Y-44193D01*
X34451Y-44221D01*
X34465Y-44235D01*
X34494Y-44250D01*
X34551Y-44250D01*
X34579Y-44235D01*
X34594Y-44221D01*
X34608Y-44193D01*
X34608Y-44121D01*
X34594Y-44093D01*
X34579Y-44078D01*
X34551Y-44064D01*
X34494Y-44064D01*
X34465Y-44078D01*
X34451Y-44093D01*
X34437Y-44121D01*
X30322Y-44250D02*
X30322Y-43950D01*
X30393Y-43950D01*
X30436Y-43964D01*
X30465Y-43993D01*
X30479Y-44021D01*
X30493Y-44078D01*
X30493Y-44121D01*
X30479Y-44178D01*
X30465Y-44207D01*
X30436Y-44235D01*
X30393Y-44250D01*
X30322Y-44250D01*
X30593Y-43950D02*
X30793Y-43950D01*
X30665Y-44250D01*
X31050Y-43950D02*
X30908Y-43950D01*
X30893Y-44093D01*
X30908Y-44078D01*
X30936Y-44064D01*
X31008Y-44064D01*
X31036Y-44078D01*
X31050Y-44093D01*
X31065Y-44121D01*
X31065Y-44193D01*
X31050Y-44221D01*
X31036Y-44235D01*
X31008Y-44250D01*
X30936Y-44250D01*
X30908Y-44235D01*
X30893Y-44221D01*
X23235Y-26533D02*
X23235Y-26233D01*
X23307Y-26233D01*
X23350Y-26247D01*
X23378Y-26276D01*
X23392Y-26305D01*
X23407Y-26362D01*
X23407Y-26405D01*
X23392Y-26462D01*
X23378Y-26490D01*
X23350Y-26519D01*
X23307Y-26533D01*
X23235Y-26533D01*
X23692Y-26533D02*
X23521Y-26533D01*
X23607Y-26533D02*
X23607Y-26233D01*
X23578Y-26276D01*
X23550Y-26305D01*
X23521Y-26319D01*
X23792Y-26233D02*
X23978Y-26233D01*
X23878Y-26347D01*
X23921Y-26347D01*
X23950Y-26362D01*
X23964Y-26376D01*
X23978Y-26405D01*
X23978Y-26476D01*
X23964Y-26505D01*
X23950Y-26519D01*
X23921Y-26533D01*
X23835Y-26533D01*
X23807Y-26519D01*
X23792Y-26505D01*
X23235Y-30076D02*
X23235Y-29776D01*
X23307Y-29776D01*
X23350Y-29791D01*
X23378Y-29819D01*
X23392Y-29848D01*
X23407Y-29905D01*
X23407Y-29948D01*
X23392Y-30005D01*
X23378Y-30034D01*
X23350Y-30062D01*
X23307Y-30076D01*
X23235Y-30076D01*
X23521Y-29805D02*
X23535Y-29791D01*
X23564Y-29776D01*
X23635Y-29776D01*
X23664Y-29791D01*
X23678Y-29805D01*
X23692Y-29834D01*
X23692Y-29862D01*
X23678Y-29905D01*
X23507Y-30076D01*
X23692Y-30076D01*
X23964Y-29776D02*
X23821Y-29776D01*
X23807Y-29919D01*
X23821Y-29905D01*
X23850Y-29891D01*
X23921Y-29891D01*
X23950Y-29905D01*
X23964Y-29919D01*
X23978Y-29948D01*
X23978Y-30019D01*
X23964Y-30048D01*
X23950Y-30062D01*
X23921Y-30076D01*
X23850Y-30076D01*
X23821Y-30062D01*
X23807Y-30048D01*
X62212Y-26533D02*
X62212Y-26233D01*
X62283Y-26233D01*
X62326Y-26247D01*
X62354Y-26276D01*
X62369Y-26305D01*
X62383Y-26362D01*
X62383Y-26405D01*
X62369Y-26462D01*
X62354Y-26490D01*
X62326Y-26519D01*
X62283Y-26533D01*
X62212Y-26533D01*
X62497Y-26262D02*
X62512Y-26247D01*
X62540Y-26233D01*
X62612Y-26233D01*
X62640Y-26247D01*
X62654Y-26262D01*
X62669Y-26290D01*
X62669Y-26319D01*
X62654Y-26362D01*
X62483Y-26533D01*
X62669Y-26533D01*
X62926Y-26333D02*
X62926Y-26533D01*
X62854Y-26219D02*
X62783Y-26433D01*
X62969Y-26433D01*
X58668Y-26533D02*
X58668Y-26233D01*
X58740Y-26233D01*
X58783Y-26247D01*
X58811Y-26276D01*
X58825Y-26305D01*
X58840Y-26362D01*
X58840Y-26405D01*
X58825Y-26462D01*
X58811Y-26490D01*
X58783Y-26519D01*
X58740Y-26533D01*
X58668Y-26533D01*
X58954Y-26262D02*
X58968Y-26247D01*
X58997Y-26233D01*
X59068Y-26233D01*
X59097Y-26247D01*
X59111Y-26262D01*
X59125Y-26290D01*
X59125Y-26319D01*
X59111Y-26362D01*
X58940Y-26533D01*
X59125Y-26533D01*
X59225Y-26233D02*
X59411Y-26233D01*
X59311Y-26347D01*
X59354Y-26347D01*
X59383Y-26362D01*
X59397Y-26376D01*
X59411Y-26405D01*
X59411Y-26476D01*
X59397Y-26505D01*
X59383Y-26519D01*
X59354Y-26533D01*
X59268Y-26533D01*
X59240Y-26519D01*
X59225Y-26505D01*
X55125Y-26533D02*
X55125Y-26233D01*
X55196Y-26233D01*
X55239Y-26247D01*
X55268Y-26276D01*
X55282Y-26305D01*
X55296Y-26362D01*
X55296Y-26405D01*
X55282Y-26462D01*
X55268Y-26490D01*
X55239Y-26519D01*
X55196Y-26533D01*
X55125Y-26533D01*
X55411Y-26262D02*
X55425Y-26247D01*
X55454Y-26233D01*
X55525Y-26233D01*
X55554Y-26247D01*
X55568Y-26262D01*
X55582Y-26290D01*
X55582Y-26319D01*
X55568Y-26362D01*
X55396Y-26533D01*
X55582Y-26533D01*
X55696Y-26262D02*
X55711Y-26247D01*
X55739Y-26233D01*
X55811Y-26233D01*
X55839Y-26247D01*
X55854Y-26262D01*
X55868Y-26290D01*
X55868Y-26319D01*
X55854Y-26362D01*
X55682Y-26533D01*
X55868Y-26533D01*
X51582Y-26533D02*
X51582Y-26233D01*
X51653Y-26233D01*
X51696Y-26247D01*
X51725Y-26276D01*
X51739Y-26305D01*
X51753Y-26362D01*
X51753Y-26405D01*
X51739Y-26462D01*
X51725Y-26490D01*
X51696Y-26519D01*
X51653Y-26533D01*
X51582Y-26533D01*
X51867Y-26262D02*
X51882Y-26247D01*
X51910Y-26233D01*
X51982Y-26233D01*
X52010Y-26247D01*
X52025Y-26262D01*
X52039Y-26290D01*
X52039Y-26319D01*
X52025Y-26362D01*
X51853Y-26533D01*
X52039Y-26533D01*
X52325Y-26533D02*
X52153Y-26533D01*
X52239Y-26533D02*
X52239Y-26233D01*
X52210Y-26276D01*
X52182Y-26305D01*
X52153Y-26319D01*
X48038Y-26533D02*
X48038Y-26233D01*
X48110Y-26233D01*
X48153Y-26247D01*
X48181Y-26276D01*
X48196Y-26305D01*
X48210Y-26362D01*
X48210Y-26405D01*
X48196Y-26462D01*
X48181Y-26490D01*
X48153Y-26519D01*
X48110Y-26533D01*
X48038Y-26533D01*
X48324Y-26262D02*
X48338Y-26247D01*
X48367Y-26233D01*
X48438Y-26233D01*
X48467Y-26247D01*
X48481Y-26262D01*
X48496Y-26290D01*
X48496Y-26319D01*
X48481Y-26362D01*
X48310Y-26533D01*
X48496Y-26533D01*
X48681Y-26233D02*
X48710Y-26233D01*
X48738Y-26247D01*
X48753Y-26262D01*
X48767Y-26290D01*
X48781Y-26347D01*
X48781Y-26419D01*
X48767Y-26476D01*
X48753Y-26505D01*
X48738Y-26519D01*
X48710Y-26533D01*
X48681Y-26533D01*
X48653Y-26519D01*
X48638Y-26505D01*
X48624Y-26476D01*
X48610Y-26419D01*
X48610Y-26347D01*
X48624Y-26290D01*
X48638Y-26262D01*
X48653Y-26247D01*
X48681Y-26233D01*
X44495Y-26533D02*
X44495Y-26233D01*
X44566Y-26233D01*
X44609Y-26247D01*
X44638Y-26276D01*
X44652Y-26305D01*
X44666Y-26362D01*
X44666Y-26405D01*
X44652Y-26462D01*
X44638Y-26490D01*
X44609Y-26519D01*
X44566Y-26533D01*
X44495Y-26533D01*
X44952Y-26533D02*
X44781Y-26533D01*
X44866Y-26533D02*
X44866Y-26233D01*
X44838Y-26276D01*
X44809Y-26305D01*
X44781Y-26319D01*
X45095Y-26533D02*
X45152Y-26533D01*
X45181Y-26519D01*
X45195Y-26505D01*
X45224Y-26462D01*
X45238Y-26405D01*
X45238Y-26290D01*
X45224Y-26262D01*
X45209Y-26247D01*
X45181Y-26233D01*
X45124Y-26233D01*
X45095Y-26247D01*
X45081Y-26262D01*
X45066Y-26290D01*
X45066Y-26362D01*
X45081Y-26390D01*
X45095Y-26405D01*
X45124Y-26419D01*
X45181Y-26419D01*
X45209Y-26405D01*
X45224Y-26390D01*
X45238Y-26362D01*
X40952Y-26533D02*
X40952Y-26233D01*
X41023Y-26233D01*
X41066Y-26247D01*
X41095Y-26276D01*
X41109Y-26305D01*
X41123Y-26362D01*
X41123Y-26405D01*
X41109Y-26462D01*
X41095Y-26490D01*
X41066Y-26519D01*
X41023Y-26533D01*
X40952Y-26533D01*
X41409Y-26533D02*
X41237Y-26533D01*
X41323Y-26533D02*
X41323Y-26233D01*
X41295Y-26276D01*
X41266Y-26305D01*
X41237Y-26319D01*
X41580Y-26362D02*
X41552Y-26347D01*
X41537Y-26333D01*
X41523Y-26305D01*
X41523Y-26290D01*
X41537Y-26262D01*
X41552Y-26247D01*
X41580Y-26233D01*
X41637Y-26233D01*
X41666Y-26247D01*
X41680Y-26262D01*
X41695Y-26290D01*
X41695Y-26305D01*
X41680Y-26333D01*
X41666Y-26347D01*
X41637Y-26362D01*
X41580Y-26362D01*
X41552Y-26376D01*
X41537Y-26390D01*
X41523Y-26419D01*
X41523Y-26476D01*
X41537Y-26505D01*
X41552Y-26519D01*
X41580Y-26533D01*
X41637Y-26533D01*
X41666Y-26519D01*
X41680Y-26505D01*
X41695Y-26476D01*
X41695Y-26419D01*
X41680Y-26390D01*
X41666Y-26376D01*
X41637Y-26362D01*
X37408Y-26533D02*
X37408Y-26233D01*
X37480Y-26233D01*
X37523Y-26247D01*
X37551Y-26276D01*
X37566Y-26305D01*
X37580Y-26362D01*
X37580Y-26405D01*
X37566Y-26462D01*
X37551Y-26490D01*
X37523Y-26519D01*
X37480Y-26533D01*
X37408Y-26533D01*
X37866Y-26533D02*
X37694Y-26533D01*
X37780Y-26533D02*
X37780Y-26233D01*
X37751Y-26276D01*
X37723Y-26305D01*
X37694Y-26319D01*
X37966Y-26233D02*
X38166Y-26233D01*
X38037Y-26533D01*
X33865Y-26533D02*
X33865Y-26233D01*
X33937Y-26233D01*
X33979Y-26247D01*
X34008Y-26276D01*
X34022Y-26305D01*
X34037Y-26362D01*
X34037Y-26405D01*
X34022Y-26462D01*
X34008Y-26490D01*
X33979Y-26519D01*
X33937Y-26533D01*
X33865Y-26533D01*
X34322Y-26533D02*
X34151Y-26533D01*
X34237Y-26533D02*
X34237Y-26233D01*
X34208Y-26276D01*
X34179Y-26305D01*
X34151Y-26319D01*
X34579Y-26233D02*
X34522Y-26233D01*
X34494Y-26247D01*
X34479Y-26262D01*
X34451Y-26305D01*
X34437Y-26362D01*
X34437Y-26476D01*
X34451Y-26505D01*
X34465Y-26519D01*
X34494Y-26533D01*
X34551Y-26533D01*
X34579Y-26519D01*
X34594Y-26505D01*
X34608Y-26476D01*
X34608Y-26405D01*
X34594Y-26376D01*
X34579Y-26362D01*
X34551Y-26347D01*
X34494Y-26347D01*
X34465Y-26362D01*
X34451Y-26376D01*
X34437Y-26405D01*
X30322Y-26533D02*
X30322Y-26233D01*
X30393Y-26233D01*
X30436Y-26247D01*
X30465Y-26276D01*
X30479Y-26305D01*
X30493Y-26362D01*
X30493Y-26405D01*
X30479Y-26462D01*
X30465Y-26490D01*
X30436Y-26519D01*
X30393Y-26533D01*
X30322Y-26533D01*
X30779Y-26533D02*
X30608Y-26533D01*
X30693Y-26533D02*
X30693Y-26233D01*
X30665Y-26276D01*
X30636Y-26305D01*
X30608Y-26319D01*
X31050Y-26233D02*
X30908Y-26233D01*
X30893Y-26376D01*
X30908Y-26362D01*
X30936Y-26347D01*
X31008Y-26347D01*
X31036Y-26362D01*
X31050Y-26376D01*
X31065Y-26405D01*
X31065Y-26476D01*
X31050Y-26505D01*
X31036Y-26519D01*
X31008Y-26533D01*
X30936Y-26533D01*
X30908Y-26519D01*
X30893Y-26505D01*
X26779Y-26533D02*
X26779Y-26233D01*
X26850Y-26233D01*
X26893Y-26247D01*
X26921Y-26276D01*
X26936Y-26305D01*
X26950Y-26362D01*
X26950Y-26405D01*
X26936Y-26462D01*
X26921Y-26490D01*
X26893Y-26519D01*
X26850Y-26533D01*
X26779Y-26533D01*
X27236Y-26533D02*
X27064Y-26533D01*
X27150Y-26533D02*
X27150Y-26233D01*
X27121Y-26276D01*
X27093Y-26305D01*
X27064Y-26319D01*
X27493Y-26333D02*
X27493Y-26533D01*
X27421Y-26219D02*
X27350Y-26433D01*
X27536Y-26433D01*
X26779Y-30076D02*
X26779Y-29776D01*
X26850Y-29776D01*
X26893Y-29791D01*
X26921Y-29819D01*
X26936Y-29848D01*
X26950Y-29905D01*
X26950Y-29948D01*
X26936Y-30005D01*
X26921Y-30034D01*
X26893Y-30062D01*
X26850Y-30076D01*
X26779Y-30076D01*
X27064Y-29805D02*
X27079Y-29791D01*
X27107Y-29776D01*
X27179Y-29776D01*
X27207Y-29791D01*
X27221Y-29805D01*
X27236Y-29834D01*
X27236Y-29862D01*
X27221Y-29905D01*
X27050Y-30076D01*
X27236Y-30076D01*
X27493Y-29776D02*
X27436Y-29776D01*
X27407Y-29791D01*
X27393Y-29805D01*
X27364Y-29848D01*
X27350Y-29905D01*
X27350Y-30019D01*
X27364Y-30048D01*
X27379Y-30062D01*
X27407Y-30076D01*
X27464Y-30076D01*
X27493Y-30062D01*
X27507Y-30048D01*
X27521Y-30019D01*
X27521Y-29948D01*
X27507Y-29919D01*
X27493Y-29905D01*
X27464Y-29891D01*
X27407Y-29891D01*
X27379Y-29905D01*
X27364Y-29919D01*
X27350Y-29948D01*
X62212Y-22990D02*
X62212Y-22690D01*
X62283Y-22690D01*
X62326Y-22704D01*
X62354Y-22733D01*
X62369Y-22761D01*
X62383Y-22818D01*
X62383Y-22861D01*
X62369Y-22918D01*
X62354Y-22947D01*
X62326Y-22976D01*
X62283Y-22990D01*
X62212Y-22990D01*
X62669Y-22990D02*
X62497Y-22990D01*
X62583Y-22990D02*
X62583Y-22690D01*
X62554Y-22733D01*
X62526Y-22761D01*
X62497Y-22776D01*
X62783Y-22718D02*
X62797Y-22704D01*
X62826Y-22690D01*
X62897Y-22690D01*
X62926Y-22704D01*
X62940Y-22718D01*
X62954Y-22747D01*
X62954Y-22776D01*
X62940Y-22818D01*
X62769Y-22990D01*
X62954Y-22990D01*
X58668Y-22990D02*
X58668Y-22690D01*
X58740Y-22690D01*
X58783Y-22704D01*
X58811Y-22733D01*
X58825Y-22761D01*
X58840Y-22818D01*
X58840Y-22861D01*
X58825Y-22918D01*
X58811Y-22947D01*
X58783Y-22976D01*
X58740Y-22990D01*
X58668Y-22990D01*
X59125Y-22990D02*
X58954Y-22990D01*
X59040Y-22990D02*
X59040Y-22690D01*
X59011Y-22733D01*
X58983Y-22761D01*
X58954Y-22776D01*
X59411Y-22990D02*
X59240Y-22990D01*
X59325Y-22990D02*
X59325Y-22690D01*
X59297Y-22733D01*
X59268Y-22761D01*
X59240Y-22776D01*
X55125Y-22990D02*
X55125Y-22690D01*
X55196Y-22690D01*
X55239Y-22704D01*
X55268Y-22733D01*
X55282Y-22761D01*
X55296Y-22818D01*
X55296Y-22861D01*
X55282Y-22918D01*
X55268Y-22947D01*
X55239Y-22976D01*
X55196Y-22990D01*
X55125Y-22990D01*
X55582Y-22990D02*
X55411Y-22990D01*
X55496Y-22990D02*
X55496Y-22690D01*
X55468Y-22733D01*
X55439Y-22761D01*
X55411Y-22776D01*
X55768Y-22690D02*
X55796Y-22690D01*
X55825Y-22704D01*
X55839Y-22718D01*
X55854Y-22747D01*
X55868Y-22804D01*
X55868Y-22876D01*
X55854Y-22933D01*
X55839Y-22961D01*
X55825Y-22976D01*
X55796Y-22990D01*
X55768Y-22990D01*
X55739Y-22976D01*
X55725Y-22961D01*
X55711Y-22933D01*
X55696Y-22876D01*
X55696Y-22804D01*
X55711Y-22747D01*
X55725Y-22718D01*
X55739Y-22704D01*
X55768Y-22690D01*
X51725Y-22990D02*
X51725Y-22690D01*
X51796Y-22690D01*
X51839Y-22704D01*
X51867Y-22733D01*
X51882Y-22761D01*
X51896Y-22818D01*
X51896Y-22861D01*
X51882Y-22918D01*
X51867Y-22947D01*
X51839Y-22976D01*
X51796Y-22990D01*
X51725Y-22990D01*
X52039Y-22990D02*
X52096Y-22990D01*
X52125Y-22976D01*
X52139Y-22961D01*
X52167Y-22918D01*
X52182Y-22861D01*
X52182Y-22747D01*
X52167Y-22718D01*
X52153Y-22704D01*
X52125Y-22690D01*
X52067Y-22690D01*
X52039Y-22704D01*
X52025Y-22718D01*
X52010Y-22747D01*
X52010Y-22818D01*
X52025Y-22847D01*
X52039Y-22861D01*
X52067Y-22876D01*
X52125Y-22876D01*
X52153Y-22861D01*
X52167Y-22847D01*
X52182Y-22818D01*
X48181Y-22990D02*
X48181Y-22690D01*
X48253Y-22690D01*
X48296Y-22704D01*
X48324Y-22733D01*
X48338Y-22761D01*
X48353Y-22818D01*
X48353Y-22861D01*
X48338Y-22918D01*
X48324Y-22947D01*
X48296Y-22976D01*
X48253Y-22990D01*
X48181Y-22990D01*
X48524Y-22818D02*
X48496Y-22804D01*
X48481Y-22790D01*
X48467Y-22761D01*
X48467Y-22747D01*
X48481Y-22718D01*
X48496Y-22704D01*
X48524Y-22690D01*
X48581Y-22690D01*
X48610Y-22704D01*
X48624Y-22718D01*
X48638Y-22747D01*
X48638Y-22761D01*
X48624Y-22790D01*
X48610Y-22804D01*
X48581Y-22818D01*
X48524Y-22818D01*
X48496Y-22833D01*
X48481Y-22847D01*
X48467Y-22876D01*
X48467Y-22933D01*
X48481Y-22961D01*
X48496Y-22976D01*
X48524Y-22990D01*
X48581Y-22990D01*
X48610Y-22976D01*
X48624Y-22961D01*
X48638Y-22933D01*
X48638Y-22876D01*
X48624Y-22847D01*
X48610Y-22833D01*
X48581Y-22818D01*
X44638Y-22990D02*
X44638Y-22690D01*
X44709Y-22690D01*
X44752Y-22704D01*
X44781Y-22733D01*
X44795Y-22761D01*
X44809Y-22818D01*
X44809Y-22861D01*
X44795Y-22918D01*
X44781Y-22947D01*
X44752Y-22976D01*
X44709Y-22990D01*
X44638Y-22990D01*
X44909Y-22690D02*
X45109Y-22690D01*
X44981Y-22990D01*
X41095Y-22990D02*
X41095Y-22690D01*
X41166Y-22690D01*
X41209Y-22704D01*
X41237Y-22733D01*
X41252Y-22761D01*
X41266Y-22818D01*
X41266Y-22861D01*
X41252Y-22918D01*
X41237Y-22947D01*
X41209Y-22976D01*
X41166Y-22990D01*
X41095Y-22990D01*
X41523Y-22690D02*
X41466Y-22690D01*
X41437Y-22704D01*
X41423Y-22718D01*
X41395Y-22761D01*
X41380Y-22818D01*
X41380Y-22933D01*
X41395Y-22961D01*
X41409Y-22976D01*
X41437Y-22990D01*
X41495Y-22990D01*
X41523Y-22976D01*
X41537Y-22961D01*
X41552Y-22933D01*
X41552Y-22861D01*
X41537Y-22833D01*
X41523Y-22818D01*
X41495Y-22804D01*
X41437Y-22804D01*
X41409Y-22818D01*
X41395Y-22833D01*
X41380Y-22861D01*
X37551Y-22990D02*
X37551Y-22690D01*
X37623Y-22690D01*
X37666Y-22704D01*
X37694Y-22733D01*
X37708Y-22761D01*
X37723Y-22818D01*
X37723Y-22861D01*
X37708Y-22918D01*
X37694Y-22947D01*
X37666Y-22976D01*
X37623Y-22990D01*
X37551Y-22990D01*
X37994Y-22690D02*
X37851Y-22690D01*
X37837Y-22833D01*
X37851Y-22818D01*
X37880Y-22804D01*
X37951Y-22804D01*
X37980Y-22818D01*
X37994Y-22833D01*
X38008Y-22861D01*
X38008Y-22933D01*
X37994Y-22961D01*
X37980Y-22976D01*
X37951Y-22990D01*
X37880Y-22990D01*
X37851Y-22976D01*
X37837Y-22961D01*
X34008Y-22990D02*
X34008Y-22690D01*
X34079Y-22690D01*
X34122Y-22704D01*
X34151Y-22733D01*
X34165Y-22761D01*
X34179Y-22818D01*
X34179Y-22861D01*
X34165Y-22918D01*
X34151Y-22947D01*
X34122Y-22976D01*
X34079Y-22990D01*
X34008Y-22990D01*
X34437Y-22790D02*
X34437Y-22990D01*
X34365Y-22676D02*
X34294Y-22890D01*
X34479Y-22890D01*
X30465Y-22990D02*
X30465Y-22690D01*
X30536Y-22690D01*
X30579Y-22704D01*
X30608Y-22733D01*
X30622Y-22761D01*
X30636Y-22818D01*
X30636Y-22861D01*
X30622Y-22918D01*
X30608Y-22947D01*
X30579Y-22976D01*
X30536Y-22990D01*
X30465Y-22990D01*
X30736Y-22690D02*
X30922Y-22690D01*
X30822Y-22804D01*
X30865Y-22804D01*
X30893Y-22818D01*
X30908Y-22833D01*
X30922Y-22861D01*
X30922Y-22933D01*
X30908Y-22961D01*
X30893Y-22976D01*
X30865Y-22990D01*
X30779Y-22990D01*
X30750Y-22976D01*
X30736Y-22961D01*
X26921Y-22990D02*
X26921Y-22690D01*
X26993Y-22690D01*
X27036Y-22704D01*
X27064Y-22733D01*
X27079Y-22761D01*
X27093Y-22818D01*
X27093Y-22861D01*
X27079Y-22918D01*
X27064Y-22947D01*
X27036Y-22976D01*
X26993Y-22990D01*
X26921Y-22990D01*
X27207Y-22718D02*
X27221Y-22704D01*
X27250Y-22690D01*
X27321Y-22690D01*
X27350Y-22704D01*
X27364Y-22718D01*
X27379Y-22747D01*
X27379Y-22776D01*
X27364Y-22818D01*
X27193Y-22990D01*
X27379Y-22990D01*
X26779Y-33620D02*
X26779Y-33320D01*
X26850Y-33320D01*
X26893Y-33334D01*
X26921Y-33363D01*
X26936Y-33391D01*
X26950Y-33448D01*
X26950Y-33491D01*
X26936Y-33548D01*
X26921Y-33577D01*
X26893Y-33605D01*
X26850Y-33620D01*
X26779Y-33620D01*
X27050Y-33320D02*
X27236Y-33320D01*
X27136Y-33434D01*
X27179Y-33434D01*
X27207Y-33448D01*
X27221Y-33463D01*
X27236Y-33491D01*
X27236Y-33563D01*
X27221Y-33591D01*
X27207Y-33605D01*
X27179Y-33620D01*
X27093Y-33620D01*
X27064Y-33605D01*
X27050Y-33591D01*
X27407Y-33448D02*
X27379Y-33434D01*
X27364Y-33420D01*
X27350Y-33391D01*
X27350Y-33377D01*
X27364Y-33348D01*
X27379Y-33334D01*
X27407Y-33320D01*
X27464Y-33320D01*
X27493Y-33334D01*
X27507Y-33348D01*
X27521Y-33377D01*
X27521Y-33391D01*
X27507Y-33420D01*
X27493Y-33434D01*
X27464Y-33448D01*
X27407Y-33448D01*
X27379Y-33463D01*
X27364Y-33477D01*
X27350Y-33505D01*
X27350Y-33563D01*
X27364Y-33591D01*
X27379Y-33605D01*
X27407Y-33620D01*
X27464Y-33620D01*
X27493Y-33605D01*
X27507Y-33591D01*
X27521Y-33563D01*
X27521Y-33505D01*
X27507Y-33477D01*
X27493Y-33463D01*
X27464Y-33448D01*
X26779Y-37163D02*
X26779Y-36863D01*
X26850Y-36863D01*
X26893Y-36877D01*
X26921Y-36906D01*
X26936Y-36934D01*
X26950Y-36992D01*
X26950Y-37034D01*
X26936Y-37092D01*
X26921Y-37120D01*
X26893Y-37149D01*
X26850Y-37163D01*
X26779Y-37163D01*
X27221Y-36863D02*
X27079Y-36863D01*
X27064Y-37006D01*
X27079Y-36992D01*
X27107Y-36977D01*
X27179Y-36977D01*
X27207Y-36992D01*
X27221Y-37006D01*
X27236Y-37034D01*
X27236Y-37106D01*
X27221Y-37134D01*
X27207Y-37149D01*
X27179Y-37163D01*
X27107Y-37163D01*
X27079Y-37149D01*
X27064Y-37134D01*
X27421Y-36863D02*
X27450Y-36863D01*
X27479Y-36877D01*
X27493Y-36892D01*
X27507Y-36920D01*
X27521Y-36977D01*
X27521Y-37049D01*
X27507Y-37106D01*
X27493Y-37134D01*
X27479Y-37149D01*
X27450Y-37163D01*
X27421Y-37163D01*
X27393Y-37149D01*
X27379Y-37134D01*
X27364Y-37106D01*
X27350Y-37049D01*
X27350Y-36977D01*
X27364Y-36920D01*
X27379Y-36892D01*
X27393Y-36877D01*
X27421Y-36863D01*
X23235Y-37163D02*
X23235Y-36863D01*
X23307Y-36863D01*
X23350Y-36877D01*
X23378Y-36906D01*
X23392Y-36934D01*
X23407Y-36992D01*
X23407Y-37034D01*
X23392Y-37092D01*
X23378Y-37120D01*
X23350Y-37149D01*
X23307Y-37163D01*
X23235Y-37163D01*
X23664Y-36963D02*
X23664Y-37163D01*
X23592Y-36849D02*
X23521Y-37063D01*
X23707Y-37063D01*
X23835Y-37163D02*
X23892Y-37163D01*
X23921Y-37149D01*
X23935Y-37134D01*
X23964Y-37092D01*
X23978Y-37034D01*
X23978Y-36920D01*
X23964Y-36892D01*
X23950Y-36877D01*
X23921Y-36863D01*
X23864Y-36863D01*
X23835Y-36877D01*
X23821Y-36892D01*
X23807Y-36920D01*
X23807Y-36992D01*
X23821Y-37020D01*
X23835Y-37034D01*
X23864Y-37049D01*
X23921Y-37049D01*
X23950Y-37034D01*
X23964Y-37020D01*
X23978Y-36992D01*
X62212Y-33620D02*
X62212Y-33320D01*
X62283Y-33320D01*
X62326Y-33334D01*
X62354Y-33363D01*
X62369Y-33391D01*
X62383Y-33448D01*
X62383Y-33491D01*
X62369Y-33548D01*
X62354Y-33577D01*
X62326Y-33605D01*
X62283Y-33620D01*
X62212Y-33620D01*
X62640Y-33420D02*
X62640Y-33620D01*
X62569Y-33305D02*
X62497Y-33520D01*
X62683Y-33520D01*
X62840Y-33448D02*
X62812Y-33434D01*
X62797Y-33420D01*
X62783Y-33391D01*
X62783Y-33377D01*
X62797Y-33348D01*
X62812Y-33334D01*
X62840Y-33320D01*
X62897Y-33320D01*
X62926Y-33334D01*
X62940Y-33348D01*
X62954Y-33377D01*
X62954Y-33391D01*
X62940Y-33420D01*
X62926Y-33434D01*
X62897Y-33448D01*
X62840Y-33448D01*
X62812Y-33463D01*
X62797Y-33477D01*
X62783Y-33505D01*
X62783Y-33563D01*
X62797Y-33591D01*
X62812Y-33605D01*
X62840Y-33620D01*
X62897Y-33620D01*
X62926Y-33605D01*
X62940Y-33591D01*
X62954Y-33563D01*
X62954Y-33505D01*
X62940Y-33477D01*
X62926Y-33463D01*
X62897Y-33448D01*
X58668Y-33620D02*
X58668Y-33320D01*
X58740Y-33320D01*
X58783Y-33334D01*
X58811Y-33363D01*
X58825Y-33391D01*
X58840Y-33448D01*
X58840Y-33491D01*
X58825Y-33548D01*
X58811Y-33577D01*
X58783Y-33605D01*
X58740Y-33620D01*
X58668Y-33620D01*
X59097Y-33420D02*
X59097Y-33620D01*
X59025Y-33305D02*
X58954Y-33520D01*
X59140Y-33520D01*
X59225Y-33320D02*
X59425Y-33320D01*
X59297Y-33620D01*
X55125Y-33620D02*
X55125Y-33320D01*
X55196Y-33320D01*
X55239Y-33334D01*
X55268Y-33363D01*
X55282Y-33391D01*
X55296Y-33448D01*
X55296Y-33491D01*
X55282Y-33548D01*
X55268Y-33577D01*
X55239Y-33605D01*
X55196Y-33620D01*
X55125Y-33620D01*
X55554Y-33420D02*
X55554Y-33620D01*
X55482Y-33305D02*
X55411Y-33520D01*
X55596Y-33520D01*
X55839Y-33320D02*
X55782Y-33320D01*
X55754Y-33334D01*
X55739Y-33348D01*
X55711Y-33391D01*
X55696Y-33448D01*
X55696Y-33563D01*
X55711Y-33591D01*
X55725Y-33605D01*
X55754Y-33620D01*
X55811Y-33620D01*
X55839Y-33605D01*
X55854Y-33591D01*
X55868Y-33563D01*
X55868Y-33491D01*
X55854Y-33463D01*
X55839Y-33448D01*
X55811Y-33434D01*
X55754Y-33434D01*
X55725Y-33448D01*
X55711Y-33463D01*
X55696Y-33491D01*
X51582Y-33620D02*
X51582Y-33320D01*
X51653Y-33320D01*
X51696Y-33334D01*
X51725Y-33363D01*
X51739Y-33391D01*
X51753Y-33448D01*
X51753Y-33491D01*
X51739Y-33548D01*
X51725Y-33577D01*
X51696Y-33605D01*
X51653Y-33620D01*
X51582Y-33620D01*
X52010Y-33420D02*
X52010Y-33620D01*
X51939Y-33305D02*
X51867Y-33520D01*
X52053Y-33520D01*
X52310Y-33320D02*
X52167Y-33320D01*
X52153Y-33463D01*
X52167Y-33448D01*
X52196Y-33434D01*
X52267Y-33434D01*
X52296Y-33448D01*
X52310Y-33463D01*
X52325Y-33491D01*
X52325Y-33563D01*
X52310Y-33591D01*
X52296Y-33605D01*
X52267Y-33620D01*
X52196Y-33620D01*
X52167Y-33605D01*
X52153Y-33591D01*
X48038Y-33620D02*
X48038Y-33320D01*
X48110Y-33320D01*
X48153Y-33334D01*
X48181Y-33363D01*
X48196Y-33391D01*
X48210Y-33448D01*
X48210Y-33491D01*
X48196Y-33548D01*
X48181Y-33577D01*
X48153Y-33605D01*
X48110Y-33620D01*
X48038Y-33620D01*
X48467Y-33420D02*
X48467Y-33620D01*
X48396Y-33305D02*
X48324Y-33520D01*
X48510Y-33520D01*
X48753Y-33420D02*
X48753Y-33620D01*
X48681Y-33305D02*
X48610Y-33520D01*
X48796Y-33520D01*
X44495Y-33620D02*
X44495Y-33320D01*
X44566Y-33320D01*
X44609Y-33334D01*
X44638Y-33363D01*
X44652Y-33391D01*
X44666Y-33448D01*
X44666Y-33491D01*
X44652Y-33548D01*
X44638Y-33577D01*
X44609Y-33605D01*
X44566Y-33620D01*
X44495Y-33620D01*
X44924Y-33420D02*
X44924Y-33620D01*
X44852Y-33305D02*
X44781Y-33520D01*
X44966Y-33520D01*
X45052Y-33320D02*
X45238Y-33320D01*
X45138Y-33434D01*
X45181Y-33434D01*
X45209Y-33448D01*
X45224Y-33463D01*
X45238Y-33491D01*
X45238Y-33563D01*
X45224Y-33591D01*
X45209Y-33605D01*
X45181Y-33620D01*
X45095Y-33620D01*
X45066Y-33605D01*
X45052Y-33591D01*
X40952Y-33620D02*
X40952Y-33320D01*
X41023Y-33320D01*
X41066Y-33334D01*
X41095Y-33363D01*
X41109Y-33391D01*
X41123Y-33448D01*
X41123Y-33491D01*
X41109Y-33548D01*
X41095Y-33577D01*
X41066Y-33605D01*
X41023Y-33620D01*
X40952Y-33620D01*
X41380Y-33420D02*
X41380Y-33620D01*
X41309Y-33305D02*
X41237Y-33520D01*
X41423Y-33520D01*
X41523Y-33348D02*
X41537Y-33334D01*
X41566Y-33320D01*
X41637Y-33320D01*
X41666Y-33334D01*
X41680Y-33348D01*
X41695Y-33377D01*
X41695Y-33405D01*
X41680Y-33448D01*
X41509Y-33620D01*
X41695Y-33620D01*
X37408Y-33620D02*
X37408Y-33320D01*
X37480Y-33320D01*
X37523Y-33334D01*
X37551Y-33363D01*
X37566Y-33391D01*
X37580Y-33448D01*
X37580Y-33491D01*
X37566Y-33548D01*
X37551Y-33577D01*
X37523Y-33605D01*
X37480Y-33620D01*
X37408Y-33620D01*
X37837Y-33420D02*
X37837Y-33620D01*
X37766Y-33305D02*
X37694Y-33520D01*
X37880Y-33520D01*
X38151Y-33620D02*
X37980Y-33620D01*
X38066Y-33620D02*
X38066Y-33320D01*
X38037Y-33363D01*
X38008Y-33391D01*
X37980Y-33405D01*
X33865Y-33620D02*
X33865Y-33320D01*
X33937Y-33320D01*
X33979Y-33334D01*
X34008Y-33363D01*
X34022Y-33391D01*
X34037Y-33448D01*
X34037Y-33491D01*
X34022Y-33548D01*
X34008Y-33577D01*
X33979Y-33605D01*
X33937Y-33620D01*
X33865Y-33620D01*
X34294Y-33420D02*
X34294Y-33620D01*
X34222Y-33305D02*
X34151Y-33520D01*
X34337Y-33520D01*
X34508Y-33320D02*
X34537Y-33320D01*
X34565Y-33334D01*
X34579Y-33348D01*
X34594Y-33377D01*
X34608Y-33434D01*
X34608Y-33505D01*
X34594Y-33563D01*
X34579Y-33591D01*
X34565Y-33605D01*
X34537Y-33620D01*
X34508Y-33620D01*
X34479Y-33605D01*
X34465Y-33591D01*
X34451Y-33563D01*
X34437Y-33505D01*
X34437Y-33434D01*
X34451Y-33377D01*
X34465Y-33348D01*
X34479Y-33334D01*
X34508Y-33320D01*
X30322Y-33620D02*
X30322Y-33320D01*
X30393Y-33320D01*
X30436Y-33334D01*
X30465Y-33363D01*
X30479Y-33391D01*
X30493Y-33448D01*
X30493Y-33491D01*
X30479Y-33548D01*
X30465Y-33577D01*
X30436Y-33605D01*
X30393Y-33620D01*
X30322Y-33620D01*
X30593Y-33320D02*
X30779Y-33320D01*
X30679Y-33434D01*
X30722Y-33434D01*
X30750Y-33448D01*
X30765Y-33463D01*
X30779Y-33491D01*
X30779Y-33563D01*
X30765Y-33591D01*
X30750Y-33605D01*
X30722Y-33620D01*
X30636Y-33620D01*
X30608Y-33605D01*
X30593Y-33591D01*
X30922Y-33620D02*
X30979Y-33620D01*
X31008Y-33605D01*
X31022Y-33591D01*
X31050Y-33548D01*
X31065Y-33491D01*
X31065Y-33377D01*
X31050Y-33348D01*
X31036Y-33334D01*
X31008Y-33320D01*
X30950Y-33320D01*
X30922Y-33334D01*
X30908Y-33348D01*
X30893Y-33377D01*
X30893Y-33448D01*
X30908Y-33477D01*
X30922Y-33491D01*
X30950Y-33505D01*
X31008Y-33505D01*
X31036Y-33491D01*
X31050Y-33477D01*
X31065Y-33448D01*
X23378Y-22990D02*
X23378Y-22690D01*
X23450Y-22690D01*
X23492Y-22704D01*
X23521Y-22733D01*
X23535Y-22761D01*
X23550Y-22818D01*
X23550Y-22861D01*
X23535Y-22918D01*
X23521Y-22947D01*
X23492Y-22976D01*
X23450Y-22990D01*
X23378Y-22990D01*
X23835Y-22990D02*
X23664Y-22990D01*
X23750Y-22990D02*
X23750Y-22690D01*
X23721Y-22733D01*
X23692Y-22761D01*
X23664Y-22776D01*
X23235Y-33620D02*
X23235Y-33320D01*
X23307Y-33320D01*
X23350Y-33334D01*
X23378Y-33363D01*
X23392Y-33391D01*
X23407Y-33448D01*
X23407Y-33491D01*
X23392Y-33548D01*
X23378Y-33577D01*
X23350Y-33605D01*
X23307Y-33620D01*
X23235Y-33620D01*
X23507Y-33320D02*
X23692Y-33320D01*
X23592Y-33434D01*
X23635Y-33434D01*
X23664Y-33448D01*
X23678Y-33463D01*
X23692Y-33491D01*
X23692Y-33563D01*
X23678Y-33591D01*
X23664Y-33605D01*
X23635Y-33620D01*
X23550Y-33620D01*
X23521Y-33605D01*
X23507Y-33591D01*
X23792Y-33320D02*
X23992Y-33320D01*
X23864Y-33620D01*
X62212Y-30076D02*
X62212Y-29776D01*
X62283Y-29776D01*
X62326Y-29791D01*
X62354Y-29819D01*
X62369Y-29848D01*
X62383Y-29905D01*
X62383Y-29948D01*
X62369Y-30005D01*
X62354Y-30034D01*
X62326Y-30062D01*
X62283Y-30076D01*
X62212Y-30076D01*
X62483Y-29776D02*
X62669Y-29776D01*
X62569Y-29891D01*
X62612Y-29891D01*
X62640Y-29905D01*
X62654Y-29919D01*
X62669Y-29948D01*
X62669Y-30019D01*
X62654Y-30048D01*
X62640Y-30062D01*
X62612Y-30076D01*
X62526Y-30076D01*
X62497Y-30062D01*
X62483Y-30048D01*
X62926Y-29776D02*
X62869Y-29776D01*
X62840Y-29791D01*
X62826Y-29805D01*
X62797Y-29848D01*
X62783Y-29905D01*
X62783Y-30019D01*
X62797Y-30048D01*
X62812Y-30062D01*
X62840Y-30076D01*
X62897Y-30076D01*
X62926Y-30062D01*
X62940Y-30048D01*
X62954Y-30019D01*
X62954Y-29948D01*
X62940Y-29919D01*
X62926Y-29905D01*
X62897Y-29891D01*
X62840Y-29891D01*
X62812Y-29905D01*
X62797Y-29919D01*
X62783Y-29948D01*
X58668Y-30076D02*
X58668Y-29776D01*
X58740Y-29776D01*
X58783Y-29791D01*
X58811Y-29819D01*
X58825Y-29848D01*
X58840Y-29905D01*
X58840Y-29948D01*
X58825Y-30005D01*
X58811Y-30034D01*
X58783Y-30062D01*
X58740Y-30076D01*
X58668Y-30076D01*
X58940Y-29776D02*
X59125Y-29776D01*
X59025Y-29891D01*
X59068Y-29891D01*
X59097Y-29905D01*
X59111Y-29919D01*
X59125Y-29948D01*
X59125Y-30019D01*
X59111Y-30048D01*
X59097Y-30062D01*
X59068Y-30076D01*
X58983Y-30076D01*
X58954Y-30062D01*
X58940Y-30048D01*
X59397Y-29776D02*
X59254Y-29776D01*
X59240Y-29919D01*
X59254Y-29905D01*
X59283Y-29891D01*
X59354Y-29891D01*
X59383Y-29905D01*
X59397Y-29919D01*
X59411Y-29948D01*
X59411Y-30019D01*
X59397Y-30048D01*
X59383Y-30062D01*
X59354Y-30076D01*
X59283Y-30076D01*
X59254Y-30062D01*
X59240Y-30048D01*
X55125Y-30076D02*
X55125Y-29776D01*
X55196Y-29776D01*
X55239Y-29791D01*
X55268Y-29819D01*
X55282Y-29848D01*
X55296Y-29905D01*
X55296Y-29948D01*
X55282Y-30005D01*
X55268Y-30034D01*
X55239Y-30062D01*
X55196Y-30076D01*
X55125Y-30076D01*
X55396Y-29776D02*
X55582Y-29776D01*
X55482Y-29891D01*
X55525Y-29891D01*
X55554Y-29905D01*
X55568Y-29919D01*
X55582Y-29948D01*
X55582Y-30019D01*
X55568Y-30048D01*
X55554Y-30062D01*
X55525Y-30076D01*
X55439Y-30076D01*
X55411Y-30062D01*
X55396Y-30048D01*
X55839Y-29876D02*
X55839Y-30076D01*
X55768Y-29762D02*
X55696Y-29976D01*
X55882Y-29976D01*
X51582Y-30076D02*
X51582Y-29776D01*
X51653Y-29776D01*
X51696Y-29791D01*
X51725Y-29819D01*
X51739Y-29848D01*
X51753Y-29905D01*
X51753Y-29948D01*
X51739Y-30005D01*
X51725Y-30034D01*
X51696Y-30062D01*
X51653Y-30076D01*
X51582Y-30076D01*
X51853Y-29776D02*
X52039Y-29776D01*
X51939Y-29891D01*
X51982Y-29891D01*
X52010Y-29905D01*
X52025Y-29919D01*
X52039Y-29948D01*
X52039Y-30019D01*
X52025Y-30048D01*
X52010Y-30062D01*
X51982Y-30076D01*
X51896Y-30076D01*
X51867Y-30062D01*
X51853Y-30048D01*
X52139Y-29776D02*
X52325Y-29776D01*
X52225Y-29891D01*
X52267Y-29891D01*
X52296Y-29905D01*
X52310Y-29919D01*
X52325Y-29948D01*
X52325Y-30019D01*
X52310Y-30048D01*
X52296Y-30062D01*
X52267Y-30076D01*
X52182Y-30076D01*
X52153Y-30062D01*
X52139Y-30048D01*
X48038Y-30076D02*
X48038Y-29776D01*
X48110Y-29776D01*
X48153Y-29791D01*
X48181Y-29819D01*
X48196Y-29848D01*
X48210Y-29905D01*
X48210Y-29948D01*
X48196Y-30005D01*
X48181Y-30034D01*
X48153Y-30062D01*
X48110Y-30076D01*
X48038Y-30076D01*
X48310Y-29776D02*
X48496Y-29776D01*
X48396Y-29891D01*
X48438Y-29891D01*
X48467Y-29905D01*
X48481Y-29919D01*
X48496Y-29948D01*
X48496Y-30019D01*
X48481Y-30048D01*
X48467Y-30062D01*
X48438Y-30076D01*
X48353Y-30076D01*
X48324Y-30062D01*
X48310Y-30048D01*
X48610Y-29805D02*
X48624Y-29791D01*
X48653Y-29776D01*
X48724Y-29776D01*
X48753Y-29791D01*
X48767Y-29805D01*
X48781Y-29834D01*
X48781Y-29862D01*
X48767Y-29905D01*
X48596Y-30076D01*
X48781Y-30076D01*
X44495Y-30076D02*
X44495Y-29776D01*
X44566Y-29776D01*
X44609Y-29791D01*
X44638Y-29819D01*
X44652Y-29848D01*
X44666Y-29905D01*
X44666Y-29948D01*
X44652Y-30005D01*
X44638Y-30034D01*
X44609Y-30062D01*
X44566Y-30076D01*
X44495Y-30076D01*
X44766Y-29776D02*
X44952Y-29776D01*
X44852Y-29891D01*
X44895Y-29891D01*
X44924Y-29905D01*
X44938Y-29919D01*
X44952Y-29948D01*
X44952Y-30019D01*
X44938Y-30048D01*
X44924Y-30062D01*
X44895Y-30076D01*
X44809Y-30076D01*
X44781Y-30062D01*
X44766Y-30048D01*
X45238Y-30076D02*
X45066Y-30076D01*
X45152Y-30076D02*
X45152Y-29776D01*
X45124Y-29819D01*
X45095Y-29848D01*
X45066Y-29862D01*
X40952Y-30076D02*
X40952Y-29776D01*
X41023Y-29776D01*
X41066Y-29791D01*
X41095Y-29819D01*
X41109Y-29848D01*
X41123Y-29905D01*
X41123Y-29948D01*
X41109Y-30005D01*
X41095Y-30034D01*
X41066Y-30062D01*
X41023Y-30076D01*
X40952Y-30076D01*
X41223Y-29776D02*
X41409Y-29776D01*
X41309Y-29891D01*
X41352Y-29891D01*
X41380Y-29905D01*
X41395Y-29919D01*
X41409Y-29948D01*
X41409Y-30019D01*
X41395Y-30048D01*
X41380Y-30062D01*
X41352Y-30076D01*
X41266Y-30076D01*
X41237Y-30062D01*
X41223Y-30048D01*
X41595Y-29776D02*
X41623Y-29776D01*
X41652Y-29791D01*
X41666Y-29805D01*
X41680Y-29834D01*
X41695Y-29891D01*
X41695Y-29962D01*
X41680Y-30019D01*
X41666Y-30048D01*
X41652Y-30062D01*
X41623Y-30076D01*
X41595Y-30076D01*
X41566Y-30062D01*
X41552Y-30048D01*
X41537Y-30019D01*
X41523Y-29962D01*
X41523Y-29891D01*
X41537Y-29834D01*
X41552Y-29805D01*
X41566Y-29791D01*
X41595Y-29776D01*
X37408Y-30076D02*
X37408Y-29776D01*
X37480Y-29776D01*
X37523Y-29791D01*
X37551Y-29819D01*
X37566Y-29848D01*
X37580Y-29905D01*
X37580Y-29948D01*
X37566Y-30005D01*
X37551Y-30034D01*
X37523Y-30062D01*
X37480Y-30076D01*
X37408Y-30076D01*
X37694Y-29805D02*
X37708Y-29791D01*
X37737Y-29776D01*
X37808Y-29776D01*
X37837Y-29791D01*
X37851Y-29805D01*
X37866Y-29834D01*
X37866Y-29862D01*
X37851Y-29905D01*
X37680Y-30076D01*
X37866Y-30076D01*
X38008Y-30076D02*
X38066Y-30076D01*
X38094Y-30062D01*
X38108Y-30048D01*
X38137Y-30005D01*
X38151Y-29948D01*
X38151Y-29834D01*
X38137Y-29805D01*
X38123Y-29791D01*
X38094Y-29776D01*
X38037Y-29776D01*
X38008Y-29791D01*
X37994Y-29805D01*
X37980Y-29834D01*
X37980Y-29905D01*
X37994Y-29934D01*
X38008Y-29948D01*
X38037Y-29962D01*
X38094Y-29962D01*
X38123Y-29948D01*
X38137Y-29934D01*
X38151Y-29905D01*
X33865Y-30076D02*
X33865Y-29776D01*
X33937Y-29776D01*
X33979Y-29791D01*
X34008Y-29819D01*
X34022Y-29848D01*
X34037Y-29905D01*
X34037Y-29948D01*
X34022Y-30005D01*
X34008Y-30034D01*
X33979Y-30062D01*
X33937Y-30076D01*
X33865Y-30076D01*
X34151Y-29805D02*
X34165Y-29791D01*
X34194Y-29776D01*
X34265Y-29776D01*
X34294Y-29791D01*
X34308Y-29805D01*
X34322Y-29834D01*
X34322Y-29862D01*
X34308Y-29905D01*
X34137Y-30076D01*
X34322Y-30076D01*
X34494Y-29905D02*
X34465Y-29891D01*
X34451Y-29876D01*
X34437Y-29848D01*
X34437Y-29834D01*
X34451Y-29805D01*
X34465Y-29791D01*
X34494Y-29776D01*
X34551Y-29776D01*
X34579Y-29791D01*
X34594Y-29805D01*
X34608Y-29834D01*
X34608Y-29848D01*
X34594Y-29876D01*
X34579Y-29891D01*
X34551Y-29905D01*
X34494Y-29905D01*
X34465Y-29919D01*
X34451Y-29934D01*
X34437Y-29962D01*
X34437Y-30019D01*
X34451Y-30048D01*
X34465Y-30062D01*
X34494Y-30076D01*
X34551Y-30076D01*
X34579Y-30062D01*
X34594Y-30048D01*
X34608Y-30019D01*
X34608Y-29962D01*
X34594Y-29934D01*
X34579Y-29919D01*
X34551Y-29905D01*
X30322Y-30076D02*
X30322Y-29776D01*
X30393Y-29776D01*
X30436Y-29791D01*
X30465Y-29819D01*
X30479Y-29848D01*
X30493Y-29905D01*
X30493Y-29948D01*
X30479Y-30005D01*
X30465Y-30034D01*
X30436Y-30062D01*
X30393Y-30076D01*
X30322Y-30076D01*
X30608Y-29805D02*
X30622Y-29791D01*
X30650Y-29776D01*
X30722Y-29776D01*
X30750Y-29791D01*
X30765Y-29805D01*
X30779Y-29834D01*
X30779Y-29862D01*
X30765Y-29905D01*
X30593Y-30076D01*
X30779Y-30076D01*
X30879Y-29776D02*
X31079Y-29776D01*
X30950Y-30076D01*
M02*
