G04 (created by PCBNEW (2013-jul-07)-stable) date Fri 28 Nov 2014 01:10:13 PM PST*
%MOIN*%
G04 Gerber Fmt 3.4, Leading zero omitted, Abs format*
%FSLAX34Y34*%
G01*
G70*
G90*
G04 APERTURE LIST*
%ADD10C,0.00590551*%
%ADD11C,0.1*%
%ADD12R,0.062X0.09*%
%ADD13O,0.062X0.09*%
%ADD14C,0.076*%
%ADD15C,0.14*%
%ADD16C,0.16*%
%ADD17C,0.066*%
%ADD18C,0.13*%
G04 APERTURE END LIST*
G54D10*
G54D11*
X49311Y-62385D03*
X51181Y-62385D03*
X53051Y-62385D03*
G54D12*
X36066Y-63901D03*
G54D13*
X37066Y-63901D03*
X38066Y-63901D03*
X39066Y-63901D03*
X40066Y-63901D03*
X41066Y-63901D03*
X42066Y-63901D03*
X43066Y-63901D03*
X43066Y-60901D03*
X42066Y-60901D03*
X41066Y-60901D03*
X40066Y-60901D03*
X39066Y-60901D03*
X38066Y-60901D03*
X37066Y-60901D03*
X36066Y-60901D03*
G54D12*
X24255Y-63901D03*
G54D13*
X25255Y-63901D03*
X26255Y-63901D03*
X27255Y-63901D03*
X28255Y-63901D03*
X29255Y-63901D03*
X30255Y-63901D03*
X31255Y-63901D03*
X31255Y-60901D03*
X30255Y-60901D03*
X29255Y-60901D03*
X28255Y-60901D03*
X27255Y-60901D03*
X26255Y-60901D03*
X25255Y-60901D03*
X24255Y-60901D03*
G54D14*
X62007Y-64174D03*
G54D15*
X62007Y-62994D03*
G54D16*
X62007Y-60634D03*
G54D15*
X63777Y-63384D03*
X60237Y-63384D03*
G54D17*
X24500Y-45078D03*
X25500Y-45078D03*
X35129Y-37992D03*
X36129Y-37992D03*
X63476Y-41535D03*
X64476Y-41535D03*
X59933Y-41535D03*
X60933Y-41535D03*
X56389Y-41535D03*
X57389Y-41535D03*
X52846Y-41535D03*
X53846Y-41535D03*
X49303Y-41535D03*
X50303Y-41535D03*
X45759Y-41535D03*
X46759Y-41535D03*
X42216Y-41535D03*
X43216Y-41535D03*
X38673Y-41535D03*
X39673Y-41535D03*
X35129Y-41535D03*
X36129Y-41535D03*
X31586Y-41535D03*
X32586Y-41535D03*
X28043Y-41535D03*
X29043Y-41535D03*
X24500Y-41535D03*
X25500Y-41535D03*
X63476Y-37992D03*
X64476Y-37992D03*
X59933Y-37992D03*
X60933Y-37992D03*
X56389Y-37992D03*
X57389Y-37992D03*
X52846Y-37992D03*
X53846Y-37992D03*
X49303Y-37992D03*
X50303Y-37992D03*
X45759Y-37992D03*
X46759Y-37992D03*
X42216Y-37992D03*
X43216Y-37992D03*
X38673Y-37992D03*
X39673Y-37992D03*
X31586Y-37992D03*
X32586Y-37992D03*
X24500Y-48622D03*
X25500Y-48622D03*
X63476Y-48622D03*
X64476Y-48622D03*
X59933Y-48622D03*
X60933Y-48622D03*
X56389Y-48622D03*
X57389Y-48622D03*
X52846Y-48622D03*
X53846Y-48622D03*
X49303Y-48622D03*
X50303Y-48622D03*
X45759Y-48622D03*
X46759Y-48622D03*
X42216Y-48622D03*
X43216Y-48622D03*
X38673Y-48622D03*
X39673Y-48622D03*
X35129Y-48622D03*
X36129Y-48622D03*
X31586Y-48622D03*
X32586Y-48622D03*
X28043Y-48622D03*
X29043Y-48622D03*
X28043Y-45078D03*
X29043Y-45078D03*
X63476Y-45078D03*
X64476Y-45078D03*
X59933Y-45078D03*
X60933Y-45078D03*
X56389Y-45078D03*
X57389Y-45078D03*
X52846Y-45078D03*
X53846Y-45078D03*
X49303Y-45078D03*
X50303Y-45078D03*
X45759Y-45078D03*
X46759Y-45078D03*
X42216Y-45078D03*
X43216Y-45078D03*
X38673Y-45078D03*
X39673Y-45078D03*
X35129Y-45078D03*
X36129Y-45078D03*
X31586Y-45078D03*
X32586Y-45078D03*
X24500Y-27362D03*
X25500Y-27362D03*
X24500Y-30905D03*
X25500Y-30905D03*
X63476Y-27362D03*
X64476Y-27362D03*
X59933Y-27362D03*
X60933Y-27362D03*
X56389Y-27362D03*
X57389Y-27362D03*
X52846Y-27362D03*
X53846Y-27362D03*
X49303Y-27362D03*
X50303Y-27362D03*
X45759Y-27362D03*
X46759Y-27362D03*
X42216Y-27362D03*
X43216Y-27362D03*
X38673Y-27362D03*
X39673Y-27362D03*
X35129Y-27362D03*
X36129Y-27362D03*
X31586Y-27362D03*
X32586Y-27362D03*
X28043Y-27362D03*
X29043Y-27362D03*
X28043Y-30905D03*
X29043Y-30905D03*
X63476Y-23818D03*
X64476Y-23818D03*
X59933Y-23818D03*
X60933Y-23818D03*
X56389Y-23818D03*
X57389Y-23818D03*
X52846Y-23818D03*
X53846Y-23818D03*
X49303Y-23818D03*
X50303Y-23818D03*
X45759Y-23818D03*
X46759Y-23818D03*
X42216Y-23818D03*
X43216Y-23818D03*
X38673Y-23818D03*
X39673Y-23818D03*
X35129Y-23818D03*
X36129Y-23818D03*
X31586Y-23818D03*
X32586Y-23818D03*
X28043Y-23818D03*
X29043Y-23818D03*
X28043Y-34448D03*
X29043Y-34448D03*
X28043Y-37992D03*
X29043Y-37992D03*
X24500Y-37992D03*
X25500Y-37992D03*
X63476Y-34448D03*
X64476Y-34448D03*
X59933Y-34448D03*
X60933Y-34448D03*
X56389Y-34448D03*
X57389Y-34448D03*
X52846Y-34448D03*
X53846Y-34448D03*
X49303Y-34448D03*
X50303Y-34448D03*
X45759Y-34448D03*
X46759Y-34448D03*
X42216Y-34448D03*
X43216Y-34448D03*
X38673Y-34448D03*
X39673Y-34448D03*
X35129Y-34448D03*
X36129Y-34448D03*
X31586Y-34448D03*
X32586Y-34448D03*
X24500Y-23818D03*
X25500Y-23818D03*
X24500Y-34448D03*
X25500Y-34448D03*
X63476Y-30905D03*
X64476Y-30905D03*
X59933Y-30905D03*
X60933Y-30905D03*
X56389Y-30905D03*
X57389Y-30905D03*
X52846Y-30905D03*
X53846Y-30905D03*
X49303Y-30905D03*
X50303Y-30905D03*
X45759Y-30905D03*
X46759Y-30905D03*
X42216Y-30905D03*
X43216Y-30905D03*
X38673Y-30905D03*
X39673Y-30905D03*
X35129Y-30905D03*
X36129Y-30905D03*
X31586Y-30905D03*
X32586Y-30905D03*
G54D18*
X16929Y-16141D03*
X16929Y-63385D03*
X72047Y-63385D03*
X72047Y-16141D03*
M02*
